<svg  width="119" height="119" viewBox="0 0 119 119" fill="none" xmlns="http://www.w3.org/2000/svg">
<path fill='#80ee' d="M37.2086 18.0973C29.5592 18.3267 24.9986 19.1781 21.8429 22.3367C17.5227 26.661 17.5227 33.6206 17.5227 47.54V79.5281C17.5227 93.4476 17.5227 100.407 21.8429 104.731C26.1631 109.056 33.1163 109.056 47.0227 109.056H71.6061C85.5124 109.056 92.4655 109.056 96.7858 104.731C101.106 100.407 101.106 93.4476 101.106 79.5281V47.54C101.106 33.6206 101.106 26.661 96.7858 22.3368C93.6303 19.1781 89.0696 18.3267 81.4203 18.0973" stroke="#141B34" stroke-width="8.5"/>
<path d="M37.1892 19.3264C37.1892 14.5745 41.0415 10.7222 45.7934 10.7222H72.8351C77.5871 10.7222 81.4393 14.5745 81.4393 19.3264C81.4393 24.0784 77.5871 27.9306 72.8351 27.9306H45.7934C41.0415 27.9306 37.1892 24.0784 37.1892 19.3264Z" stroke="#141B34" stroke-width="8.5" stroke-linejoin="round"/>
<path d="M66.7085 54.9722H83.9168" stroke="#141B34" stroke-width="8.5" stroke-linecap="round"/>
<path d="M34.7502 59.8889C34.7502 59.8889 37.2086 59.8889 39.6669 64.8056C39.6669 64.8056 47.4758 52.5139 54.4169 50.0556" stroke="#141B34" stroke-width="8.5" stroke-linecap="round" stroke-linejoin="round"/>
<path d="M66.7085 84.4723H83.9168" stroke="#141B34" stroke-width="8.5" stroke-linecap="round"/>
<path d="M39.6667 84.4723H44.5834" stroke="#141B34" stroke-width="8.5" stroke-linecap="round" stroke-linejoin="round"/>
</svg>
