<?xml version="1.0" encoding="utf-8"?>
<!-- Generator: Adobe Illustrator 27.5.0, SVG Export Plug-In . SVG Version: 6.00 Build 0)  -->
<svg version="1.1" xmlns="http://www.w3.org/2000/svg" xmlns:xlink="http://www.w3.org/1999/xlink" x="0px" y="0px"
	 viewBox="0 0 500 500" style="enable-background:new 0 0 500 500;" xml:space="preserve">
<g id="BACKGROUND">
	
</g>
<g id="OBJECTS">
	<path style="opacity:0.59;fill:#D2D0F0;" d="M38.109,363.496c-6.72,8.806-9.283,20.948-3.515,30.698
		c4.851,8.199,13.228,14.228,22.904,15.591c9.53,1.342,21.592-0.651,26.716,7.328c1.638,2.551,2.12,5.698,3.829,8.205
		c3.643,5.343,11.265,5.991,17.827,6.102c67.178,1.144,134.434,2.287,201.507-1.577c10.579-0.609,21.262-1.363,31.389-4.419
		c8.028-2.423,15.542-6.245,23.47-8.965c11.434-3.923,23.542-5.467,35.609-5.811c11.836-0.338,23.864,1.72,35.603,1.06
		c8.192-0.461,33.102-0.614,29.128-14.226c-0.77-2.637-2.954-4.631-5.155-6.337c-7.39-5.73-15.886-9.544-24.982-11.88
		c-5.804-1.491-15.187-1.752-15.897-9.879c-0.533-6.1,5.061-6.036,8.912-8.658c4.973-3.385,3.952-9.898-0.846-13.407
		c-3.844-2.81-8.887-3.368-13.67-3.743c-18.359-1.439-36.795-1.614-55.212-1.788c-95.004-0.896-190.24-1.783-284.766,7.583
		c-7.317,0.725-14.792,1.556-21.416,4.682C45.127,356.138,41.183,359.468,38.109,363.496z"/>
	<path style="opacity:0.65;fill:#B8B6DE;" d="M378.622,377.969c-1.955,3.676-8.22,4.284-11.901,4.662
		c-56.235,5.783-113.018-0.382-169.495,2.111c-15.965,0.705-32.123,2.092-48.001-0.441c-4.231-0.675-16.9-1.193-13.429-8.047
		c2.062-4.071,7.899-5.568,11.957-6.479c1.907-0.428,3.842-0.744,5.783-0.967c69.147-7.95,139.099-0.151,208.656-2.691
		c3.362-0.123,6.799-0.261,10.019,0.713c4.06,1.228,7.784,5.213,6.908,9.726C379.018,377.072,378.849,377.541,378.622,377.969z"/>
	<g>
		<path style="opacity:0.65;fill:#B8B6DE;" d="M379.443,360.93c2.456,1.138,5.172,1.586,7.863,1.882
			c3.457,0.38,6.98,0.523,10.389-0.165c2.01-0.406,4.113-1.216,5.199-2.955c0.957-1.532,0.918-3.553,0.18-5.201
			c-0.738-1.649-2.097-2.956-3.613-3.937c-5.952-3.851-14.841-3.169-21.538-1.794C370.148,350.355,374.234,358.516,379.443,360.93z"
			/>
		<g>
			<g>
				<path style="fill:#A444B3;" d="M387.577,253.979c-14.256-1.506-37.36,8.931-48.772-1.724
					c-11.254-10.507-10.121-38.048-11.945-51.828c-1.822-13.762-23.733-13.943-21.887,0c2.832,21.389,2.116,50.664,18.356,67.305
					c18.204,18.654,42.165,5.802,64.249,8.135C401.568,277.344,401.465,255.446,387.577,253.979z"/>
				<path style="fill:#A444B3;" d="M469.884,132.795c-1.957-15.137-26.034-15.333-24.052,0c2.739,21.186,6.421,44.768-2.864,64.909
					c-8.103,17.577-24.817,23.213-41.667,29.081V117.214c0-15.476-24.052-15.502-24.052,0v231.366
					c0,6.097,4.988,11.072,11.085,11.057c0.646-0.002,1.292-0.003,1.938-0.005c6.096-0.014,11.03-4.961,11.03-11.057v-96.33
					c23.768-8.72,47.831-15.592,60.849-39.289C475.779,188.148,473.379,159.826,469.884,132.795z"/>
			</g>
			<g>
				<defs>
					<path id="SVGID_1_" d="M469.884,132.795c-1.957-15.137-26.034-15.333-24.052,0c2.739,21.186,6.421,44.768-2.864,64.909
						c-8.103,17.577-24.817,23.213-41.667,29.081V117.214c0-15.476-24.052-15.502-24.052,0v231.366
						c0,6.097,4.988,11.072,11.085,11.057c0.646-0.002,1.292-0.003,1.938-0.005c6.096-0.014,11.03-4.961,11.03-11.057v-96.33
						c23.768-8.72,47.831-15.592,60.849-39.289C475.779,188.148,473.379,159.826,469.884,132.795z"/>
				</defs>
				<clipPath id="SVGID_00000136391484982016353340000018218796618039371170_">
					<use xlink:href="#SVGID_1_"  style="overflow:visible;"/>
				</clipPath>
				
					<polyline style="clip-path:url(#SVGID_00000136391484982016353340000018218796618039371170_);fill:none;stroke:#7B299E;stroke-miterlimit:10;" points="
					394.67,97.369 394.67,369.166 382.185,369.166 384.106,97.369 				"/>
				
					<path style="clip-path:url(#SVGID_00000136391484982016353340000018218796618039371170_);fill:none;stroke:#7B299E;stroke-miterlimit:10;" d="
					M448.26,98.805c7.226,20.801,11.095,42.764,11.413,64.782c0.135,9.357-0.389,18.846-3.219,27.766
					c-4.117,12.977-13.043,24.163-24.092,32.117c-11.049,7.954-24.135,12.801-37.527,15.254"/>
			</g>
		</g>
	</g>
	<g>
		<path style="opacity:0.65;fill:#B8B6DE;" d="M102.824,405.019c-4.931-4.139-21.36-0.119-17.411,6.184
			c2.114,3.373,7.136,2.983,10.5,2.57c1.812-0.223,3.662-0.504,5.265-1.377c1.603-0.873,2.933-2.463,3.004-4.287
			C104.233,406.787,103.718,405.769,102.824,405.019z"/>
		<g>
			<g>
				<path style="fill:#E1E5EE;" d="M359.771,375.506H153.351c-4.367,0-7.908-3.54-7.908-7.908V71.566
					c0-4.367,3.54-7.908,7.908-7.908h206.421c4.367,0,7.908,3.54,7.908,7.908v296.032
					C367.679,371.966,364.139,375.506,359.771,375.506z"/>
				<g>
					<defs>
						<path id="SVGID_00000075884848960995879440000004873679143982530744_" d="M359.771,375.506H153.351
							c-4.367,0-7.908-3.54-7.908-7.908V71.566c0-4.367,3.54-7.908,7.908-7.908h206.421c4.367,0,7.908,3.54,7.908,7.908v296.032
							C367.679,371.966,364.139,375.506,359.771,375.506z"/>
					</defs>
					<clipPath id="SVGID_00000097469735223129723850000000670185037565714050_">
						<use xlink:href="#SVGID_00000075884848960995879440000004873679143982530744_"  style="overflow:visible;"/>
					</clipPath>
					<path style="opacity:0.24;clip-path:url(#SVGID_00000097469735223129723850000000670185037565714050_);fill:#6F86D9;" d="
						M232.922,341.019c4.672-2.084,9.378-4.144,14.104-6.188c10.66-4.61,21.572-9.185,33.97-12.12
						c12.398-2.935,26.599-4.113,39.374-1.743c8.427,1.563,15.757,4.558,22.654,7.695c14.535,6.61,27.83,14.047,40.327,21.862
						c5.169,3.232,10.414,6.774,11.596,11.067c1.4,5.083-3.481,10.273-10.737,13.412c-8.411,3.639-17.168,4.33-27.201,4.113
						c-11.591-0.25-22.872,2.542-34.579,2.629c-14.446,0.107-28.868,2.059-43.276,2.905c-31.489,1.849-63.633,1.82-94.639-2.12
						c-9.45-1.201-21.784-3.731-14.077-9.687c6.538-5.053,16.342-9.467,24.488-13.692
						C207.143,352.818,219.903,346.826,232.922,341.019z"/>
					<path style="clip-path:url(#SVGID_00000097469735223129723850000000670185037565714050_);fill:#B1B0D9;" d="M206.162,341.217
						c-0.133,7.746,0.371,15.823-0.417,23.525c-0.382,3.738-1.666,6.647-4.483,9.183c-2.172,1.954-3.947,2.158-6.165,2.225v-28.252
						c0-5.579-8.67-5.588-8.67,0v16.008c-4.578-0.811-8.67-0.421-10.336-6.889c-1.587-6.162-0.782-13.332-0.307-19.588
						c0.423-5.565-8.249-5.538-8.67,0c-0.626,8.228-1.574,17.996,2.008,25.713c1.4,3.015,3.593,5.728,6.492,7.443
						c1.252,0.741,2.705,1.319,4.132,1.628c1.843,0.399,4.359-0.484,6.006,0.222c0.227,0.098,0.451,0.154,0.675,0.214v34.163
						c0,5.579,8.67,5.588,8.67,0v-21.951c2.623,0.025,4.941,0.133,7.71-1.352c3.644-1.954,6.869-5.306,8.974-8.841
						c2.33-3.914,2.594-7.889,2.688-12.355c0.148-7.031,0.242-14.065,0.363-21.097C214.928,335.636,206.258,335.635,206.162,341.217
						z"/>
				</g>
				<path style="fill:none;stroke:#13195C;stroke-width:6;stroke-miterlimit:10;" d="M359.446,375.506h-205.77
					c-4.547,0-8.233-3.686-8.233-8.233V71.892c0-4.547,3.686-8.233,8.233-8.233h205.77c4.547,0,8.233,3.686,8.233,8.233v295.381
					C367.679,371.82,363.993,375.506,359.446,375.506z"/>
				<g>
					<rect x="173.641" y="128.658" style="fill:#A093ED;" width="99.824" height="6.575"/>
					<rect x="173.641" y="147.843" style="opacity:0.69;fill:#A093ED;" width="62.427" height="9.604"/>
					<rect x="173.641" y="186.26" style="opacity:0.69;fill:#A093ED;" width="62.427" height="9.604"/>
					<rect x="173.641" y="229.478" style="opacity:0.69;fill:#A093ED;" width="62.427" height="9.604"/>
					<rect x="173.641" y="267.895" style="opacity:0.69;fill:#A093ED;" width="62.427" height="9.604"/>
					
						<rect x="281.784" y="122.348" style="fill:none;stroke:#A093EF;stroke-width:4;stroke-miterlimit:10;" width="24.956" height="24.956"/>
					<rect x="173.641" y="169.815" style="fill:#A093ED;" width="99.824" height="6.575"/>
					
						<rect x="281.784" y="163.505" style="fill:none;stroke:#A093EF;stroke-width:4;stroke-miterlimit:10;" width="24.956" height="24.956"/>
					<rect x="173.641" y="210.972" style="fill:#A093ED;" width="99.824" height="6.575"/>
					
						<rect x="281.784" y="204.663" style="fill:none;stroke:#A093EF;stroke-width:4;stroke-miterlimit:10;" width="24.956" height="24.956"/>
					<rect x="173.641" y="252.13" style="fill:#A093ED;" width="99.824" height="6.575"/>
					
						<rect x="281.784" y="245.82" style="fill:none;stroke:#A093EF;stroke-width:4;stroke-miterlimit:10;" width="24.956" height="24.956"/>
					<polyline style="fill:none;stroke:#1C0029;stroke-width:3;stroke-miterlimit:10;" points="288.716,130.122 294.262,135.668 
						302.581,119.031 					"/>
					<polyline style="fill:none;stroke:#1C0029;stroke-width:3;stroke-miterlimit:10;" points="288.716,171.716 294.262,177.262 
						302.581,160.624 					"/>
					<polyline style="fill:none;stroke:#1C0029;stroke-width:3;stroke-miterlimit:10;" points="288.716,213.309 294.262,218.855 
						302.581,202.217 					"/>
				</g>
				<path style="fill:#13195C;" d="M294.749,90.219h-76.375c-2.885,0-5.224-2.339-5.224-5.224V66.63
					c0-2.885,2.339-5.224,5.224-5.224h76.375c2.885,0,5.224,2.339,5.224,5.224v18.365C299.973,87.88,297.634,90.219,294.749,90.219z
					"/>
				<circle style="fill:none;stroke:#13195C;stroke-width:6;stroke-miterlimit:10;" cx="256.561" cy="63.807" r="16.807"/>
			</g>
			<path style="fill:#B1B0D9;" d="M345.55,297.289c-0.17-1.784-1.404-3.319-3.319-3.319c-1.663,0-3.49,1.524-3.319,3.319
				c0.109,1.138,0.586,3.289-0.366,4.208c-0.718,0.693-2.151,0.688-3.285,0.643c-0.151-2.983-0.314-5.965-0.495-8.946
				c-0.257-4.244-6.896-4.274-6.638,0c0.317,5.237,0.584,10.476,0.81,15.717c-6.608,1.039-4.965-10.158-5.16-14.267
				c-0.201-4.253-6.84-4.277-6.638,0c0.262,5.525-0.942,11.462,2.371,16.348c2.191,3.231,5.943,4.829,9.684,4.555
				c0.134,3.749,0.254,7.499,0.341,11.25c0.099,4.264,6.737,4.28,6.638,0c-0.14-6.02-0.345-12.037-0.606-18.051
				c2.701-0.055,5.46-0.527,7.514-2.422C345.615,303.986,345.858,300.51,345.55,297.289z"/>
			<path style="fill:#B1B0D9;" d="M268.78,317.862c-0.077-3.648-5.754-3.661-5.677,0c0.073,3.505,0.939,8.272-0.554,11.529
				c-1.442,3.145-4.859,2.987-7.844,2.516v-16.068c0-3.653-5.678-3.659-5.678,0v7.711c-0.058,0.005-0.113-0.001-0.172,0.008
				c-5.036,0.723-4.604-4.164-4.821-7.746c-0.181-3-0.23-5.998-0.195-9.002c0.042-3.655-5.635-3.657-5.678,0
				c-0.062,5.375-0.629,12.286,1.414,17.371c1.745,4.341,5.327,5.342,9.452,5.001v19.698c0,3.653,5.678,3.659,5.678,0v-11.292
				c4.007,0.472,8.082,0.218,11.109-2.894C270.016,330.371,268.894,323.309,268.78,317.862z"/>
		</g>
		<g id="XMLID_85_">
			<path style="fill:#E6B887;" d="M203.891,159.521c0.032,0.014,2.369-3.473,2.757-5.566c0.307-1.656,2.833-0.955,2.527,0.697
				c-0.394,2.121-2.497,5.677-2.583,5.908c-0.378,0.69-0.743,1.369-1.072,2.011c1.04-1.048,2.736,0.58,2.14,1.922
				c0.961-0.786,2.817,0.524,2.089,1.864c0,0-0.263,0.485-0.265,0.488c0.831-1.529,2.07,1.713,1.834,2.562
				c-0.573,2.062-2.994,4.486-4.235,6.228c-2.998,4.207-6.166,8.292-9.495,12.242c-0.831,0.986-1.874,2.053-3.16,1.958
				c-1.244-0.092-2.112-1.23-2.81-2.265c-0.601-0.891-1.228-1.874-1.148-2.946c0.055-0.744,0.446-1.415,0.828-2.055
				c2.275-3.823,5.521-7.88,7.011-12.071c0.637-1.792,1.086-3.359,2.049-5.079C200.756,164.711,203.23,159.521,203.891,159.521z"/>
		</g>
		<g>
			<path style="fill:#E6B887;" d="M127.692,169.74c-4.034,0.027-7.531-1.698-9.935-4.948c-0.927-1.253-2.785,0.293-1.864,1.538
				c2.743,3.708,6.982,5.848,11.599,5.818C129.034,172.138,129.251,169.73,127.692,169.74z"/>
			<g>
				
					<rect x="72.191" y="146.782" transform="matrix(0.9935 -0.1135 0.1135 0.9935 -30.8544 10.7483)" style="fill:#A093ED;" width="13.522" height="259.04"/>
				<g>
					<path style="fill:#FFFFFF;" d="M94.599,411.498l-0.272,0.031c-3.593,0.41-6.838-2.169-7.248-5.762l0,0
						c-0.41-3.593,2.169-6.838,5.762-7.248l0.272-0.031c3.593-0.41,6.838,2.169,7.248,5.762l0,0
						C100.771,407.843,98.191,411.088,94.599,411.498z"/>
					
						<line style="opacity:0.46;fill:none;stroke:#051433;stroke-miterlimit:10;" x1="68.586" y1="148.759" x2="96.948" y2="395.469"/>
					
						<line style="opacity:0.46;fill:none;stroke:#051433;stroke-miterlimit:10;" x1="64.822" y1="148.933" x2="93.184" y2="395.642"/>
					
						<line style="opacity:0.46;fill:none;stroke:#051433;stroke-miterlimit:10;" x1="61.058" y1="149.107" x2="89.42" y2="395.816"/>
					<path style="fill:#E6B887;" d="M61.897,126.435c0.102,0.23-0.207,1.026-0.254,1.26c-0.268,0.604-0.294,1.462-0.426,2.112
						c-0.15,0.745-0.3,1.491-0.451,2.236c-0.309,1.532-0.618,3.065-0.926,4.597c-0.6,2.978-1.2,5.956-1.8,8.935
						c-0.293,1.452-1.102,3.402-0.143,4.701c0.115,0.156,0.23,0.312,0.346,0.468c0.129,0.175,0.267,0.356,0.464,0.447
						c0.416,0.191,0.91-0.113,1.15-0.503c0.24-0.39,0.32-0.857,0.522-1.268c0.085-0.172,0.195-0.339,0.354-0.445
						c0.235-0.156,0.564-0.155,0.797,0.003c0.498,0.339,0.31,1.092,0.929,1.413c0.476,0.246,1.119,0.111,1.525-0.209
						c0.551-0.434,0.817-1.13,1.014-1.803c0.292,0.65,0.763,1.218,1.347,1.625c0.285,0.199,0.618,0.364,0.963,0.332
						c0.377-0.035,0.7-0.307,0.891-0.634c0.171-0.292,0.187-1.144,0.407-1.326c0.333-0.277,0.849,0.441,1.105,0.567
						c0.253,0.124,0.574,0.148,0.804-0.014c0.116-0.082,0.198-0.202,0.265-0.327c0.457-0.856,0.154-1.861-0.197-2.696
						c-1.366-3.247-2.97-6.402-4.386-9.63C64.758,132.998,63.354,129.705,61.897,126.435z"/>
					<path style="fill:#1C0029;" d="M63.051,128.097c-0.148-1.133-0.316-2.263-0.52-3.389c-0.208-1.15-1.977-1.161-1.882,0.087
						c0.087,1.14,0.302,2.265,0.52,3.39c0.102,0.776,0.199,1.552,0.275,2.331c0.023,0.238,0.127,0.411,0.259,0.55
						c0.349,0.947,1.953,0.818,1.809-0.303C63.398,129.87,63.223,128.983,63.051,128.097z"/>
					<path style="fill:#D65179;" d="M98.98,404.376l-10.513,1.201c-1.005,0.115-1.913-0.607-2.028-1.612l-1.071-9.37
						c-0.115-1.005,0.607-1.913,1.612-2.028l10.513-1.201c1.005-0.115,1.913,0.607,2.028,1.612l1.07,9.37
						C100.706,403.353,99.985,404.261,98.98,404.376z"/>
				</g>
			</g>
			<path style="fill:#731531;" d="M111.852,396.308c0.025,0.232,0.052,0.464,0.081,0.695c0.396,3.167,1.066,6.3,2,9.352
				c0.515,1.682,1.116,3.379,1.097,5.138c-0.006,0.542-0.089,1.123-0.458,1.519c-0.357,0.383-1.789,0.582-2.349,0.649
				c-0.791,0.094-1.603-0.245-2.287-0.604c-1.461-0.766-2.869-1.955-3.87-3.27c-2.009-2.639-2.788-5.597-3.826-8.42
				c-0.375-1.021-1.071-2.208-1-3.24c0.125-1.845,0.205-3.523,1.216-5.117c1.068-1.685,2.582-3.033,3.715-4.671
				c0.807-1.167,1.43-2.493,2.5-3.424c1.07-0.931,2.812-1.322,3.874-0.382c2.312,2.047-0.444,6.304-0.729,8.641
				C111.688,394.213,111.742,395.264,111.852,396.308z"/>
			<path style="fill:#1F19BD;" d="M141.705,330.376c-0.293-3.944-1.031-7.935-1.909-11.901c-0.108-0.758-0.222-1.516-0.353-2.273
				c-0.99-6.458-2.401-12.849-4.294-19.125c-1.53-5.072-3.353-10.047-5.44-14.915c-1.033-2.41-2.529-4.972-3.918-7.6
				c-0.381-1.797-0.645-3.627-0.744-5.503c-0.101-1.91-0.068-3.856-0.611-5.69c-0.543-1.834-1.797-3.59-3.63-4.137
				c-3.499-1.043-6.682,0.55-9.329,3.274c-3.505,2.21-5.388,6.085-6.246,10.467c-0.702,1.894-1.177,3.666-1.383,5.07
				c-1.191,8.13,0.868,16.403,3.774,24.088c1.706,4.51,3.709,8.907,5.991,13.155c1.153,2.147,2.378,4.256,3.671,6.322
				c1.188,1.898,2.37,3.961,3.79,5.685c0.391,0.475,0.821,0.923,1.145,1.446c0.614,0.991,0.808,2.195,0.756,3.359
				c-0.094,2.088-0.806,3.489-1.907,5.19c-2.228,3.445-4.632,6.704-6.452,10.395c-1.755,3.56-2.047,7.26-2.854,11.139
				c-1.856,8.925-5.612,16.903-8.264,25.493c3.433,1.372,6.103,3.591,9.289,5.499c0.868-1.406,12.278-23.122,17.458-32.224
				c2.588-4.547,5.115-9.134,7.364-13.86C139.585,339.583,142.057,335.114,141.705,330.376z"/>
			<path style="fill:#BF2453;" d="M101.097,417.215c0.126,0.186,0.275,0.361,0.451,0.523c2.35,2.173,6.808,1.711,9.809,1.724
				c4.24,0.018,8.505,0.034,12.687-0.666c1.316-0.221,2.73-0.578,3.553-1.629c1.859-2.377-1.545-4.365-3.419-4.837
				c-1.924-0.485-3.918-0.611-5.874-0.941c-1.956-0.33-3.934-0.892-5.496-2.116c-1.263-0.989-2.198-2.39-2.628-3.935
				c-0.454-1.632-0.442-3.566-1.713-4.687c-1.124-0.991-3.276-1.035-4.542-0.319c-1.569,0.889-2.572,2.551-3.065,4.243
				c-0.776,2.661-0.324,5.698-0.415,8.452C100.397,414.448,100.3,416.044,101.097,417.215z"/>
			<path style="fill:#E6B887;" d="M126.367,184.467c4.69-5.056,2.086-10.685-0.542-15.999c-1.872-3.784-4.032-7.166-6.998-10.187
				c-2.469-2.516-8.385,0.428-10.902,1.934c-4.382,2.622-8.118,8.101-8.339,13.303c-0.117,2.739,0.962,5.62,3.191,7.216
				c1.837,1.315,4.221,1.633,6.475,1.48c-0.971,4.441-1.942,8.881-2.913,13.322c-0.87,3.98-2.457,8.033-1.339,12.132
				c0.655,2.402,3.766,1.421,3.953-0.689c0.12-1.356,0.556-2.72,1.097-4.078c1.209,1.549,2.969,1.8,4.352,1.059
				c1.004,1.37,3.141,1.771,4.384,0.348c2.728-3.119,2.978-7.438,3.59-11.394c0.304-1.962,0.551-3.933,0.782-5.906
				C124.338,186.327,125.427,185.48,126.367,184.467z"/>
			<path style="fill:#D65179;" d="M200.325,181.654c-1.982-1.777-3.925-3.664-5.718-5.675c-2.149,2.403-4.396,4.72-6.888,6.88
				c-5.427,4.703-11.511,8.595-17.952,11.756c-6.05,2.969-14.29,7.231-20.964,3.951c-3.522-1.732-5.657-4.894-7.933-7.878
				c-0.531-0.541-1.076-1.07-1.639-1.579c-1.249-0.998-2.589-1.859-4.124-2.308c-4.519-1.32-9.111,1.311-12.855,3.547
				c-4.348,2.596-8.376,5.171-13.218,6.835c-1.699,0.584-3.441,1.083-5.023,1.934c-9.144,4.919-6.692,16.899-4.075,24.936
				c2.484,7.628,7.09,5.374,5.806,23.193c-0.369,5.125-3.888,14.763,2.257,17.561c9.303,4.236,18.236,2.076,22.993-10.895
				c2.211-6.03,4.657-11.92,5.577-18.221c0.422-2.891,0.363-5.909,0.365-8.841c0-0.783-0.052-5.818-0.499-8.377
				c-0.11-0.628,0.543-1.118,1.123-0.853c0.573,0.262,1.158,0.547,1.755,0.759c2.326,0.824,4.553,1.347,7.031,1.471
				c10.167,0.51,21.193-3.811,29.724-9.073c10.972-6.768,20.072-16.087,26.801-26.928
				C201.999,183.129,201.15,182.393,200.325,181.654z"/>
			<path style="fill:#2941D9;" d="M114.473,248.399c-1.516-0.372-3.06-0.63-4.614-0.778c-0.761-0.072-3.668-0.594-4.261-0.029
				c-0.012,0.011-0.022,0.023-0.032,0.035c-0.316,0.384-0.137,2.14-0.197,2.675c-0.112,1.002-0.272,1.998-0.48,2.985
				c-0.4,1.897-0.976,3.757-1.719,5.547c-2.08,5.012-6.07,8.805-8.714,13.476c-2.918,5.155-4.85,11.196-4.683,17.164
				c0.168,5.993,4.054,10.348,4.25,16.4c0.099,3.072-0.245,6.139-0.387,9.209c-0.416,9.056,2.171,17.544,2.526,26.484
				c0.172,4.317-1.429,8.673-2.022,12.979c-0.723,5.249-1.127,10.549-0.602,15.837c1.302,13.091,5.993,25.51,6.616,38.702
				c3.856-0.9,7.689-1.894,11.512-2.935c-0.002-0.012-0.001-0.025-0.003-0.037c-1.7-12.54-1.063-25.487-0.042-38.082
				c1.37-9.553,2.727-19.106,4.048-28.66c0.496-3.585,1.516-7.07,2.069-10.691c0.652-4.271,1.213-8.555,1.733-12.843
				c1.042-8.577,1.921-17.174,3.045-25.742c0.508-3.876,1.063-7.745,1.663-11.607c0.075-0.483,0.136-0.991,0.194-1.508
				c0.406-3.662,0.654-7.267,1.844-10.776c0.885-2.609,1.857-5.192,2.827-7.775C126.062,253.035,120.298,249.827,114.473,248.399z"
				/>
			<path style="fill:#1C0029;" d="M123.994,157.723c0.028-0.326,0.052-0.661,0.079-1.007c0.244-3.147-1.376-6.369-4.047-8.051
				c-2.266-1.427-5.207-1.695-7.713-0.775c-2.641,0.97-4.581,3.668-6.815,5.342c-0.332-1.075-0.678-2.175-1.367-3.064
				c-1.016-1.311-2.723-2.008-4.38-1.936c-2.744,0.12-5.63,2.232-7.375,4.22c-1.994,2.271-3.657,4.994-4.553,7.893
				c-1.836,5.941,3.027,10.647,8.741,9.096c-0.546,0.148,0.741,4.191,0.95,4.643c0.728,1.572,1.529,3.12,2.555,4.521
				c1.175,1.605,2.907,3.456,4.873,4.058c2.025,0.621,4.522,0.269,6.352-0.754c1.727-0.966,2.273-2.628,2.431-4.49
				c0.047-0.551,0.079-1.112,0.266-1.632c0.203-0.567,0.827-0.921,0.91-1.506c0.09-0.634-0.45-1.384-0.77-1.88
				c-0.9-1.397-1.651-3.039-1.353-4.674c0.32-1.755,1.865-1.772,3.293-2.176c1.566-0.443,3.125-0.876,4.483-1.811
				c0.721-0.496,1.4-1.063,1.955-1.74C123.628,160.63,123.86,159.281,123.994,157.723z"/>
			<g>
				<path style="fill:#E6B887;" d="M78.386,221.689c-0.675-1.544-1.756-2.94-2.971-3.935c-0.61-0.499-1.295-0.899-1.977-1.296
					c-2.481-1.445-5.156-2.2-8-2.601c-1.209-0.171-1.732,1.68-0.511,1.852c1.215,0.172,2.426,0.398,3.604,0.718
					c-0.141,0.315-0.261,0.641-0.353,0.98c-1.189-0.394-2.378-0.788-3.567-1.182c-1.176-0.39-1.68,1.465-0.511,1.852
					c1.257,0.417,2.514,0.833,3.771,1.25c-0.012,0.174-0.018,0.348-0.024,0.523c-1.016-0.412-2.018-0.868-3.02-1.34
					c-1.112-0.525-2.088,1.131-0.97,1.658c0.392,0.185,0.788,0.362,1.182,0.543c-0.698,0.139-1.108,1.264-0.325,1.812
					c1.615,1.129,3.334,1.998,5.139,2.625c0.646,0.411,1.454,0.819,2.205,0.985c0.747,0.165,1.478,0.03,1.993,0.73
					c0.141,0.192,0.237,0.413,0.345,0.626c0.543,1.072,1.238,2.313,2.564,1.747c0.672-0.287,1.168-0.884,1.502-1.534
					C79.441,225.804,79.235,223.63,78.386,221.689z"/>
				<path style="fill:#E6B887;" d="M78.462,220.409c-0.006-0.019-0.011-0.038-0.017-0.057c-0.468-1.563-1.181-3.039-1.891-4.507
					c-0.521-1.078-1.042-2.156-1.564-3.233c-0.105-0.218-0.217-0.444-0.405-0.596c-0.638-0.515-1.413,0.34-1.395,0.974
					c0.014,0.457,0.239,0.877,0.438,1.289c0.807,1.671,1.263,3.51,1.33,5.364c-0.477-0.109-0.939,0.351-0.995,0.838
					c-0.056,0.486,0.181,0.958,0.46,1.36c0.354,0.511,0.787,0.967,1.28,1.348c0.492,0.38,1.104,0.695,1.713,0.569
					c0.656-0.135,1.121-0.768,1.247-1.426C78.785,221.691,78.646,221.034,78.462,220.409z"/>
			</g>
			<path style="fill:#D65179;" d="M114.419,206.992c-0.383-2.65-1.27-5.357-2.905-7.511c-1.495-1.968-4.602-1.421-6.738-0.797
				c-0.821,0.24-1.645,0.535-2.384,0.971c-4.728,2.788-5.03,10.474-5.467,15.225c-0.484,5.258-0.457,10.64-2.086,15.663
				c-0.527,1.625-1.351,3.33-2.907,4.034c-1.152,0.521-2.512,0.383-3.696-0.062c-0.862-0.324-1.659-0.811-2.353-1.415
				c-0.403-0.285-0.773-0.585-1.081-0.881c-2.933-2.821-4.337-6.725-5.915-10.464c-1.757,1.559-3.393,3.304-5.145,4.827
				c-0.293,0.255-0.594,0.499-0.889,0.751c0.026,0.228,0.14,0.501,0.307,0.943c0.324,0.858,0.655,1.713,1.005,2.56
				c1.361,3.298,2.988,6.524,5.253,9.301c2.542,3.115,6.019,5.671,9.988,6.564c4.293,0.965,8.364-0.662,11.892-3.165
				c4.339-3.079,7.525-7.599,9.58-12.507c2.055-4.907,3.034-10.204,3.54-15.5c0.071-0.737,0.132-1.477,0.177-2.217
				C114.724,211.201,114.721,209.082,114.419,206.992z"/>
			<path style="fill:none;stroke:#1C0029;stroke-miterlimit:10;" d="M128.235,169.563c0,2.713-2.199,4.911-4.911,4.911
				s-4.911-2.199-4.911-4.911c0-2.712,2.199-4.911,4.911-4.911S128.235,166.85,128.235,169.563z"/>
			<path style="fill:#1C0029;" d="M126.235,167.959c0,0.53-0.43,0.96-0.961,0.96c-0.53,0-0.96-0.43-0.96-0.96
				c0-0.53,0.43-0.96,0.96-0.96C125.805,166.999,126.235,167.429,126.235,167.959z"/>
			<path style="fill:none;stroke:#1C0029;stroke-miterlimit:10;" d="M119.38,172.14c-3.616,1.735-7.426,3.065-11.337,3.955"/>
			<path style="fill:#E6B887;" d="M115.006,174.288c-0.277-0.325-0.608-0.624-1.024-0.69c-0.26-0.041-0.526,0.014-0.776,0.096
				c-1.14,0.373-1.759,2.059-0.891,3.015c0.925,1.018,3.167,0.629,3.37-0.875c0.07-0.516-0.241-1.003-0.567-1.409
				C115.082,174.379,115.044,174.333,115.006,174.288z"/>
			<path style="opacity:0.46;fill:none;stroke:#051433;stroke-miterlimit:10;" d="M102.117,217.173
				c2.821,8.341,4.183,17.173,4.004,25.977"/>
			<path style="opacity:0.46;fill:none;stroke:#051433;stroke-miterlimit:10;" d="M109.842,202.196
				c2.732,6.163,4.312,12.834,4.634,19.568"/>
			<path style="opacity:0.6;fill:none;stroke:#051433;stroke-miterlimit:10;" d="M111.349,273.125
				c-2.451-1.36-9.609-5.953-9.613-5.954c-0.337-0.113-4.794,6.914-5.352,10.338c-0.232,1.421-0.063,2.992,0.881,4.079
				c0.551,0.635,1.318,1.06,2.129,1.281c1.783,0.484,3.731-0.013,5.288-1.008C106.906,280.44,110.165,275.442,111.349,273.125"/>
		</g>
	</g>
	<g>
		<g>
			<g>
				<path style="opacity:0.65;fill:#B8B6DE;" d="M307.029,407.52c1.272,0.778,2.679,1.084,4.073,1.286
					c1.79,0.259,3.615,0.358,5.381-0.113c1.041-0.278,2.13-0.831,2.693-2.02c0.496-1.047,0.475-2.428,0.093-3.555
					c-0.382-1.127-1.086-2.02-1.871-2.691c-3.083-2.632-7.687-2.166-11.155-1.226C302.215,400.292,304.331,405.87,307.029,407.52z"
					/>
				<path style="fill:#D65179;" d="M350.732,306.975c-0.382-7.815-12.585-7.861-12.2,0c0.464,9.48,1.381,19.762-1.267,29.018
					c-2.348,8.21-10.81,12.505-18.939,10.342v-26.212c0-7.85-12.2-7.863-12.2,0v47.92c-1.96,0.063-3.972-0.047-5.612-0.177
					c-3.294-0.262-5.195-1.651-6.545-4.721c-2.874-6.538-2.148-15.226-1.893-22.174c0.288-7.852-11.913-7.84-12.2,0
					c-0.421,11.484-1.03,26.864,8.731,34.971c4.438,3.687,9.755,4.236,15.323,4.063c0.736-0.023,1.47-0.031,2.197-0.039v21.295
					c0,7.85,12.2,7.863,12.2,0c0-14.142,0-28.27,0-42.408c0.042-0.008,0.084-0.014,0.126-0.023
					c10.28,1.467,21.715-3.02,27.335-11.898C352.911,335.678,351.35,319.616,350.732,306.975z"/>
				<g>
					<defs>
						<path id="SVGID_00000011022921286862588390000006270018955496564617_" d="M350.732,306.975c-0.382-7.815-12.585-7.861-12.2,0
							c0.464,9.48,1.381,19.762-1.267,29.018c-2.348,8.21-10.81,12.505-18.939,10.342v-26.212c0-7.85-12.2-7.863-12.2,0v47.92
							c-1.96,0.063-3.972-0.047-5.612-0.177c-3.294-0.262-5.195-1.651-6.545-4.721c-2.874-6.538-2.148-15.226-1.893-22.174
							c0.288-7.852-11.913-7.84-12.2,0c-0.421,11.484-1.03,26.864,8.731,34.971c4.438,3.687,9.755,4.236,15.323,4.063
							c0.736-0.023,1.47-0.031,2.197-0.039v21.295c0,7.85,12.2,7.863,12.2,0c0-14.142,0-28.27,0-42.408
							c0.042-0.008,0.084-0.014,0.126-0.023c10.28,1.467,21.715-3.02,27.335-11.898C352.911,335.678,351.35,319.616,350.732,306.975
							z"/>
					</defs>
					<clipPath id="SVGID_00000093890075979453518560000015076943338475135910_">
						<use xlink:href="#SVGID_00000011022921286862588390000006270018955496564617_"  style="overflow:visible;"/>
					</clipPath>
					
						<line style="clip-path:url(#SVGID_00000093890075979453518560000015076943338475135910_);fill:none;stroke:#9E297B;stroke-miterlimit:10;" x1="310.797" y1="312.461" x2="310.797" y2="407.002"/>
					
						<line style="clip-path:url(#SVGID_00000093890075979453518560000015076943338475135910_);fill:none;stroke:#9E297B;stroke-miterlimit:10;" x1="315.916" y1="311.541" x2="315.599" y2="407.002"/>
				</g>
			</g>
			<path style="fill:none;stroke:#9E297B;stroke-miterlimit:10;" d="M343.768,301.937c0.96,7.683,1.206,8.908,0.958,16.787
				c-0.151,4.8-0.305,9.628-1.284,14.33c-0.979,4.701-2.836,9.316-6.028,12.904c-5.442,6.118-14.712,8.494-22.425,5.748"/>
			<path style="fill:none;stroke:#9E297B;stroke-miterlimit:10;" d="M286.072,335.38c-1.324,8.569-1.115,17.374,0.615,25.871
				c2.065,10.141,13.503,17.562,23.915,14.527"/>
		</g>
		<g>
			<path style="opacity:0.65;fill:#B8B6DE;" d="M221.776,427.265c1.107,0.683,2.331,0.884,3.544,0.982
				c1.558,0.126,3.146,0.088,4.682-0.514c0.906-0.355,1.853-0.99,2.343-2.221c0.431-1.084,0.414-2.464,0.081-3.562
				c-0.333-1.098-0.945-1.939-1.628-2.551c-2.682-2.402-6.688-1.592-9.706-0.393C217.588,420.397,219.429,425.817,221.776,427.265z"
				/>
			<path style="fill:#A444B3;" d="M231.098,381.545c-0.07-6.794-10.634-6.811-10.564,0c0.064,6.294,0.107,12.589,0.135,18.883
				c-0.639,0.009-1.277,0.023-1.917,0.024c-0.83,0.001-1.72-0.121-2.544-0.023c-0.108,0.02-0.215,0.021-0.32,0.01
				c0.093-0.784-0.107-1.815-0.074-2.577c0.1-2.296,0.264-4.59,0.397-6.884c0.391-6.792-10.175-6.77-10.565,0
				c-0.311,5.405-1.75,12.375,2.349,16.782c3.132,3.368,8.094,3.551,12.69,3.348c0.003,3.385,0.017,6.77,0.009,10.154
				c-0.015,6.798,10.55,6.808,10.565,0C231.287,408.022,231.234,394.783,231.098,381.545z"/>
			<g>
				<defs>
					<path id="SVGID_00000101093334516799960290000016006828696883394984_" d="M231.098,381.545c-0.07-6.794-10.634-6.811-10.564,0
						c0.064,6.294,0.107,12.589,0.135,18.883c-0.639,0.009-1.277,0.023-1.917,0.024c-0.83,0.001-1.72-0.121-2.544-0.023
						c-0.108,0.02-0.215,0.021-0.32,0.01c0.093-0.784-0.107-1.815-0.074-2.577c0.1-2.296,0.264-4.59,0.397-6.884
						c0.391-6.792-10.175-6.77-10.565,0c-0.311,5.405-1.75,12.375,2.349,16.782c3.132,3.368,8.094,3.551,12.69,3.348
						c0.003,3.385,0.017,6.77,0.009,10.154c-0.015,6.798,10.55,6.808,10.565,0C231.287,408.022,231.234,394.783,231.098,381.545z"/>
				</defs>
				<clipPath id="SVGID_00000157281069614160422730000015816999833512883105_">
					<use xlink:href="#SVGID_00000101093334516799960290000016006828696883394984_"  style="overflow:visible;"/>
				</clipPath>
				
					<line style="clip-path:url(#SVGID_00000157281069614160422730000015816999833512883105_);fill:none;stroke:#7B299E;stroke-miterlimit:10;" x1="224.677" y1="372.047" x2="224.677" y2="430.632"/>
				
					<line style="clip-path:url(#SVGID_00000157281069614160422730000015816999833512883105_);fill:none;stroke:#7B299E;stroke-miterlimit:10;" x1="228.519" y1="372.527" x2="228.519" y2="431.112"/>
				
					<path style="clip-path:url(#SVGID_00000157281069614160422730000015816999833512883105_);fill:none;stroke:#7B299E;stroke-miterlimit:10;" d="
					M224.799,402.829c-4.278,0.799-10.658,1.924-12.397-3.259c-0.895-2.668-0.618-5.978-0.793-8.775
					c-0.199-3.176-0.184-6.413,0.676-9.501"/>
				
					<path style="clip-path:url(#SVGID_00000157281069614160422730000015816999833512883105_);fill:none;stroke:#7B299E;stroke-miterlimit:10;" d="
					M208.011,383.178c-0.066,4.771-0.133,9.541-0.199,14.312c-0.049,3.492,0.107,7.466,2.754,9.745
					c1.8,1.551,4.338,1.896,6.713,1.866c2.555-0.032,5.106-0.423,7.554-1.157"/>
			</g>
		</g>
	</g>
</g>
<g id="DESIGNED_BY_FREEPIK">
	<g id="XMLID_302_">
		<g id="XMLID_328_">
			<g id="XMLID_351_">
				<path id="XMLID_376_" style="fill:#1C1C1B;" d="M260.104,465.492c-0.432,0.443-0.803,0.931-1.108,1.453l-0.465-0.241
					c-0.067-0.298-0.349-0.503-0.659-0.466c-0.331,0.039-0.568,0.339-0.529,0.67c0.039,0.331,0.339,0.568,0.67,0.529
					c0.065-0.008,0.127-0.026,0.184-0.052l0.451,0.234c-0.251,0.554-0.433,1.139-0.539,1.744l0.746,0.132
					c0.23-1.306,0.85-2.507,1.792-3.473L260.104,465.492z"/>
				<path id="XMLID_375_" style="fill:#1C1C1B;" d="M265.592,463.19c-0.171,0-0.341,0.006-0.51,0.017l-0.074-0.626
					c0.188-0.149,0.296-0.389,0.266-0.645c-0.046-0.393-0.402-0.674-0.795-0.628c-0.393,0.046-0.674,0.402-0.628,0.795
					c0.03,0.254,0.189,0.461,0.405,0.564l0.073,0.624c-0.714,0.116-1.403,0.332-2.06,0.646l0.327,0.684
					c0.934-0.447,1.942-0.673,2.995-0.673c0.496,0,0.993,0.053,1.475,0.158l0.16-0.741
					C266.692,463.249,266.142,463.19,265.592,463.19z"/>
				<path id="XMLID_374_" style="fill:#1C1C1B;" d="M272.194,465.737c0.331-0.04,0.566-0.342,0.526-0.672
					c-0.04-0.331-0.341-0.566-0.672-0.526c-0.309,0.038-0.535,0.304-0.53,0.609l-0.416,0.363c-0.418-0.43-0.89-0.813-1.408-1.139
					l-0.404,0.641c1.134,0.715,2.021,1.726,2.563,2.925l0.69-0.313c-0.251-0.554-0.567-1.072-0.942-1.545l0.402-0.351
					C272.065,465.742,272.129,465.745,272.194,465.737z"/>
				<path id="XMLID_373_" style="fill:#1C1C1B;" d="M265.044,473.398c-0.386,0.023-0.775,0.035-1.157,0.035
					c-0.88,0-1.733-0.061-2.478-0.179c-0.39-0.062-0.846-0.155-1.27-0.292c1.047,1.861,3.07,3.125,5.388,3.125
					c2.855,0,5.262-1.916,5.949-4.504c-0.682,0.449-1.505,0.825-2.458,1.123C267.839,473.073,266.463,473.313,265.044,473.398z"/>
				<path id="XMLID_352_" style="fill:#1C1C1B;" d="M265.592,464.706c-3.352,0-6.08,2.666-6.08,5.943
					c0,0.426,0.046,0.849,0.137,1.261c0.674,0.483,2.706,0.89,5.348,0.731c2.879-0.173,5.297-0.957,6.672-2.159
					c-0.005-0.195-0.021-0.39-0.045-0.582C271.244,466.939,268.65,464.706,265.592,464.706z M263.432,471.221
					c-1.02,0-1.85-0.83-1.85-1.85c0-1.02,0.83-1.85,1.85-1.85c1.02,0,1.85,0.83,1.85,1.85
					C265.282,470.391,264.452,471.221,263.432,471.221z M268.17,470.312c-0.75,0-1.36-0.61-1.36-1.36c0-0.75,0.61-1.361,1.36-1.361
					s1.36,0.61,1.36,1.361C269.53,469.702,268.92,470.312,268.17,470.312z"/>
			</g>
			<path id="XMLID_349_" style="fill:#1C1C1B;" d="M281.595,466.573c-0.295-0.116-0.805-0.309-1.382-0.237
				c-0.551,0.069-0.844,0.341-0.844,1.007v0.866h2.228v1.717h-2.228v5.455h-1.932v-5.455h-1.34v-1.717h1.34v-0.888
				c0-1.68,0.896-2.783,2.568-2.783c0.643,0,1.157,0.122,1.59,0.308L281.595,466.573z"/>
			<path id="XMLID_347_" style="fill:#1C1C1B;" d="M286.298,469.905c-0.177-0.03-0.358-0.046-0.526-0.046
				c-0.896,0-1.51,0.548-1.51,1.613v3.908h-1.932v-7.172h1.873v0.785c0.451-0.673,1.14-0.977,2.021-0.977
				c0.414,0,0.848,0.128,1.094,0.337L286.298,469.905z"/>
			<path id="XMLID_344_" style="fill:#1C1C1B;" d="M293.965,471.783c0,0.222-0.015,0.489-0.037,0.651h-5.085
				c0.207,1.036,0.933,1.488,1.843,1.488c0.622,0,1.295-0.252,1.813-0.688l1.133,1.243c-0.814,0.748-1.85,1.088-3.057,1.088
				c-2.198,0-3.723-1.495-3.723-3.753c0-2.258,1.48-3.797,3.626-3.797C292.544,468.016,293.958,469.548,293.965,471.783z
				 M288.851,471.117h3.175c-0.178-0.918-0.733-1.436-1.562-1.436C289.554,469.681,289.021,470.229,288.851,471.117z"/>
			<path id="XMLID_341_" style="fill:#1C1C1B;" d="M301.618,471.783c0,0.222-0.015,0.489-0.037,0.651h-5.085
				c0.207,1.036,0.933,1.488,1.843,1.488c0.622,0,1.295-0.252,1.813-0.688l1.132,1.243c-0.814,0.748-1.85,1.088-3.057,1.088
				c-2.198,0-3.723-1.495-3.723-3.753c0-2.258,1.48-3.797,3.627-3.797C300.197,468.016,301.611,469.548,301.618,471.783z
				 M296.504,471.117h3.175c-0.178-0.918-0.733-1.436-1.562-1.436C297.207,469.681,296.674,470.229,296.504,471.117z"/>
			<path id="XMLID_335_" style="fill:#1C1C1B;" d="M309.964,471.791c0,2.154-1.495,3.775-3.471,3.775
				c-0.962,0-1.643-0.378-2.109-0.933v3.708h-1.924v-10.133h1.887V469c0.466-0.585,1.155-0.984,2.139-0.984
				C308.469,468.016,309.964,469.637,309.964,471.791z M304.287,471.791c0,1.132,0.748,1.976,1.843,1.976
				c1.14,0,1.85-0.881,1.85-1.976c0-1.095-0.71-1.976-1.85-1.976C305.035,469.814,304.287,470.658,304.287,471.791z"/>
			<path id="XMLID_331_" style="fill:#1C1C1B;" d="M313.068,465.862c0,0.696-0.54,1.229-1.236,1.229
				c-0.696,0-1.229-0.533-1.229-1.229c0-0.696,0.533-1.243,1.229-1.243C312.527,464.619,313.068,465.166,313.068,465.862z
				 M312.809,475.38h-1.932v-7.172h1.932V475.38z"/>
			<path id="XMLID_329_" style="fill:#1C1C1B;" d="M316.032,470.762l2.701-2.554h2.368l-3.479,3.375l3.501,3.797h-2.376
				l-2.716-2.901v2.901H314.1v-10.658h1.932V470.762z"/>
		</g>
		<g id="XMLID_410_">
			<path id="XMLID_435_" style="fill:#1C1C1B;" d="M184.412,475.315v-1.055c-0.527,0.718-1.391,1.23-2.387,1.23
				c-1.846,0-3.149-1.406-3.149-3.706c0-2.256,1.289-3.721,3.149-3.721c0.952,0,1.816,0.469,2.387,1.245v-3.765h1.099v9.77H184.412z
				 M184.412,473.396v-3.208c-0.395-0.615-1.245-1.143-2.124-1.143c-1.421,0-2.27,1.172-2.27,2.739c0,1.567,0.85,2.724,2.27,2.724
				C183.168,474.51,184.017,474.012,184.412,473.396z"/>
			<path id="XMLID_432_" style="fill:#1C1C1B;" d="M186.932,471.771c0-2.051,1.465-3.706,3.486-3.706
				c2.139,0,3.398,1.67,3.398,3.794v0.279h-5.727c0.088,1.333,1.025,2.446,2.549,2.446c0.805,0,1.626-0.322,2.182-0.893l0.527,0.718
				c-0.703,0.703-1.655,1.084-2.812,1.084C188.44,475.491,186.932,473.982,186.932,471.771z M190.403,468.973
				c-1.509,0-2.256,1.274-2.314,2.358h4.643C192.718,470.276,192.015,468.973,190.403,468.973z"/>
			<path id="XMLID_430_" style="fill:#1C1C1B;" d="M194.607,474.378l0.571-0.791c0.469,0.542,1.362,1.011,2.329,1.011
				c1.084,0,1.67-0.513,1.67-1.216c0-1.714-4.38-0.659-4.38-3.281c0-1.098,0.952-2.036,2.636-2.036c1.201,0,2.051,0.454,2.622,1.025
				l-0.513,0.762c-0.424-0.513-1.201-0.894-2.109-0.894c-0.967,0-1.567,0.483-1.567,1.113c0,1.552,4.38,0.527,4.38,3.281
				c0,1.187-0.952,2.138-2.783,2.138C196.306,475.491,195.325,475.139,194.607,474.378z"/>
			<path id="XMLID_427_" style="fill:#1C1C1B;" d="M201.477,466.497c0-0.41,0.337-0.747,0.732-0.747c0.41,0,0.747,0.337,0.747,0.747
				c0,0.41-0.337,0.732-0.747,0.732C201.814,467.229,201.477,466.908,201.477,466.497z M201.667,475.315v-7.075h1.099v7.075H201.667
				z"/>
			<path id="XMLID_424_" style="fill:#1C1C1B;" d="M204.582,477.132l0.556-0.82c0.586,0.703,1.289,0.967,2.3,0.967
				c1.172,0,2.27-0.571,2.27-2.124v-1.011c-0.513,0.718-1.377,1.26-2.373,1.26c-1.845,0-3.149-1.377-3.149-3.662
				c0-2.27,1.289-3.676,3.149-3.676c0.952,0,1.802,0.469,2.373,1.245v-1.069h1.098v6.87c0,2.344-1.641,3.076-3.369,3.076
				C206.237,478.186,205.417,477.952,204.582,477.132z M209.709,473.279v-3.091c-0.381-0.615-1.23-1.143-2.109-1.143
				c-1.421,0-2.27,1.128-2.27,2.695c0,1.553,0.849,2.695,2.27,2.695C208.478,474.436,209.328,473.895,209.709,473.279z"/>
			<path id="XMLID_422_" style="fill:#1C1C1B;" d="M217.413,475.315v-4.629c0-1.245-0.63-1.641-1.582-1.641
				c-0.864,0-1.685,0.527-2.095,1.099v5.17h-1.099v-7.075h1.099v1.025c0.498-0.586,1.464-1.201,2.519-1.201
				c1.479,0,2.256,0.747,2.256,2.285v4.966H217.413z"/>
			<path id="XMLID_419_" style="fill:#1C1C1B;" d="M219.932,471.771c0-2.051,1.465-3.706,3.486-3.706
				c2.139,0,3.398,1.67,3.398,3.794v0.279h-5.727c0.088,1.333,1.025,2.446,2.548,2.446c0.806,0,1.626-0.322,2.183-0.893l0.527,0.718
				c-0.703,0.703-1.655,1.084-2.812,1.084C221.441,475.491,219.932,473.982,219.932,471.771z M223.404,468.973
				c-1.509,0-2.256,1.274-2.314,2.358h4.643C225.718,470.276,225.015,468.973,223.404,468.973z"/>
			<path id="XMLID_416_" style="fill:#1C1C1B;" d="M233.35,475.315v-1.055c-0.527,0.718-1.392,1.23-2.388,1.23
				c-1.846,0-3.149-1.406-3.149-3.706c0-2.256,1.289-3.721,3.149-3.721c0.952,0,1.817,0.469,2.388,1.245v-3.765h1.098v9.77H233.35z
				 M233.35,473.396v-3.208c-0.396-0.615-1.245-1.143-2.124-1.143c-1.421,0-2.27,1.172-2.27,2.739c0,1.567,0.849,2.724,2.27,2.724
				C232.105,474.51,232.954,474.012,233.35,473.396z"/>
			<path id="XMLID_413_" style="fill:#1C1C1B;" d="M239.692,475.315v-9.77h1.098v3.765c0.572-0.776,1.421-1.245,2.388-1.245
				c1.845,0,3.149,1.465,3.149,3.721c0,2.299-1.304,3.706-3.149,3.706c-0.996,0-1.86-0.513-2.388-1.23v1.055H239.692z M242.9,474.51
				c1.436,0,2.285-1.157,2.285-2.724c0-1.568-0.85-2.739-2.285-2.739c-0.864,0-1.728,0.527-2.109,1.143v3.208
				C241.171,474.012,242.036,474.51,242.9,474.51z"/>
			<path id="XMLID_411_" style="fill:#1C1C1B;" d="M247.528,477.088c0.161,0.073,0.425,0.117,0.601,0.117
				c0.483,0,0.805-0.161,1.055-0.747l0.469-1.069l-2.959-7.148h1.187l2.358,5.801l2.344-5.801h1.201l-3.545,8.51
				c-0.425,1.025-1.143,1.421-2.08,1.435c-0.234,0-0.601-0.044-0.805-0.103L247.528,477.088z"/>
		</g>
	</g>
</g>
</svg>
