<?xml version="1.0" encoding="utf-8"?>
<!-- Generator: Adobe Illustrator 27.5.0, SVG Export Plug-In . SVG Version: 6.00 Build 0)  -->
<svg version="1.1" id="Layer_1" xmlns="http://www.w3.org/2000/svg" xmlns:xlink="http://www.w3.org/1999/xlink" x="0px" y="0px"
	 viewBox="0 0 4000 4000" style="enable-background:new 0 0 4000 4000;" xml:space="preserve">
<g>
	<g>

	</g>
	<g>
		<g>
			<circle style="fill:#DC9AFE;" cx="2004.719" cy="1905.875" r="1373.156"/>
		</g>
		<g>
			<g>
				<g>
					<path style="fill:#FF9F40;" d="M3138.475,3283.064H873.115c-32.707,0-59.221-26.514-59.221-59.221l0,0
						c0-32.707,26.514-59.221,59.221-59.221h2265.36c32.707,0,59.221,26.514,59.221,59.221l0,0
						C3197.696,3256.55,3171.182,3283.064,3138.475,3283.064z"/>
				</g>
				<g style="opacity:0.3;">
					<path style="fill:#390075;" d="M3178.371,3180.167c-1.389,31.475-27.272,56.586-59.09,56.586H853.92
						c-15.39,0-29.363-5.92-39.894-15.544c-0.039,0.88-0.133,1.745-0.133,2.635c0,32.707,26.515,59.221,59.222,59.221h2265.359
						c32.708,0,59.222-26.514,59.222-59.221C3197.697,3206.527,3190.218,3190.996,3178.371,3180.167z"/>
				</g>
				<g style="opacity:0.55;">
					<path style="fill:#FFFFFF;" d="M3196.262,3210.811c-10.181-8.195-23.094-13.099-37.125-13.099H893.791
						c-16.327,0-31.165,6.643-41.905,17.321c-10.678,10.74-17.32,25.578-17.32,41.905c0,4.532,0.497,8.878,1.428,13.099
						c-13.472-10.864-22.101-27.502-22.101-46.188c0-16.39,6.643-31.165,17.321-41.905c10.74-10.678,25.515-17.321,41.905-17.321
						h2265.346C3166.712,3164.622,3190.365,3184.364,3196.262,3210.811z"/>
				</g>
				<g>
					<path style="fill:#390075;" d="M3138.476,3296.446H873.115c-40.034,0-72.607-32.568-72.607-72.603s32.573-72.607,72.607-72.607
						h2265.361c40.034,0,72.603,32.573,72.603,72.607S3178.51,3296.446,3138.476,3296.446z M873.115,3178.003
						c-25.273,0-45.84,20.566-45.84,45.84s20.566,45.835,45.84,45.835h2265.361c25.273,0,45.835-20.562,45.835-45.835
						s-20.562-45.84-45.835-45.84H873.115z"/>
				</g>
				<g>
					<path style="fill:#F7C414;" d="M3015.446,2903.359v141.06c0,2.438-0.068,4.943-0.203,7.381
						c-0.203,3.183-0.542,6.434-0.948,9.549h-0.068c-2.98,21.399-11.715,41.038-24.582,57.291c-0.677,1.016-1.49,2.032-2.302,2.98
						c-22.009,26.275-55.124,43.002-92.099,43.002c-66.365,0-120.202-53.837-120.202-120.202v-141.06
						c0-10.903,8.871-19.774,19.774-19.774h200.857C3006.575,2883.585,3015.446,2892.457,3015.446,2903.359z"/>
					<path style="fill:#390075;" d="M2895.244,3167.056c-67.622,0-122.637-55.015-122.637-122.637v-141.06
						c0-12.246,9.961-22.207,22.207-22.207h200.859c12.241,0,22.202,9.961,22.202,22.207v141.06c0,2.48-0.063,5.034-0.2,7.52
						c-0.21,3.257-0.552,6.558-0.967,9.722l-0.381,2.119c-3.223,20.488-11.768,39.937-24.775,56.367
						c-0.61,0.933-1.484,2.036-2.358,3.057C2965.849,3151.065,2931.601,3167.056,2895.244,3167.056z M2794.814,2886.016
						c-9.561,0-17.344,7.783-17.344,17.344v141.06c0,64.941,52.832,117.773,117.773,117.773c34.912,0,67.803-15.356,90.234-42.134
						c0.762-0.894,1.519-1.831,2.139-2.769c13.037-16.475,21.362-35.879,24.199-56.279l0.327-2.095
						c0.283-2.402,0.518-4.854,0.674-7.271c0.132-2.378,0.195-4.834,0.195-7.227v-141.06c0-9.561-7.778-17.344-17.339-17.344
						H2794.814z"/>
				</g>
				<g style="opacity:0.3;">
					<path style="fill:#390075;" d="M3000.773,2903.359v141.06c0,2.438-0.068,4.943-0.203,7.381
						c-0.203,3.183-0.542,6.434-0.948,9.549h-0.068c-2.98,21.399-11.715,41.038-24.582,57.291c-0.677,1.016-1.49,2.032-2.302,2.98
						c-22.009,26.275-55.124,43.002-92.099,43.002c-8.533,0-16.93-0.88-24.989-2.573c26.817-5.621,50.384-20.18,67.381-40.429
						c0.813-0.948,1.625-1.964,2.302-2.98c12.867-16.252,21.603-35.891,24.582-57.291h0.068c0.406-3.115,0.745-6.366,0.948-9.549
						c0.135-2.438,0.203-4.943,0.203-7.381v-141.06c0-10.903-8.871-19.774-19.774-19.774H2981
						C2991.902,2883.585,3000.773,2892.457,3000.773,2903.359z"/>
				</g>
				<g style="opacity:0.6;">
					<path style="fill:#FFFFFF;" d="M2922.796,2842.534c0.862-2.704,0.704-5.582,0.76-8.391c0.014-2.823-0.09-5.653-0.198-8.477
						c-0.24-5.652-0.62-11.303-1.047-16.951l-1.287-16.938l-0.355-4.233l-0.18-2.116l-0.267-1.879
						c-0.393-2.468-1.094-4.869-2.182-7.074c-4.172-8.936-13.365-14.83-22.622-14.868l-1.729,0.005l-2.11,0.091l-4.251,0.19
						l-8.501,0.38l-17.003,0.761l-68.012,2.426l-8.501,0.299l-4.251,0.149c-1.412,0.047-3.302-0.053-4.934-0.09
						c-6.76-0.334-13.531-1.712-19.908-4.21c-12.673-5.117-23.803-14.323-30.856-26.289c-3.535-5.958-6.11-12.516-7.595-19.339
						c-1.51-6.836-1.676-13.884-0.913-20.85c1.487-14.028,8.295-27.313,18.166-37.404c9.969-10.046,23.412-16.818,37.64-18.589
						c1.766-0.296,3.555-0.295,5.335-0.434l2.607-0.13l2.125-0.027l8.501-0.109l17.003-0.219l68.013-0.59l68.012-0.202l68.012,0.178
						l17.003,0.132l4.251,0.033l2.125,0.017c0.712,0.007,1.477,0.019,1.873-0.022c0.973-0.069,1.956-0.049,2.926-0.134
						c0.96-0.155,1.921-0.288,2.89-0.403c7.631-1.469,14.654-5.957,19.394-12.255c4.766-6.285,7.01-14.336,6.273-22.35
						c-0.696-7.942-4.551-15.577-10.572-21.056c-3.004-2.737-6.523-4.917-10.329-6.379c-0.933-0.427-1.913-0.712-2.905-0.965
						l-1.475-0.434l-1.517-0.26c-1.01-0.188-2.02-0.403-3.06-0.418c-1.113-0.051-1.844-0.22-3.441-0.223l-34.006-0.866
						c-22.671-0.629-45.342-1.038-68.013-1.849l-34.006-1.202l-17.003-0.601l-2.125-0.075l-2.64-0.196
						c-1.771-0.081-3.515-0.528-5.25-0.844c-3.44-0.875-6.769-2.145-9.817-3.908c-6.072-3.549-11.076-8.72-14.283-14.823
						c-3.213-6.073-4.709-13.041-4.137-19.737c0.443-6.729,2.927-13.214,6.807-18.542c2.002-2.624,4.285-5.008,6.879-6.991
						c2.638-1.917,5.454-3.564,8.474-4.707c3.026-1.088,6.144-1.943,9.326-2.134c1.567-0.213,3.187-0.084,4.721-0.107l4.25,0.232
						c2.956,0.173,5.339,0.279,7.954-0.052c2.539-0.406,5.112-0.991,7.502-2.095c4.827-2.061,9.202-5.542,12.282-10.053
						c1.585-2.227,2.835-4.718,3.697-7.36c0.983-2.619,1.385-5.42,1.64-8.251c0.45,5.639-0.538,11.61-3.356,16.801
						c-2.68,5.25-6.979,9.764-12.228,12.851c-2.605,1.608-5.535,2.621-8.512,3.435c-2.962,0.74-6.272,0.946-8.979,1.076l-4.25,0.231
						c-1.288,0.178-2.527,0.185-3.75,0.505c-2.469,0.407-4.789,1.369-6.986,2.428c-2.191,1.115-4.147,2.601-5.936,4.212
						c-1.726,1.695-3.251,3.55-4.51,5.565c-2.414,4.096-3.699,8.74-3.563,13.367c0.073,9.284,5.844,17.775,13.777,21.315
						c1.975,0.876,4.028,1.491,6.115,1.875c1.064,0.073,2.099,0.32,3.169,0.254l1.606,0.011l2.125-0.075l17.003-0.601l34.006-1.202
						c22.671-0.81,45.342-1.219,68.013-1.849l34.006-0.866c1.239-0.07,3.335,0.017,5.054,0.079c1.802,0.013,3.59,0.263,5.379,0.522
						l2.682,0.394l2.642,0.625c1.77,0.4,3.52,0.866,5.217,1.512c6.865,2.338,13.291,5.977,18.849,10.661
						c11.13,9.314,18.806,23.016,20.49,37.676c1.83,14.52-1.926,29.872-10.558,41.915c-8.496,12.116-21.749,20.82-36.367,23.902
						l-5.514,0.881c-1.845,0.203-3.704,0.261-5.558,0.367c-1.018,0.06-1.671,0.054-2.375,0.06l-2.125,0.016l-4.251,0.033
						l-17.003,0.132l-68.012,0.178l-68.012-0.201l-68.013-0.59l-17.003-0.219l-8.501-0.109l-2.125-0.027l-1.639,0.058
						c-1.042,0.076-2.108-0.016-3.139,0.157c-8.306,0.856-16.358,4.418-22.601,10.233c-6.137,5.861-10.578,13.675-11.876,22.218
						c-0.678,4.243-0.871,8.687-0.133,12.983c0.714,4.295,2.098,8.491,4.133,12.403c4.053,7.863,10.982,14.223,19.101,18.058
						c4.104,1.853,8.524,2.988,13.054,3.461c1.199,0.074,2.136,0.222,3.559,0.267l4.251,0.149l8.501,0.299l68.012,2.426
						l17.003,0.761l8.501,0.38l4.251,0.19l2.141,0.099l2.517,0.215c6.682,0.723,13.126,3.356,18.252,7.494
						c2.585,2.036,4.894,4.417,6.729,7.115c1.895,2.649,3.385,5.568,4.401,8.625c1.087,3.031,1.652,6.221,1.804,9.384l0.067,2.358
						l-0.049,2.133l-0.105,4.265c-0.154,5.687-0.316,11.374-0.577,17.06c-0.29,5.687-0.627,11.373-1.105,17.054
						c-0.254,2.841-0.5,5.679-0.887,8.51C2924.31,2837.022,2924.048,2839.951,2922.796,2842.534z"/>
				</g>
				<g style="opacity:0.7;">
					<path style="fill:#FFFFFF;" d="M2916.033,3162.861c-6.772,1.151-13.679,1.761-20.79,1.761
						c-66.365,0-120.202-53.837-120.202-120.202v-141.06c0-10.903,8.871-19.774,19.774-19.774h41.444
						c-10.903,0-19.774,8.871-19.774,19.774v141.06C2816.486,3103.742,2859.487,3153.042,2916.033,3162.861z"/>
				</g>
				<g>
					<g>
						<path style="fill:#F7C414;" d="M3115.942,2991.598v19.774c0,28.51-15.508,54.785-40.564,68.465l-55.869,31.828
							c-9.48,5.417-19.774,7.652-29.864,6.975c12.867-16.252,21.603-35.891,24.582-57.291h0.068
							c0.406-3.115,0.745-6.366,0.948-9.549l33.725-19.232c8.059-4.402,12.799-12.46,12.799-21.196v-19.774
							c0-13.206-10.768-23.973-23.973-23.973h-22.347v-54.176h22.347C3080.931,2913.449,3115.942,2948.46,3115.942,2991.598z"/>
						<path style="fill:#390075;" d="M2993.129,3121.187c-1.216,0-2.432-0.039-3.647-0.122l-4.619-0.308l2.871-3.628
							c12.92-16.313,21.245-35.718,24.082-56.118l0.327-2.095c0.283-2.402,0.518-4.854,0.674-7.271l0.083-1.309l34.863-19.883
							c7.261-3.97,11.572-11.094,11.572-19.082v-19.775c0-11.875-9.663-21.538-21.543-21.538h-24.78v-59.043h24.78
							c44.434,0,80.581,36.147,80.581,80.581v19.775c0,29.463-16.03,56.514-41.831,70.596l-55.825,31.812
							C3012.177,3118.653,3002.709,3121.187,2993.129,3121.187z M3016.328,3063.78c-2.979,18.911-10.483,36.938-21.855,52.524
							c8.276-0.225,16.431-2.524,23.833-6.753l55.864-31.831c24.282-13.252,39.341-38.667,39.341-66.348v-19.775
							c0-41.748-33.97-75.718-75.718-75.718h-19.917v49.316h19.917c14.561,0,26.406,11.841,26.406,26.401v19.775
							c0,9.795-5.254,18.516-14.063,23.33l-32.554,18.569c-0.215,2.813-0.518,5.649-0.874,8.389L3016.328,3063.78z"/>
					</g>
				</g>
				<g>
					<path style="fill:#390075;" d="M2895.244,3179.224c-74.331,0-134.805-60.474-134.805-134.805v-141.06
						c0-18.955,15.42-34.375,34.375-34.375h200.859c18.95,0,34.37,15.42,34.37,34.375v141.06c0,2.705-0.068,5.488-0.225,8.198
						c-0.215,3.413-0.566,6.943-1.045,10.615c-0.068,0.542-0.171,1.079-0.298,1.602c-3.418,22.681-12.749,44.229-27.046,62.437
						c-0.84,1.216-1.826,2.476-2.993,3.843C2972.861,3161.646,2935.209,3179.224,2895.244,3179.224z M2794.814,2898.184
						c-2.852,0-5.176,2.324-5.176,5.176v141.06c0,58.232,47.373,105.605,105.605,105.605c31.304,0,60.796-13.77,80.908-37.778
						c0.527-0.615,0.972-1.143,1.323-1.68c0.229-0.342,0.469-0.674,0.723-0.991c11.572-14.614,19.028-31.987,21.567-50.239
						c0.059-0.41,0.132-0.811,0.22-1.206c0.293-2.393,0.532-4.849,0.688-7.266c0.112-2.051,0.171-4.277,0.171-6.445v-141.06
						c0-2.852-2.319-5.176-5.171-5.176H2794.814z M3014.296,3061.348h0.049H3014.296z"/>
				</g>
				<g>
					<g>
						<path style="fill:#390075;" d="M2993.134,3133.355c-1.489,0-2.979-0.049-4.473-0.151c-5.41-0.361-10.171-3.696-12.368-8.652
							s-1.465-10.723,1.904-14.976c11.572-14.614,19.028-31.987,21.567-50.239c0.059-0.41,0.132-0.811,0.22-1.206
							c0.293-2.393,0.532-4.849,0.688-7.266c0.317-4.902,3.071-9.312,7.339-11.743l33.726-19.233c3.486-1.909,5.43-5.044,5.43-8.516
							v-19.775c0-5.166-4.204-9.37-9.375-9.37h-22.349c-8.062,0-14.6-6.538-14.6-14.6v-54.18c0-8.062,6.538-14.6,14.6-14.6h22.349
							c51.143,0,92.749,41.606,92.749,92.749v19.775c0,33.916-18.457,65.059-48.169,81.279l-55.635,31.699
							C3016.367,3130.274,3004.829,3133.355,2993.134,3133.355z M3028.476,3064.834c-1.528,10.122-4.229,20.02-8.027,29.492
							l47.7-27.178c20.562-11.226,33.193-32.549,33.193-55.776v-19.775c0-35.039-28.511-63.55-63.55-63.55h-7.749v24.98h7.749
							c21.27,0,38.574,17.3,38.574,38.569v19.775c0,14.102-7.813,27.129-20.396,34.009l-26.885,15.337
							c-0.098,0.83-0.2,1.665-0.313,2.515C3028.706,3063.775,3028.603,3064.312,3028.476,3064.834z"/>
					</g>
				</g>
				<g>
					<g>
						<path style="fill:#30CE52;" d="M1046.277,2285.185l2.441,12.393l97.834,497.68c-0.814-46.695,25.726-88.82,49.136-129.255
							c11.893-20.468,23.41-42.501,30.42-65.16c6.885-22.033,9.514-44.629,4.194-67.038c-6.259-26.477-22.972-49.073-32.987-74.361
							c-37.681-95.017,24.536-204.868-2.441-303.515c-10.954-39.997-36.805-75.675-71.419-98.584
							c-8.638-5.696-19.278-10.766-28.981-7.26c-17.276,6.259-15.586,30.796-12.456,48.885
							C1092.972,2162.627,1080.015,2230.165,1046.277,2285.185z"/>
					</g>
					<g style="opacity:0.2;">
						<path style="fill:#390075;" d="M1048.718,2287.11l97.834,497.68c-0.814-46.695,25.726-88.82,49.136-129.256
							c11.893-20.468,23.41-42.501,30.42-65.159c-2.566-5.571-5.383-11.079-8.388-16.462
							c-23.097-40.936-57.523-75.175-76.301-118.302c-13.52-31.046-18.214-65.848-13.395-99.398
							c2.379-16.462,7.01-32.736,6.384-49.323c-0.688-16.587-7.949-34.301-22.972-41.499c-18.528-8.826-40.623,1.565-55.958,15.21
							C1053.1,2282.728,1050.847,2284.856,1048.718,2287.11z"/>
					</g>
					<g style="opacity:0.55;">
						<path style="fill:#FFFFFF;" d="M1046.277,2285.185l4.319,21.908h31.484l-1.001-5.195
							c33.737-55.082,46.694-122.558,35.678-186.278c-3.13-18.09-4.757-42.563,12.519-48.823c1.878-0.688,3.693-1.064,5.571-1.127
							c-3.693-3.004-7.511-5.758-11.392-8.325c-8.638-5.696-19.278-10.766-28.981-7.26c-17.276,6.259-15.586,30.796-12.456,48.885
							C1092.972,2162.627,1080.015,2230.165,1046.277,2285.185z"/>
					</g>
					<g>
						<path style="fill:#390075;" d="M1146.518,2809.458c-7.725,0-14.048-6.191-14.18-13.945
							c-0.806-47.695,23.286-88.965,46.587-128.872l4.517-7.754c21.763-37.48,42.71-81.27,33.081-121.831
							c-3.394-14.312-10.43-27.783-17.881-42.046c-5.059-9.683-10.288-19.692-14.497-30.303
							c-21.294-53.655-12.94-110.886-4.858-166.233c7.139-48.877,13.877-95.042,1.914-138.77
							c-10.015-36.594-33.911-69.585-65.557-90.513c-9.912-6.56-14.477-6.431-16.333-5.762c-5.337,1.938-6.587,14.319-3.345,33.115
							c11.533,66.812-2.173,138.281-37.612,196.084c-4.097,6.682-12.832,8.774-19.512,4.68c-6.675-4.097-8.774-12.83-4.678-19.509
							c31.885-52.009,44.224-116.313,33.843-176.428c-6.118-35.442,1.157-57.18,21.621-64.612
							c18.335-6.648,35.898,4.951,41.67,8.767c37.3,24.665,65.459,63.552,77.266,106.687c13.53,49.451,6.04,100.75-1.201,150.359
							c-7.891,54.031-15.342,105.068,3.15,151.665c3.672,9.248,8.335,18.179,13.276,27.632c7.93,15.181,16.128,30.879,20.342,48.633
							c11.929,50.264-11.577,100.308-36.147,142.632l-4.556,7.808c-21.333,36.543-43.394,74.331-42.72,114.092
							c0.132,7.832-6.113,14.292-13.945,14.424C1146.679,2809.458,1146.601,2809.458,1146.518,2809.458z"/>
					</g>
					<g>
						<path style="fill:#30CE52;" d="M1176.26,2835.89c38.697-73.563,37.367-166.708-3.416-239.136
							c-23.053-40.94-57.504-75.185-76.262-118.262c-13.52-31.05-18.215-65.885-13.396-99.406
							c2.364-16.445,6.973-32.74,6.333-49.342c-0.64-16.602-7.939-34.326-22.934-41.481c-18.521-8.838-40.654,1.581-55.98,15.228
							c-35.645,31.738-52.827,80.79-52.887,128.516c-0.06,47.727,15.494,94.322,36.797,137.03
							c15.339,30.751,34.281,62.336,31.832,96.613c-2.245,31.43-22.068,58.331-36.444,86.371
							c-14.376,28.04-22.926,64.219-4.096,89.484"/>
					</g>
					<g style="opacity:0.55;">
						<path style="fill:#FFFFFF;" d="M989.881,2752.006c-14.334,28.042-22.909,64.221-4.069,89.509l33.738-1.002
							c-17.902-25.225-9.389-60.841,4.757-88.507c14.396-28.042,34.238-54.957,36.492-86.379
							c2.441-34.239-16.525-65.848-31.86-96.582c-21.282-42.688-36.868-89.321-36.805-137.017
							c0.063-47.759,17.276-96.832,52.891-128.567c6.635-5.884,14.522-11.204,22.846-14.522c-0.438-0.25-0.876-0.501-1.314-0.688
							c-18.465-8.826-40.623,1.565-55.958,15.21c-35.616,31.735-52.829,80.808-52.892,128.567
							c-0.063,47.696,15.523,94.328,36.805,137.017c15.335,30.734,34.301,62.343,31.86,96.582
							C1024.119,2697.05,1004.277,2723.965,989.881,2752.006z"/>
					</g>
					<g>
						<path style="fill:#390075;" d="M985.82,2855.689c-4.326,0.005-8.599-1.968-11.382-5.708
							c-19.092-25.61-18.057-63.672,2.842-104.434c3.462-6.753,7.227-13.438,10.864-19.897
							c11.602-20.596,22.554-40.054,24.053-61.011c1.87-26.128-10.967-51.226-24.556-77.798c-1.963-3.838-3.921-7.666-5.82-11.475
							c-25.82-51.758-38.345-98.657-38.286-143.379c0.068-55.842,21.074-106.538,57.637-139.094
							c23.613-21.023,50.352-27.539,71.524-17.434c21.733,10.369,30.264,34.558,31.001,53.738
							c0.508,13.198-1.797,25.654-4.028,37.698c-0.874,4.731-1.758,9.463-2.437,14.209c-4.414,30.708-0.029,63.281,12.358,91.724
							c10.181,23.379,25.303,44.043,41.314,65.918c11.855,16.206,24.116,32.959,34.302,51.045
							c42.886,76.157,44.302,175.347,3.608,252.705c-3.642,6.929-12.217,9.595-19.16,5.947c-6.934-3.647-9.595-12.222-5.947-19.16
							c36.318-69.048,35.059-157.588-3.223-225.571c-9.356-16.611-20.586-31.958-32.476-48.208
							c-16.221-22.163-32.993-45.083-44.434-71.348c-14.668-33.687-19.658-70.718-14.429-107.09
							c0.737-5.122,1.68-10.229,2.627-15.337c2.036-11.003,3.96-21.394,3.574-31.438c-0.4-10.4-4.536-24.294-14.868-29.226
							c-12.407-5.928-29.541,3.313-40.44,13.02c-30.083,26.785-48.076,70.874-48.135,117.937
							c-0.049,40.215,11.499,82.959,35.308,130.679c1.86,3.73,3.77,7.466,5.693,11.226c14.761,28.862,30.025,58.711,27.593,92.734
							c-1.953,27.31-15.005,50.493-27.632,72.91c-3.667,6.514-7.129,12.661-10.342,18.926c-7.461,14.551-22.92,50.947-5.342,74.531
							c4.683,6.279,3.389,15.166-2.896,19.849C991.743,2854.776,988.769,2855.689,985.82,2855.689z"/>
					</g>
					<g>
						<path style="fill:#428AF9;" d="M1059.994,3164.622h56.817c55.771,0,101.557-44.106,103.64-99.838l7.674-205.281
							c0.608-16.25-12.402-29.755-28.663-29.755H977.343c-16.261,0-29.271,13.505-28.663,29.755l7.674,205.281
							C958.437,3120.516,1004.223,3164.622,1059.994,3164.622z"/>
					</g>
					<g style="opacity:0.3;">
						<path style="fill:#390075;" d="M1051.092,3158.363h57.648c55.771,0,101.526-44.128,103.655-99.836l7.637-205.306
							c0.626-16.212-12.393-29.732-28.668-29.732h-58.4c16.275,0,29.294,13.52,28.668,29.732l-7.699,205.306
							C1151.867,3113.984,1106.55,3157.987,1051.092,3158.363z"/>
					</g>
					<g style="opacity:0.55;">
						<path style="fill:#FFFFFF;" d="M948.694,2859.479l7.636,205.306c2.128,55.708,47.884,99.836,103.655,99.836h37.556
							c-55.771,0-101.527-44.128-103.655-99.836l-7.637-205.306c-0.626-16.212,12.393-29.732,28.668-29.732h-37.556
							C961.088,2829.748,948.068,2843.268,948.694,2859.479z"/>
					</g>
					<g>
						<path style="fill:#390075;" d="M1116.811,3178.809h-56.816c-63.687,0-115.44-49.854-117.817-113.491l-7.671-205.288
							c-0.444-11.738,3.804-22.871,11.958-31.338c8.159-8.467,19.121-13.13,30.879-13.13h222.119c11.758,0,22.72,4.663,30.879,13.13
							c8.154,8.467,12.402,19.6,11.958,31.343l-7.671,205.278C1232.25,3128.956,1180.498,3178.809,1116.811,3178.809z
							 M977.343,2843.931c-3.975,0-7.686,1.577-10.439,4.443c-2.759,2.861-4.194,6.626-4.048,10.596l7.671,205.288
							c1.811,48.325,41.108,86.182,89.468,86.182h56.816c48.359,0,87.656-37.856,89.468-86.187l7.671-205.278
							c0.146-3.975-1.289-7.739-4.048-10.601c-2.754-2.866-6.465-4.443-10.439-4.443H977.343z"/>
					</g>
					<g>
						<polygon style="fill:#390075;" points="1226.313,2922.183 950.493,2907.997 1226.313,2893.811 						"/>
					</g>
					<g>
						<path style="fill:#390075;" d="M1061.567,2550.858c17.129,17.927,34.456,36.084,47.344,58.081
							c6.379,10.982,11.553,22.852,14.675,35.514c3.132,12.594,4.055,26.218,1.907,39.405
							c-4.194,26.415-16.995,49.324-23.975,71.557c-3.425,11.022-5.488,22.341-5.198,32.923c0.259,10.599,3.147,20.099,8.665,27.051
							c4.883,6.15,3.855,15.092-2.295,19.974s-15.093,3.854-19.973-2.296c-0.308-0.387-0.591-0.785-0.852-1.192l-0.283-0.45
							c-8.677-13.636-11.14-29.651-10.078-43.746c1.033-14.27,4.954-27.388,10.054-39.637
							c10.432-24.158,24.297-44.333,30.022-66.952c5.94-22.276,1.213-46.926-8.958-68.87
							C1092.38,2590.094,1076.934,2570.316,1061.567,2550.858z"/>
					</g>
				</g>
				<g>
					<g>
						<g>
							<path style="fill:#FFFFFF;" d="M1416.259,1663.858c-2.856,0-5.727-0.737-8.32-2.254l-106.87-62.397
								c-6.113-3.567-13.052-5.454-20.054-5.454c-3.398,0-6.782,0.444-10.049,1.323c-20.733,5.564-42.188,8.479-63.779,8.665
								l-2.192,0.007c-138.032,0-252.105-112.229-254.287-250.178c-1.089-68.733,24.844-133.543,73.022-182.49
								c48.188-48.96,112.559-75.923,181.245-75.923c1.67,0,3.33,0.015,5.005,0.046c138.53,2.671,250.357,117.629,249.277,256.267
								c-0.479,62.246-23.731,121.992-65.464,168.227c-11.963,13.25-13.887,32.622-4.785,48.208l41.518,71.108
								c3.784,6.482,2.725,14.7-2.583,20.005C1424.76,1662.203,1420.532,1663.858,1416.259,1663.858z"/>
						</g>
						<g>
							<g>
								<path style="fill:#390075;" d="M1204.975,1111.671c1.563,0,3.115,0.017,4.688,0.046
									c129.521,2.495,234.087,110.081,233.081,239.624c-0.469,60.498-23.564,115.583-61.211,157.29
									c-16.782,18.589-19.414,45.977-6.787,67.603l41.518,71.108l-106.87-62.397c-8.686-5.071-18.496-7.708-28.379-7.708
									c-4.8,0-9.614,0.622-14.331,1.887c-19.043,5.112-39.028,7.925-59.639,8.101c-0.684,0.005-1.367,0.01-2.051,0.01
									c-129.014,0-235.728-104.688-237.774-233.926C965.112,1220.225,1072.368,1111.678,1204.975,1111.671 M1204.995,1078.641
									v33.03V1078.641c-0.005,0-0.024,0-0.024,0c-73.149,0.005-141.699,28.721-193.018,80.862
									c-51.304,52.126-78.916,121.14-77.759,194.329c2.324,146.912,123.804,266.433,270.801,266.433l2.334-0.01
									c22.988-0.195,45.84-3.301,67.92-9.229c1.87-0.503,3.809-0.757,5.767-0.757c4.082,0,8.14,1.108,11.728,3.203l106.865,62.395
									c5.191,3.03,10.938,4.507,16.646,4.507c8.545,0,17.002-3.311,23.364-9.675c10.615-10.615,12.739-27.051,5.171-40.012
									l-41.519-71.108c-5.459-9.348-4.341-20.925,2.778-28.814c44.448-49.241,69.209-112.871,69.726-179.167
									c1.143-147.639-117.949-270.063-265.479-272.905C1208.525,1078.658,1206.767,1078.641,1204.995,1078.641L1204.995,1078.641z
									"/>
							</g>
						</g>
					</g>
					<g style="opacity:0.5;">
						<g>
							<path style="fill:#FFFFFF;" d="M1222.145,1130.446c-134.758-2.597-244.574,106.935-242.441,241.59
								c0.68,42.948,12.976,83.148,33.75,117.732c-28.298-38.412-45.429-85.505-46.235-136.459
								c-2.134-134.655,107.682-244.187,242.441-241.59c84.493,1.628,158.34,47.992,199.214,115.982
								C1366.396,1170.055,1298.631,1131.918,1222.145,1130.446z"/>
						</g>
					</g>
					<g style="opacity:0.3;">
						<path style="fill:#390075;" d="M1169.589,1537.287c20.614-0.177,40.597-2.99,59.64-8.102c2.016-0.541,5.045-0.917,8.764-1.163
							c35.426-2.342,67.102-21.375,88.705-49.548c5.321-6.94,11.387-13.145,17.38-19.784c37.648-41.704,60.74-96.789,61.211-157.29
							c0.332-42.722-10.876-83.017-30.616-117.982c42.483,43.444,68.577,102.912,68.071,167.922
							c-0.469,60.175-23.315,114.991-60.603,156.613c-16.863,18.822-20.374,46.05-7.632,67.874l41.753,71.514l-106.868-62.394
							c-12.992-7.585-28.458-9.628-42.993-5.746c-18.958,5.064-38.845,7.85-59.357,8.026
							c-89.435,0.768-168.395-48.8-209.602-122.139C1041.236,1510.019,1102.438,1537.863,1169.589,1537.287z"/>
					</g>
					<g>
						<path style="fill:#390075;" d="M1178.14,1377.253l-0.307-8.118c-0.94-15.923,4.366-32.16,18.416-49.016
							c9.991-11.864,18.109-21.855,18.109-32.473c0-10.931-7.179-18.109-22.789-18.736c-10.304,0-22.795,3.746-30.913,9.371
							l-10.618-34.033c11.244-6.559,29.98-12.804,52.142-12.804c41.218,0,59.947,22.795,59.947,48.709
							c0,23.728-14.671,39.338-26.535,52.449c-11.557,12.804-16.237,24.981-15.923,39.031v5.619H1178.14z M1170.021,1420.337
							c0-16.543,11.557-28.408,27.794-28.408c16.857,0,27.787,11.864,28.101,28.408c0,16.236-11.244,28.414-28.101,28.414
							C1181.265,1448.751,1170.021,1436.574,1170.021,1420.337z"/>
					</g>
				</g>
				<g>
					<g>
						<path style="fill:#8A423A;" d="M1694.495,1666.755c-76.689,136.3-113.288,287.962-109.799,454.985l766.063-18.708
							c93.742-167.325,87.376-387.713,0.641-498.733L1694.495,1666.755z"/>
					</g>
					<g style="opacity:0.55;">
						<path style="fill:#FFFFFF;" d="M1729.046,1671.629c-75.801,134.778-112.491,284.58-109.884,449.406l-29.054,0.683
							c-3.477-166.999,33.151-318.663,109.822-454.994l656.882-62.454c1.801,2.359,3.601,4.718,5.339,7.14L1729.046,1671.629z"/>
					</g>
					<g>
						<path style="fill:#390075;" d="M1584.697,2135.123c-3.442,0-6.753-1.323-9.248-3.706c-2.573-2.458-4.058-5.84-4.136-9.397
							c-3.525-168.667,33.994-324.048,111.519-461.826c2.148-3.821,6.035-6.348,10.401-6.763l656.904-62.456
							c4.521-0.403,9.004,1.487,11.812,5.085c44.507,56.965,69.434,140.916,70.195,236.384
							c0.771,97.095-23.979,195.515-69.707,277.131c-2.31,4.124-6.621,6.724-11.348,6.838l-766.064,18.706
							C1584.917,2135.123,1584.804,2135.123,1584.697,2135.123z M1702.763,1679.415c-70.81,128.362-106.069,272.466-104.878,428.613
							l744.854-18.188c82.368-152.891,83.384-360.764,2.49-471.506L1702.763,1679.415z"/>
					</g>
					<g>
						<path style="fill:#FFB78A;" d="M2502.858,2415.239h-989.141c13.534-107.463,38.118-200.212,76.05-275.641
							c24.398-48.362,68.848-83.5,121.307-96.723l216.912-54.321l5.897-1.49c15.148-3.787,26.074-17.072,26.757-32.717l1.614-33.089
							c0,0,82.072-118.265,159.984-17.755v38.801c0,14.155,8.008,27.129,20.797,33.462l40.787,20.176l35.635,17.631l37.932,18.811
							l6.332,3.104l74.498,36.876l38.925,19.245l19.928,9.871c29.737,14.713,52.21,40.788,62.392,72.324
							c19.804,61.771,32.779,129.564,40.042,202.261C2500.81,2388.978,2501.927,2402.015,2502.858,2415.239z"/>
						<path style="fill:#390075;" d="M2502.861,2417.759h-989.145c-0.723,0-1.411-0.313-1.89-0.854
							c-0.479-0.542-0.698-1.262-0.61-1.98c13.911-110.42,39.58-203.433,76.299-276.458c24.629-48.816,69.439-84.548,122.944-98.035
							l222.808-55.811c14.009-3.501,24.229-15.996,24.858-30.386l1.616-33.101c0.024-0.471,0.176-0.928,0.444-1.313
							c1.646-2.366,40.801-57.961,91.685-59.304c26.143-0.75,50.508,13.25,72.358,41.44c0.342,0.442,0.527,0.984,0.527,1.543v38.801
							c0,13.323,7.432,25.278,19.399,31.206l254.033,125.715c30.132,14.905,53.34,41.807,63.672,73.806
							c19.17,59.797,32.681,128.022,40.151,202.783c1.304,12.925,2.437,26.13,3.359,39.248c0.054,0.698-0.19,1.384-0.669,1.895
							C2504.228,2417.469,2503.559,2417.759,2502.861,2417.759z M1516.572,2412.72h983.584c-0.884-12.178-1.943-24.412-3.154-36.401
							c-7.437-74.414-20.874-142.29-39.937-201.746c-9.912-30.708-32.188-56.528-61.113-70.835l-254.033-125.715
							c-13.696-6.782-22.202-20.469-22.202-35.72v-37.937c-20.669-26.392-43.354-39.439-67.7-38.814
							c-45.664,1.194-82.983,50.654-87.28,56.57l-1.582,32.346c-0.723,16.589-12.51,31.001-28.662,35.039l-5.889,1.487
							l-216.919,54.324c-52.08,13.13-95.703,47.908-119.673,95.415C1555.869,2212.618,1530.488,2304.114,1516.572,2412.72z"/>
					</g>
					<g style="opacity:0.55;">
						<path style="fill:#FFFFFF;" d="M1926.798,1989.096c3.446,14.738-5.573,29.524-20.256,33.201l-162.752,40.755
							c-52.458,13.223-96.909,48.361-121.307,96.723c-35.511,70.648-59.35,156.569-73.38,255.464h-35.386
							c13.534-107.463,38.118-200.212,76.05-275.641c24.398-48.362,68.848-83.5,121.307-96.723l215.67-54.011
							C1926.762,1988.941,1926.78,1989.018,1926.798,1989.096z"/>
					</g>
					<g style="opacity:0.3;">
						<path style="fill:#390075;" d="M2183.823,1995.942c-29.054,12.044-59.97,19.307-91.694,22.722
							c-61.958,4.036-115.782-7.698-164.143-30.109l5.897-1.49c15.148-3.787,26.074-17.072,26.757-32.717l1.614-33.089
							c0,0,82.072-118.265,159.984-17.755v38.801c0,14.155,8.008,27.129,20.797,33.462L2183.823,1995.942z"/>
					</g>
					<g>
						<path style="fill:#F75CB8;" d="M2338.214,2072.346v342.908h-639.036l11.903-372.361l92.675-23.197
							c142.943,233.902,294.08,289.429,460.274,15.944L2338.214,2072.346z"/>
					</g>
					<g style="opacity:0.3;">
						<path style="fill:#390075;" d="M2502.858,2415.239h-166.254l-56.121-233.55c0,0-31.972-81.016-16.762-146.201l74.498,36.876
							l38.925,19.245c0.125,8.257,0.683,16.514,1.552,24.709c4.159,38.987,16.328,76.732,35.821,110.815l84.989,148.933
							C2500.81,2388.978,2501.927,2402.015,2502.858,2415.239z"/>
					</g>
					<g style="opacity:0.55;">
						<path style="fill:#FFFFFF;" d="M1803.761,2019.719c5.215,8.505,10.43,16.824,15.644,24.833l-76.173,19.059l-11.237,351.628
							h-32.841l11.92-372.363L1803.761,2019.719z"/>
					</g>
					<g style="opacity:0.55;">
						<path style="fill:#FFFFFF;" d="M2338.219,2072.364v4.78l-42.091-20.797c-116.03,190.9-224.734,221.506-328.41,142.911
							c93.991,49.913,192.204,7.698,296.314-163.646L2338.219,2072.364z"/>
					</g>
					<g>
						<path style="fill:#390075;" d="M2338.212,2428.638h-639.033c-3.623,0-7.095-1.467-9.614-4.072
							c-2.519-2.603-3.882-6.116-3.765-9.739l11.9-372.361c0.19-5.979,4.326-11.106,10.127-12.556l92.676-23.196
							c5.693-1.414,11.626,1.008,14.673,6.003c78.169,127.913,154.224,192.773,226.03,192.773c0.054,0,0.098,0,0.146,0
							c68.931-0.085,140-59.57,211.235-176.799c3.608-5.933,11.143-8.122,17.378-5.046l74.185,36.704
							c4.561,2.258,7.446,6.907,7.446,11.997v342.908C2351.596,2422.647,2345.605,2428.638,2338.212,2428.638z M1712.998,2401.871
							h611.831v-321.213l-55.806-27.61c-75.303,120.466-149.839,179.116-227.637,179.214c-0.059,0-0.132,0-0.19,0
							c-81.23,0.007-160.996-64.524-243.692-197.202l-73.369,18.364L1712.998,2401.871z"/>
					</g>
					<g>
						<path style="fill:#390075;" d="M2502.861,2428.638h-989.145c-3.843,0-7.495-1.648-10.039-4.529
							c-2.539-2.881-3.721-6.714-3.242-10.525c14.028-111.577,40.068-205.779,77.393-279.988
							c26.021-51.687,73.403-89.478,129.99-103.684l222.788-55.806c9.365-2.361,16.23-10.73,16.675-20.352l1.607-33.14
							c0.122-2.505,0.942-4.924,2.373-6.985c1.773-2.549,44.024-62.488,100.356-63.967c29.746-0.747,57.134,14.568,81.211,45.63
							c1.821,2.346,2.808,5.232,2.808,8.201v38.809c0,9.155,5.103,17.373,13.32,21.445l254.048,125.72
							c32.744,16.223,57.964,45.469,69.194,80.242c22.734,70.801,37.539,153.088,44.014,244.6c0.264,3.706-1.025,7.351-3.555,10.068
							C2510.122,2427.095,2506.577,2428.638,2502.861,2428.638z M1528.979,2401.871h959.438
							c-6.802-83.628-20.815-158.914-41.704-223.955c-9.019-27.922-29.282-51.423-55.591-64.456l-254.053-125.723
							c-17.402-8.628-28.203-26.035-28.203-45.434v-34.124c-17.358-21.094-35.894-31.775-55.171-31.775
							c-0.435,0-0.864,0.005-1.304,0.017c-36.733,0.913-68.525,38.647-76.963,49.566l-1.411,29.033
							c-0.996,21.623-15.82,39.741-36.89,45.049l-222.798,55.808c-49.033,12.312-90.073,45.024-112.593,89.751
							C1567.465,2213.772,1543.007,2299.92,1528.979,2401.871z"/>
					</g>
					<g>
						<path style="fill:#FFB78A;" d="M2338.964,1507.114v155.327c0,42.277-9.25,84.244-28.247,121.99
							c-53.017,105.663-140.428,150.05-235.599,160.356c-66.986,4.345-124.535-9.685-175.876-35.821
							c-51.652-26.198-89.708-73.07-106.594-128.446l-20.673-67.482c-92.626,0-122.735-135.213-67.979-175.131
							c10.305-7.512,23.591-11.671,40.042-10.926c0.186-0.062,0.31,0,0.435,0c185.685,15.955,364.976-112.802,377.206-286.815
							c7.698,22.659,15.831,43.891,24.646,63.695c18.128,41.16,38.863,76.36,63.819,106.532
							C2243.979,1451.302,2285.574,1482.839,2338.964,1507.114z"/>
						<path style="fill:#390075;" d="M2051.044,1948.089c-54.136,0-104.36-12.146-152.944-36.88
							c-51.294-26.018-90.61-73.384-107.861-129.954l-20.132-65.718c-48.608-0.933-78.042-38.259-89.429-73.223
							c-14.033-43.069-5.054-86.841,21.836-106.445c11.367-8.289,25.303-12.124,41.538-11.411c0.259-0.01,0.508-0.012,0.689,0.02
							c97.681,8.386,196.021-22.932,269.722-85.952c62.261-53.24,99.448-123.75,104.702-198.538
							c0.088-1.196,1.001-2.168,2.192-2.322c1.152-0.151,2.324,0.552,2.705,1.687c8.032,23.63,16.064,44.394,24.565,63.479
							c18.525,42.068,39.282,76.721,63.457,105.955c33.779,40.842,75.625,72.256,127.92,96.033c0.903,0.408,1.479,1.306,1.479,2.292
							v155.327c0,43.477-9.863,86.052-28.516,123.125c-47.886,95.427-127.817,149.839-237.578,161.726
							C2067.187,1947.823,2059.067,1948.089,2051.044,1948.089z M1740.292,1529.41c-13.521,0-25.215,3.535-34.809,10.53
							c-25.151,18.337-33.384,59.793-20.02,100.815c10.991,33.726,39.487,69.763,86.514,69.763c1.108,0,2.085,0.723,2.407,1.782
							l20.669,67.483c16.855,55.269,55.249,101.533,105.327,126.936c54.966,27.978,112.066,39.617,174.575,35.554
							c107.842-11.68,186.445-65.169,233.511-158.972c18.306-36.377,27.979-78.169,27.979-120.862v-153.708
							c-52.324-24.021-94.282-55.674-128.237-96.736c-24.482-29.592-45.474-64.634-64.185-107.122
							c-7.212-16.191-14.087-33.579-20.908-52.874c-8.213,71.785-45.322,139.001-105.376,190.354
							c-74.722,63.892-174.424,95.625-273.481,87.134l0,0c-0.112,0.007-0.234,0.01-0.332,0.005
							C1742.7,1529.439,1741.489,1529.41,1740.292,1529.41z"/>
					</g>
					<g style="opacity:0.3;">
						<path style="fill:#390075;" d="M2338.964,1507.114v155.327c0,42.277-9.25,84.244-28.247,121.99
							c-53.017,105.663-140.428,150.05-235.599,160.356c-66.986,4.345-124.535-9.685-175.876-35.821
							c-24.15-12.23-45.32-28.992-62.702-49.044c3.601,2.173,7.264,4.16,11.051,6.084c51.341,26.136,108.891,40.166,175.876,35.821
							c95.17-10.305,182.581-54.694,235.598-160.356c18.997-37.746,28.247-79.713,28.247-121.99v-140.49
							C2303.205,1489.358,2320.339,1498.67,2338.964,1507.114z"/>
					</g>
					<g style="opacity:0.55;">
						<path style="fill:#FFFFFF;" d="M2213.188,1897.419c-41.471,27.502-88.715,42.029-138.069,47.368
							c-66.986,4.345-124.535-9.685-175.876-35.821c-51.652-26.198-89.708-73.07-106.594-128.446l-20.673-67.482
							c-103.365,0-128.881-168.241-45.568-184.754c-38.47,43.591-14.915,147.538,56.32,164.56
							c13.586,3.246,24.149,13.964,28.24,27.32l13.032,42.539c16.886,55.376,54.942,102.248,106.593,128.446
							c51.341,26.136,108.891,40.166,175.876,35.821C2143.78,1922.934,2179.912,1913.684,2213.188,1897.419z"/>
					</g>
					<g>
						<path style="fill:#390075;" d="M2050.986,1958.985c-55.791,0-107.632-12.534-157.798-38.069
							c-53.901-27.344-95.215-77.087-113.32-136.472l-17.92-58.489c-33.686-3.303-62.813-23.218-80.952-55.779
							c-22.178-39.807-23.638-90.268-3.555-122.715c14.238-23.015,37.773-35.051,66.714-33.855c0.493,0,0.972,0.012,1.45,0.056
							c0.01,0,0.02,0,0.034,0.002c94.873,8.149,190.293-22.239,261.792-83.381c60.029-51.333,95.869-119.177,100.918-191.035
							c0.444-6.355,5.308-11.514,11.626-12.336c6.265-0.83,12.334,2.922,14.395,8.955
							c46.899,137.559,107.783,212.617,210.146,259.08c4.78,2.17,7.852,6.936,7.852,12.188v155.327
							c0,45.173-10.259,89.438-29.673,128.008c-49.639,98.928-132.446,155.337-246.113,167.646c-0.19,0.019-0.381,0.036-0.576,0.049
							C2067.583,1958.712,2059.233,1958.985,2050.986,1958.985z M1740.234,1540.296c-17.837,0-31.294,7.141-40.034,21.255
							c-14.966,24.182-13.208,64.385,4.18,95.598c8.848,15.881,29.4,42.524,67.617,42.524c5.884,0,11.074,3.838,12.798,9.463
							l20.674,67.483c15.996,52.468,52.388,96.357,99.849,120.432c53.105,27.031,108.252,38.284,168.672,34.419
							c103.896-11.331,179.521-62.813,224.785-153.023c17.554-34.868,26.826-74.971,26.826-115.986v-146.79
							c-92.773-44.197-152.808-111.108-198.877-223.723c-15.518,59.763-50.635,114.844-101.894,158.679
							c-76.773,65.652-179.165,98.367-280.913,89.756c-0.161-0.002-0.318-0.005-0.474-0.012
							C1742.358,1540.32,1741.289,1540.296,1740.234,1540.296z"/>
					</g>
					<g>
						<path style="fill:#390075;" d="M1748.857,1542.833c-0.64,0-1.289-0.039-1.939-0.122c-1.04-0.129-2.036-0.159-3.037-0.203
							l1.299-31.013c1.885,0.083,3.691,0.178,5.576,0.415c8.506,1.06,14.541,8.813,13.481,17.319
							C1763.261,1537.083,1756.572,1542.833,1748.857,1542.833z"/>
					</g>
					<g>
						<path style="fill:#FFB78A;" d="M2338.985,1637.505v-130.371c4.843-3.414,9.437-6.953,13.844-10.678
							C2432.107,1482.302,2438.315,1637.505,2338.985,1637.505z"/>
						<path style="fill:#390075;" d="M2338.984,1640.025c-1.392,0-2.52-1.128-2.52-2.52v-130.371c0-0.818,0.4-1.587,1.069-2.058
							c4.849-3.418,9.321-6.865,13.667-10.544c0.337-0.286,0.747-0.479,1.182-0.554c19.951-3.562,37.349,3.089,49.028,18.726
							c16.782,22.478,18.75,59.17,4.673,87.246C2393.129,1625.792,2369.296,1640.025,2338.984,1640.025z M2341.503,1508.436v126.516
							c27.109-0.764,48.379-13.928,60.078-37.258c13.267-26.467,11.499-60.942-4.209-81.977
							c-7.344-9.832-20.825-20.684-43.442-16.895C2349.956,1502.159,2345.874,1505.316,2341.503,1508.436z"/>
					</g>
					<g>
						<path style="fill:#390075;" d="M2338.984,1650.889c-7.393,0-13.384-5.991-13.384-13.384v-130.371
							c0-4.353,2.114-8.435,5.674-10.942c4.585-3.23,8.809-6.487,12.91-9.956c1.797-1.521,3.97-2.541,6.289-2.957
							c24.194-4.321,45.376,3.823,59.644,22.922c19.106,25.593,21.499,67.068,5.679,98.618
							C2401.118,1634.097,2373.12,1650.889,2338.984,1650.889z M2352.368,1513.943v108.987c21.88-4.104,33.467-18.079,39.497-30.107
							c11.343-22.62,9.966-52.974-3.198-70.605c-7.476-10.005-17.598-14.382-30.19-13.057
							C2356.479,1510.787,2354.448,1512.374,2352.368,1513.943z"/>
					</g>
					<g>
						<path style="fill:#390075;" d="M2160.708,1748.704c-9.834,1.203-18.516,1.798-26.819,3.071
							c-8.281,1.184-16.099,2.821-23.899,4.928c-7.788,2.129-15.581,4.673-23.73,7.516c-8.184,2.801-16.567,6-26.279,8.498
							l-0.042,0.011c-1.453,0.374-2.935-0.501-3.308-1.954c-0.171-0.663-0.078-1.336,0.208-1.902
							c4.622-9.144,11.423-16.582,19.397-22.738c7.993-6.111,17.341-10.808,27.412-13.411c20.068-5.336,42.947-2.075,58.547,11.245
							c1.135,0.968,1.27,2.671,0.3,3.805c-0.454,0.534-1.074,0.846-1.719,0.926L2160.708,1748.704z"/>
					</g>
					<g style="opacity:0.31;">
						
							<ellipse transform="matrix(0.985 -0.1723 0.1723 0.985 -267.7481 359.4707)" style="fill:#EA5EE4;" cx="1937.195" cy="1722.35" rx="46.108" ry="20.694"/>
					</g>
					<g style="opacity:0.31;">
						<ellipse style="fill:#EA5EE4;" cx="2258.99" cy="1687.449" rx="31.656" ry="14.207"/>
					</g>
					<g>
						<path style="fill:#390075;" d="M2232.209,1453.003c0.271-0.006-0.037-0.116-0.256-0.206c-0.19-0.098-0.459-0.186-0.759-0.268
							c-0.564-0.178-1.14-0.362-1.79-0.489c-1.245-0.336-2.588-0.495-3.936-0.728c-2.71-0.278-5.527-0.44-8.342-0.208
							c-5.64,0.392-11.362,1.831-16.833,4.448c-5.347,2.785-10.649,6.41-15.239,11.151c-2.441,2.228-4.358,5.001-6.633,7.543
							c-1.98,2.757-3.843,5.656-5.815,8.543l-0.261,0.383c-1.208,1.769-3.621,2.223-5.388,1.015
							c-1.467-1.002-2.029-2.837-1.487-4.442c1.189-3.521,2.31-7.127,3.635-10.699c1.658-3.419,2.983-7.088,5.037-10.425
							c3.767-6.887,8.892-13.256,15.027-18.961c6.272-5.556,13.796-10.061,22.031-13.069c4.114-1.543,8.418-2.59,12.832-3.372
							c2.227-0.297,4.456-0.631,6.78-0.73c1.14-0.094,2.341-0.109,3.557-0.106c0.591-0.008,1.211-0.002,1.902,0.043
							c0.664,0.037,1.243,0.045,2.39,0.215c8.384,1.781,13.738,10.022,11.956,18.406
							C2248.835,1449.431,2240.596,1454.784,2232.209,1453.003z"/>
					</g>
					<g>
						<path style="fill:#390075;" d="M1758.789,1715.231l0.261-64.374c0.005-1.499,1.226-2.71,2.725-2.704
							c1.187,0.005,2.192,0.774,2.556,1.834l20.872,60.898c2.432,7.092-1.348,14.811-8.44,17.242
							c-7.09,2.431-14.81-1.348-17.241-8.44C1759.023,1718.23,1758.789,1716.69,1758.789,1715.231z"/>
					</g>
					<g>
						<path style="fill:#390075;" d="M1843.535,1504.881c5.117,1.905,11.462,3.792,17.371,5.399
							c6.018,1.646,12.126,3.156,18.269,4.396c12.28,2.506,24.766,4.556,37.261,5.274c12.473,0.7,25.081,0.709,37.417-1.18
							c12.278-1.975,24.331-5.532,35.449-11.568l0.159-0.086c1.812-0.984,4.077-0.312,5.061,1.499
							c0.869,1.598,0.447,3.549-0.906,4.662c-10.615,8.74-23.066,15.218-36.096,19.934c-13.081,4.639-26.682,7.251-40.352,9.077
							c-13.696,1.804-27.439,2.181-41.201,2.015c-6.89-0.072-13.76-0.433-20.652-0.967c-7.012-0.556-13.538-1.161-21.14-2.4
							l-0.186-0.03c-10.205-1.663-17.129-11.284-15.466-21.49c1.663-10.205,11.284-17.13,21.489-15.467
							C1841.204,1504.141,1842.444,1504.482,1843.535,1504.881z"/>
					</g>
					<g>
						<path style="fill:#8A423A;" d="M2432.086,1320.87c-10.367,83.81-36.752,146.76-93.122,186.244
							c-111.747-50.721-171.779-133.475-217.285-266.95c-12.23,174.014-191.521,302.77-377.206,286.815
							c-0.124,0-0.249-0.062-0.435,0c-0.311,0-0.683-0.062-1.056-0.062c-2.421-0.249-4.842-0.497-7.201-0.869
							c-35.945-5.339-66.303-26.136-85.237-54.942c-14.217-21.542-22.039-47.492-21.046-74.932
							c10.554-302.274,304.198-560.657,551.158-326.734l43.209-19.866c28.557-13.161,62.702-6.581,83.685,16.886
							c11.113,12.416,21.605,25.019,31.413,37.932C2387.822,1168.274,2420.973,1238.612,2432.086,1320.87z"/>
					</g>
					<g style="opacity:0.2;">
						<path style="fill:#390075;" d="M2121.679,1240.164c7.698,22.659,15.831,43.891,24.646,63.695
							c-26.944,160.915-197.667,276.448-374.164,261.3c-0.124,0-0.248-0.062-0.435,0c-0.31,0-0.683-0.062-1.055-0.062
							c-2.421-0.248-4.842-0.497-7.201-0.869c-22.474-3.352-42.774-12.727-59.474-26.322c10.305-7.512,23.591-11.671,40.042-10.926
							c0.186-0.062,0.31,0,0.435,0C1930.158,1542.934,2109.449,1414.178,2121.679,1240.164z"/>
					</g>
					<g style="opacity:0.55;">
						<path style="fill:#FFFFFF;" d="M2318.601,1079.187c-19.99-11.795-45.195-13.285-67.048-3.228l-43.209,19.866
							c-247.021-233.923-540.604,24.46-551.22,326.734c-1.056,30.854,8.94,59.908,26.633,82.754
							c-34.331-23.901-55.811-64.626-54.259-109.139c10.554-302.274,304.198-560.657,551.158-326.734l43.209-19.866
							c28.557-13.161,62.702-6.581,83.685,16.886C2311.338,1070.682,2315,1074.903,2318.601,1079.187z"/>
					</g>
					<g>
						<path style="fill:#390075;" d="M1776.015,1541.734c-10.693,0-21.387-0.444-32.1-1.35c-0.318-0.002-0.635-0.017-0.957-0.044
							l-1.157-0.1c-73.091-6.575-128.296-70.076-125.688-144.565c6.367-181.943,111.289-350.169,255.142-409.092
							c106.201-43.499,216.66-19.685,311.968,66.977l35.073-16.125c33.877-15.618,74.692-7.339,99.253,20.125
							c73.335,82.095,115.142,167.644,127.827,261.541c0.151,1.14,0.156,2.297,0.015,3.44
							c-10.693,86.208-37.358,144.717-83.916,184.131c-4.712,3.987-9.546,7.715-14.78,11.406c-3.887,2.737-8.921,3.211-13.242,1.245
							c-97.256-44.143-159.375-111.616-206.729-227.373c-15.518,59.763-50.635,114.844-101.894,158.679
							C1956.132,1509.371,1866.938,1541.731,1776.015,1541.734z M1745.62,1513.663c0.005,0,0.01,0,0.019,0.002
							c94.873,8.149,190.293-22.239,261.792-83.381c60.029-51.333,95.869-119.177,100.918-191.035
							c0.444-6.355,5.308-11.514,11.626-12.336c6.265-0.83,12.334,2.922,14.395,8.955
							c45.806,134.358,104.961,209.094,203.076,255.793c2.305-1.768,4.541-3.564,6.738-5.425
							c40.811-34.548,64.482-87.09,74.424-165.269c-12.222-87.756-51.821-168.103-121.016-245.569
							c-16.797-18.779-44.8-24.39-68.105-13.648l-43.218,19.871c-4.98,2.283-10.83,1.313-14.795-2.444
							c-88.706-84.019-191.704-108.11-290.073-67.825c-132.3,54.192-232.617,216.216-238.53,385.259
							c-2.114,60.288,42.392,111.665,101.318,116.965l0.361,0.029C1744.912,1513.614,1745.268,1513.631,1745.62,1513.663z"/>
					</g>
					<g>
						<path style="fill:#FFB78A;" d="M2285.875,1939.058l17.527-49.811c7.247-20.595,4.695-43.371-6.929-61.852l-12.57-19.985
							c-9.656-15.352-12.496-34.026-7.84-51.554l2.427-9.138c2.898-10.911,17.271-13.376,23.639-4.055l61.44,89.92
							c6.413,9.386,8.392,21.111,5.415,32.082l-26.888,99.083"/>
						<path style="fill:#390075;" d="M2342.094,1966.265c-0.215,0-0.439-0.029-0.659-0.088c-1.343-0.366-2.134-1.748-1.772-3.091
							l26.89-99.082c2.793-10.276,0.947-21.213-5.063-30.002l-61.44-89.919c-2.388-3.489-6.465-5.215-10.615-4.497
							c-4.165,0.713-7.427,3.694-8.506,7.778l-2.432,9.138c-4.458,16.79-1.714,34.856,7.539,49.568l12.573,19.985
							c12.1,19.246,14.717,42.583,7.173,64.026l-17.529,49.812c-0.464,1.318-1.909,2.007-3.213,1.541
							c-1.313-0.461-2.002-1.899-1.543-3.21l17.529-49.812c7.036-19.988,4.6-41.738-6.685-59.675l-12.573-19.985
							c-9.99-15.891-12.959-35.405-8.135-53.542l2.427-9.138c1.592-6.011,6.392-10.398,12.524-11.45
							c6.099-1.035,12.119,1.487,15.625,6.621l61.44,89.919c6.841,10.01,8.94,22.461,5.767,34.163l-26.89,99.082
							C2344.218,1965.528,2343.203,1966.265,2342.094,1966.265z"/>
					</g>
					<g style="opacity:0.55;">
						<path style="fill:#FFFFFF;" d="M2345.731,1950.312l-3.663,13.41l-56.184-24.646l17.507-49.851
							c7.263-20.549,4.718-43.333-6.891-61.833l-12.603-19.99c-9.623-15.334-12.479-34.021-7.822-51.528l2.421-9.126
							c2.856-10.678,16.638-13.286,23.219-4.656l-2.359,8.94c-4.656,17.569-1.8,36.193,7.822,51.59l12.603,19.99
							c11.609,18.438,14.155,41.222,6.891,61.833l-17.507,49.789L2345.731,1950.312z"/>
					</g>
					<g>
						<path style="fill:#390075;" d="M2342.104,1977.134c-1.162,0-2.344-0.151-3.516-0.471c-7.134-1.936-11.348-9.289-9.414-16.423
							l26.89-99.082c1.958-7.202,0.664-14.866-3.545-21.023l-61.44-89.922l-2.08,9.077c-3.687,13.887-1.416,28.828,6.235,40.996
							l12.568,19.983c13.882,22.07,16.88,48.831,8.228,73.42l-17.529,49.812c-2.461,6.97-10.107,10.623-17.07,8.184
							c-6.973-2.456-10.635-10.098-8.184-17.07l17.529-49.812c5.928-16.839,3.872-35.166-5.63-50.281l-12.573-19.985
							c-11.597-18.438-15.039-41.079-9.443-62.119l2.427-9.136c2.695-10.169,10.815-17.593,21.187-19.373
							c10.376-1.787,20.503,2.51,26.44,11.204l61.436,89.917c8.638,12.639,11.294,28.364,7.28,43.14l-26.885,99.082
							C2353.393,1973.211,2347.998,1977.134,2342.104,1977.134z"/>
					</g>
					<g>
						<path style="fill:#FFB78A;" d="M2217.596,2019.493c-29.347,67.293,10.036,167.072,10.036,167.072l70.359,292.817h204.868
							l-141.22-247.349c-19.458-34.081-31.65-71.822-35.808-110.845v0c-4.252-39.904-0.037-80.082,10.613-118.773
							c7.301-26.525,12.17-54.084,14.316-82.799l-108.642-51.734l-49.571,15.626c-26.187,8.255-42.337,34.49-37.913,61.589
							l17.125,104.891c0,0,38.801-1.552,48.113-37.249l10.864-48.889"/>
						<path style="fill:#390075;" d="M2502.861,2481.9h-204.873c-1.162,0-2.178-0.801-2.446-1.929l-70.356-292.817
							c-1.392-3.455-33.13-85.225-16.035-150.788c-15.41,15.036-36.997,16.125-37.29,16.138c-1.235-0.061-2.388-0.854-2.588-2.112
							l-17.124-104.89c-4.595-28.142,12.451-55.825,39.644-64.397l49.57-15.625c0.615-0.19,1.265-0.149,1.841,0.129l108.643,51.733
							c0.938,0.447,1.504,1.423,1.426,2.461c-2.109,28.21-6.953,56.23-14.399,83.281c-11.045,40.142-14.595,79.788-10.537,117.837
							c4.15,38.916,16.089,75.879,35.493,109.863l141.221,247.346c0.444,0.781,0.439,1.738-0.01,2.515
							S2503.759,2481.9,2502.861,2481.9z M2299.97,2476.861h198.555l-139.072-243.582c-19.751-34.59-31.904-72.214-36.128-111.826
							c-4.121-38.679-0.522-78.955,10.693-119.707c7.207-26.187,11.948-53.296,14.102-80.6l-106.187-50.564l-48.628,15.327
							c-24.824,7.822-40.381,33.093-36.187,58.782l16.748,102.593c7.339-0.82,30.571-5.132,40.693-27.085
							c0.239-0.574,0.479-1.145,0.728-1.711c0.034-0.076,0.068-0.146,0.107-0.215c0.781-1.926,1.47-3.982,2.041-6.169l10.845-48.801
							c0.303-1.357,1.655-2.214,3.003-1.912c1.357,0.303,2.212,1.648,1.909,3.005l-10.864,48.889
							c-0.654,2.522-1.455,4.88-2.373,7.09c-0.015,0.042-0.034,0.083-0.049,0.125c-0.015,0.034-0.029,0.071-0.044,0.102
							c-0.103,0.239-0.205,0.479-0.308,0.715c-27.92,65.542,10.029,163.34,10.42,164.324L2299.97,2476.861z"/>
					</g>
					<g style="opacity:0.55;">
						<path style="fill:#FFFFFF;" d="M2188.417,1945.097l15.148,92.936c-14.279,11.299-31.786,11.982-31.786,11.982l-17.135-104.917
							c-4.407-27.13,11.733-53.328,37.932-61.585l49.541-15.645l13.471,6.394l-29.302,9.25
							C2200.15,1891.769,2184.009,1917.968,2188.417,1945.097z"/>
					</g>
					<g style="opacity:0.55;">
						<path style="fill:#FFFFFF;" d="M2331.762,2479.369h-33.772l-70.338-292.776c0,0-29.054-73.566-18.625-136.951
							c8.816-1.179,31.848-6.518,41.843-28.93c-28.371,67.234,10.554,165.881,10.554,165.881L2331.762,2479.369z"/>
					</g>
					<g>
						<path style="fill:#390075;" d="M2221.685,2021.276c-2.563,13.777-3.694,27.106-3.748,40.569
							c0.212,13.495,1.499,26.935,3.296,40.377c1.78,13.462,4.717,26.842,7.961,40.136c3.384,13.133,7.332,26.749,11.814,38.927
							l0.183,0.5c0.166,0.449,0.315,0.966,0.422,1.42l16.824,73.388c5.632,24.456,11.511,48.854,17.388,73.252l35.178,146.408
							l-13.013-10.257h204.868l-11.624,20.021l-118.474-207.509l-14.81-25.938l-7.405-12.969c-2.522-4.447-5.054-9.086-7.41-13.711
							c-9.446-18.587-16.943-38.167-22.29-58.32c-10.745-40.368-12.695-82.715-6.895-123.815
							c1.458-10.281,3.408-20.488,5.835-30.578c1.16-4.961,2.639-10.257,3.894-14.849c1.274-4.653,2.466-9.328,3.579-14.021
							c2.224-9.387,4.124-18.85,5.693-28.369c0.786-4.759,1.492-9.532,2.109-14.318c0.388-3.114,0.122-5.83-0.837-8.637
							c-0.942-2.744-2.551-5.316-4.658-7.388c-1.057-1.03-2.197-1.99-3.477-2.74c-0.61-0.442-1.277-0.693-1.963-1.096l-3.372-1.605
							l-26.968-12.841l-26.965-12.842l-12.976-6.132c-3.447-1.449-7.085-2.431-10.796-2.891c-3.711-0.452-7.483-0.395-11.174,0.181
							c-1.841,0.313-3.677,0.683-5.461,1.25l-6.982,2.187l-14.243,4.49l-7.122,2.245c-1.304,0.388-2.188,0.729-3.037,1.05
							c-0.872,0.356-1.807,0.578-2.642,1.019c-13.931,5.89-23.918,20.025-24.924,35.1c-0.208,1.876-0.125,3.76-0.078,5.646
							c0.012,0.943,0.212,1.877,0.293,2.818l0.154,1.41l0.288,1.813l2.407,14.739l4.812,29.478
							c3.14,19.663,6.763,39.248,10.427,58.825l-14.578-11.897l2.156-0.303c0.903-0.182,1.802-0.29,2.72-0.526
							c1.824-0.394,3.652-0.9,5.413-1.491c3.567-1.094,6.912-2.614,9.89-4.398c6.118-3.472,10.574-8.287,13.914-14.425
							c0.825-1.518,1.345-3.133,2.185-4.695l2.185-6.757c1.475-4.559,3.101-9.083,4.822-13.59
							c3.411-9.021,7.139-17.98,11.904-26.734c1.223-2.252,4.043-3.086,6.294-1.863c1.455,0.791,2.319,2.259,2.417,3.799
							c0.603,9.98,0.168,19.757-0.586,29.471c-0.359,4.861-0.813,9.704-1.423,14.513c-0.3,2.442-0.547,4.741-0.994,7.279
							c-0.752,2.958-1.433,6.021-2.524,8.893c-4.263,11.432-12.727,22.034-23.142,28.383c-5.115,3.384-10.654,5.714-16.218,7.527
							c-2.795,0.905-5.632,1.577-8.508,2.133c-1.421,0.309-2.908,0.489-4.368,0.719c-1.597,0.188-2.781,0.346-5,0.438l-0.305,0.012
							c-7.161,0.297-13.281-4.966-14.275-11.911c-2.751-19.727-5.544-39.447-8.823-59.087l-4.814-29.478l-2.405-14.739l-0.3-1.873
							l-0.281-2.298c-0.156-1.536-0.41-3.062-0.459-4.607c-0.117-3.092-0.188-6.185,0.11-9.273
							c0.886-12.356,5.325-24.389,12.471-34.456c7.134-10.096,17.1-18.173,28.442-23.129c1.389-0.682,2.874-1.123,4.314-1.683
							c1.482-0.548,2.937-1.063,4.021-1.382l7.122-2.245l14.243-4.49l7.268-2.276c2.971-0.926,6.021-1.573,9.087-2.078
							c6.145-0.96,12.419-1.057,18.591-0.301c6.172,0.764,12.234,2.395,17.964,4.813c3.108,1.359,4.946,2.298,7.292,3.399
							l6.743,3.21l26.968,12.842l26.965,12.841l3.372,1.605c1.499,0.787,3.118,1.553,4.565,2.516c2.993,1.812,5.73,4.033,8.22,6.486
							c4.976,4.919,8.813,10.995,11.111,17.659c2.334,6.599,2.986,14.056,2.078,20.81c-0.657,5.089-1.409,10.167-2.244,15.23
							c-1.67,10.128-3.691,20.199-6.06,30.188c-1.184,4.994-2.454,9.968-3.809,14.918c-1.37,5.011-2.571,9.306-3.684,14.04
							c-2.231,9.269-4.021,18.641-5.359,28.075c-5.327,37.718-3.506,76.531,6.262,113.178c4.866,18.341,11.689,36.16,20.286,53.076
							c2.166,4.246,4.402,8.347,6.79,12.563l7.405,12.969l14.81,25.939l118.474,207.509c3.665,6.42,1.433,14.595-4.988,18.26
							c-2.08,1.187-4.402,1.754-6.636,1.761h-204.868c-6.311,0-11.604-4.379-13.015-10.258l-35.178-146.408
							c-5.85-24.405-11.699-48.809-17.791-73.156l-18.357-73.02l0.605,1.919c-2.91-7.438-5.095-14.221-7.214-21.409
							c-2.153-7.088-3.997-14.25-5.564-21.488c-3.247-14.444-5.505-29.147-6.57-44.052c-0.85-14.922-0.41-30.063,2.288-44.985
							c2.903-14.879,7.979-29.577,16.311-42.2c1.377-2.086,4.185-2.66,6.27-1.284c1.563,1.032,2.278,2.868,1.958,4.601
							L2221.685,2021.276z"/>
					</g>
					<g>
						<path style="fill:#B8C5D3;" d="M2589.221,3164.622H1410.779c-63.43,0-114.85-51.42-114.85-114.85l0,0h1408.143l0,0
							C2704.072,3113.202,2652.651,3164.622,2589.221,3164.622z"/>
						<path style="fill:#390075;" d="M2589.223,3166.851H1410.781c-64.56,0-117.085-52.524-117.085-117.08v-2.231h1412.607v2.231
							C2706.303,3114.327,2653.779,3166.851,2589.223,3166.851z M1298.178,3052.002c1.196,61.069,51.25,110.386,112.602,110.386
							h1178.442c61.353,0,111.401-49.316,112.598-110.386H1298.178z"/>
					</g>
					<g style="opacity:0.8;">
						<path style="fill:#FFFFFF;" d="M2700.192,3079.405c2.518-9.456,3.88-19.384,3.88-29.633H1295.927
							c0,10.249,1.363,20.177,3.88,29.633H2700.192z"/>
					</g>
					<g>
						<path style="fill:#390075;" d="M2589.223,3178.003H1410.781c-70.713,0-128.237-57.524-128.237-128.232
							c0-7.393,5.991-13.384,13.384-13.384h1408.145c7.393,0,13.384,5.991,13.384,13.384
							C2717.456,3120.479,2659.931,3178.003,2589.223,3178.003z M1310.19,3063.155c6.572,49.648,49.175,88.081,100.591,88.081
							h1178.442c51.411,0,94.014-38.433,100.586-88.081H1310.19z"/>
					</g>
					<g>
						<path style="fill:#C7D3E3;" d="M1469.584,3164.619h1064.077c35.862,0,66.055-24.846,70.277-57.831l85.714-626.073
							c4.99-38.987-27.889-73.265-70.277-73.265H1383.87c-42.387,0-75.267,34.278-70.277,73.265l85.714,626.073
							C1403.529,3139.773,1433.722,3164.619,1469.584,3164.619z"/>
						<path style="fill:#390075;" d="M2533.662,3166.851H1469.584c-36.963,0-68.125-25.698-72.49-59.78l-85.713-626.055
							c-2.363-18.462,3.301-36.528,15.947-50.891c13.931-15.828,34.541-24.907,56.543-24.907h1235.503
							c22.002,0,42.612,9.08,56.543,24.907c12.646,14.363,18.311,32.429,15.947,50.872l-85.713,626.094
							C2601.787,3141.153,2570.625,3166.851,2533.662,3166.851z M1383.872,2409.681c-20.723,0-40.112,8.525-53.193,23.391
							c-11.787,13.389-17.066,30.21-14.873,47.358l85.713,626.055c4.082,31.88,33.345,55.903,68.066,55.903h1064.077
							c34.722,0,63.984-24.023,68.066-55.884l85.713-626.094c2.192-17.129-3.086-33.95-14.873-47.339
							c-13.081-14.866-32.471-23.391-53.193-23.391H1383.872z"/>
					</g>
					<g style="opacity:0.8;">
						<path style="fill:#FFFFFF;" d="M1313.573,2480.716l78.252,567.51c0,0,0,0,0,0.041l7.487,58.528
							c4.233,32.979,34.402,57.827,70.275,57.827h1064.07c35.873,0,66.042-24.848,70.275-57.827l85.739-626.08
							c4.991-39.005-27.896-73.264-70.276-73.264H1383.849C1341.469,2407.452,1308.582,2441.711,1313.573,2480.716z"/>
					</g>
					<g>
						<path style="fill:#B8C5D3;" d="M1514.026,3164.619h975.192c32.762,0,60.346-23.171,64.203-53.933l78.306-580.933
							c4.559-36.359-25.479-68.327-64.203-68.327H1435.72c-38.724,0-68.762,31.967-64.203,68.327l78.306,580.933
							C1453.681,3141.448,1481.264,3164.619,1514.026,3164.619z"/>
					</g>
					<g>
						<path style="fill:#390075;" d="M2533.662,3178.003H1469.584c-42.559,0-78.481-29.883-83.555-69.517l-85.698-625.957
							c-2.788-21.782,3.833-42.969,18.623-59.775c16.05-18.232,39.707-28.689,64.917-28.689h1235.503
							c25.21,0,48.867,10.457,64.917,28.689c14.79,16.807,21.411,37.993,18.638,59.658l-85.728,626.191
							C2612.143,3148.121,2576.22,3178.003,2533.662,3178.003z M1383.872,2420.833c-17.52,0-33.853,7.148-44.824,19.609
							c-9.634,10.95-13.96,24.646-12.178,38.572l85.698,625.957c3.384,26.426,27.891,46.265,57.017,46.265h1064.077
							c29.126,0,53.633-19.839,57.002-46.147l85.728-626.191c1.768-13.809-2.559-27.505-12.192-38.455
							c-10.972-12.461-27.305-19.609-44.824-19.609H1383.872z"/>
					</g>
					<g style="opacity:0.3;">
						<path style="fill:#390075;" d="M1391.825,3048.226c0,0,0,0,0,0.041l7.487,58.528c4.233,32.979,34.402,57.827,70.275,57.827
							h1064.07c35.873,0,66.042-24.848,70.275-57.827l85.739-626.08c4.991-39.005-27.896-73.264-70.276-73.264h-90.462
							C2467.794,2974.698,2082.415,3152.487,1391.825,3048.226z"/>
					</g>
					<g>
						<path style="fill:#390075;" d="M2079.899,2829.197c-9.995,31.227-41.222,54.011-78.222,54.011
							c-45.071,0-81.575-33.834-81.575-75.553c0-41.719,36.504-75.491,81.575-75.491c3.787,0,7.512,0.249,11.175,0.745
							c-7.077,9.871-11.175,21.729-11.175,34.393c0,34.641,30.296,62.702,67.668,62.702
							C2072.946,2830.004,2076.484,2829.756,2079.899,2829.197z"/>
					</g>
					<g style="opacity:0.8;">
						<path style="fill:#FFFFFF;" d="M2001.676,2767.302c0-10.74,2.98-20.921,8.257-29.799h0.559c3.787,0,7.512,0.248,11.174,0.745
							c-7.077,9.871-11.174,21.729-11.174,34.393c0,20.301,10.367,38.304,26.509,49.727
							C2015.955,2811.752,2001.676,2791.079,2001.676,2767.302z"/>
					</g>
					<g style="opacity:0.8;">
						<path style="fill:#FFFFFF;" d="M2088.714,2834.536c-9.995,31.227-41.222,54.011-78.222,54.011
							c-18.314,0-35.2-5.587-48.796-15.024c11.795,6.146,25.453,9.685,39.98,9.685c34.517,0,64.006-19.866,75.925-47.865h0.559
							C2081.761,2835.343,2085.3,2835.094,2088.714,2834.536z"/>
					</g>
					<g style="opacity:0.1;">
						<path style="fill:#FFFFFF;" d="M1898.602,1131.332c26.37,16.026,8.311,63.028-23.431,115.257s-65.144,89.906-91.514,73.88
							c-26.37-16.026-22.016-71.357,9.725-123.586S1872.232,1115.306,1898.602,1131.332z"/>
					</g>
					<g style="opacity:0.3;">
						<path style="fill:#390075;" d="M2121.679,1240.164c-12.23,174.014-191.521,302.77-377.206,286.815
							c-0.124,0-0.249-0.062-0.435,0c-0.311,0-0.683-0.062-1.056-0.062c-2.421-0.249-4.842-0.497-7.201-0.869
							c-46.251-29.799-85.237-54.942-85.237-54.942c131.861,47.617,245.221,24.833,319.594-146.884
							C2013.099,1201.177,2065.434,1195.651,2121.679,1240.164z"/>
					</g>
					<g style="opacity:0.3;">
						<path style="fill:#390075;" d="M2432.086,1320.87c-10.367,83.81-36.752,146.76-93.122,186.244
							c-111.747-50.721-171.779-133.475-217.285-266.95c208.842,181.401,322.202,124.1,217.285-135.772
							C2387.822,1168.274,2420.973,1238.612,2432.086,1320.87z"/>
					</g>
					<g>
						<g>
							<path style="fill:#390075;" d="M1948.97,1594.103c-4.48,0.175-7.957-0.015-11.826-0.253c-3.77-0.236-7.495-0.61-11.196-1.08
								c-7.4-0.949-14.7-2.359-21.831-4.223c-7.134-1.881-14.082-4.412-20.676-7.41c-6.594-3.077-12.717-6.959-18.186-11.298
								c13.374,4.402,27.002,4.925,40.198,3.58c6.611-0.723,13.123-1.869,19.5-3.408c3.186-0.774,6.343-1.63,9.429-2.595
								c2.991-0.923,6.355-2.045,8.657-3.104c7.825-3.595,17.08-0.167,20.674,7.657c3.596,7.823,0.168,17.08-7.656,20.675
								c-1.89,0.869-3.865,1.327-5.82,1.413L1948.97,1594.103z"/>
						</g>
						<g>
							
								<ellipse transform="matrix(0.9988 -0.0494 0.0494 0.9988 -77.7298 98.3715)" style="fill:#390075;" cx="1950.797" cy="1621.349" rx="40.953" ry="58.08"/>
							<path style="fill:#390075;" d="M1952.231,1681.624c-23.125,0-42.959-25.649-44.565-58.142l0,0
								c-1.641-33.215,16.372-61.196,40.151-62.371c11.851-0.54,22.91,5.256,31.631,16.413c8.55,10.935,13.691,25.74,14.478,41.689
								c0.791,15.95-2.861,31.191-10.293,42.915c-7.578,11.97-18.184,18.879-29.854,19.458
								C1953.261,1681.612,1952.744,1681.624,1952.231,1681.624z M1912.119,1623.262c1.494,30.107,19.341,53.901,40.093,53.901
								c0.449,0,0.898-0.012,1.343-0.034c10.185-0.503,19.526-6.677,26.313-17.388c6.938-10.952,10.347-25.269,9.604-40.308
								c-0.742-15.039-5.552-28.945-13.54-39.16c-7.803-9.983-17.622-15.295-27.891-14.705
								C1926.713,1566.622,1910.6,1592.503,1912.119,1623.262L1912.119,1623.262z"/>
						</g>
						<g>
							<path style="fill:#FFFFFF;" d="M1947.346,1606.352c0.462,9.327,6.167,16.624,12.743,16.299
								c6.577-0.325,11.534-8.15,11.073-17.477c-0.461-9.327-6.167-16.624-12.743-16.299S1946.885,1597.025,1947.346,1606.352z"/>
						</g>
					</g>
					<g>
						<g>
							<path style="fill:#390075;" d="M2217.925,1525.216c2.2,0.923,5.481,1.869,8.376,2.629c2.993,0.799,6.052,1.484,9.138,2.087
								c6.177,1.196,12.471,1.991,18.843,2.355c12.717,0.64,25.774-0.648,38.357-5.722c-4.956,4.539-10.576,8.707-16.733,12.078
								c-6.16,3.305-12.708,6.176-19.482,8.385c-6.772,2.203-13.745,3.955-20.842,5.247c-3.552,0.64-7.131,1.186-10.764,1.594
								c-3.733,0.414-7.068,0.763-11.445,0.787l-1.292,0.007c-8.462,0.047-15.359-6.774-15.408-15.236
								c-0.046-8.461,6.775-15.359,15.237-15.406C2214.014,1524.01,2216.094,1524.457,2217.925,1525.216z"/>
						</g>
						<g>
							<ellipse style="fill:#390075;" cx="2213.05" cy="1582.339" rx="39.321" ry="58.187"/>
							<path style="fill:#390075;" d="M2213.051,1642.757c-22.91,0-41.553-27.105-41.553-60.418s18.643-60.417,41.553-60.417
								s41.553,27.104,41.553,60.417S2235.961,1642.757,2213.051,1642.757z M2213.051,1526.385c-20.454,0-37.09,25.1-37.09,55.955
								s16.636,55.955,37.09,55.955s37.09-25.1,37.09-55.955S2233.505,1526.385,2213.051,1526.385z"/>
						</g>
						<g>
							<ellipse style="fill:#FFFFFF;" cx="2204.201" cy="1567.163" rx="11.447" ry="16.94"/>
						</g>
					</g>
				</g>
			</g>
		</g>
		<g style="opacity:0.3;">
			<path style="fill:#390075;" d="M3386.775,3285.775c79.377,9.094,123.225,19.096,123.225,29.553
				c0,42.512-521.521,76.953-1410.431,76.953c-888.962,0-1609.569-34.441-1609.569-76.953c0-10.457,43.847-20.46,123.224-29.553
				H3386.775z"/>
		</g>
		<g>
			<path style="fill:#390075;" d="M635.894,3280.255c56.838-8.55,113.677-10.597,170.515-11.648
				c56.836-1.182,113.674-0.556,170.513,0.088c56.838,0.502,113.674,0.63,170.513,0.55h170.513H2000h682.053h341.025l85.256-0.032
				l42.629-0.395l42.627-0.685c56.838-0.194,113.677,0.301,170.515,12.122c3.04,0.632,4.993,3.61,4.36,6.65
				c-0.471,2.258-2.239,3.916-4.36,4.36c-56.838,11.82-113.677,12.316-170.515,12.122l-42.627-0.685l-42.629-0.395l-85.256-0.032
				h-341.025H2000h-682.053h-170.513c-56.838-0.081-113.674,0.047-170.513,0.55c-56.838,0.644-113.677,1.27-170.513,0.088
				c-56.838-1.051-113.677-3.098-170.515-11.648c-3.04-0.458-5.134-3.293-4.675-6.333
				C631.589,3282.458,633.545,3280.611,635.894,3280.255z"/>
		</g>
	</g>
</g>
</svg>
