<?xml version="1.0" encoding="utf-8"?>
<!-- Generator: Adobe Illustrator 27.5.0, SVG Export Plug-In . SVG Version: 6.00 Build 0)  -->
<svg version="1.1" id="Layer_1" xmlns="http://www.w3.org/2000/svg" xmlns:xlink="http://www.w3.org/1999/xlink" x="0px" y="0px"
	 viewBox="0 0 3128.541 3128.541" style="enable-background:new 0 0 3128.541 3128.541;" xml:space="preserve">

<g>
	<g style="opacity:0.5;">
		<g>
			<path style="fill:#FBE6E3;" d="M2057.245,132.657c-490.736-42.323-620.629,248.59-1067.059,274.346
				c-365.952,21.113-731.52,217.667-808.653,646.264c-78.007,433.451,204.554,766.01,306.408,824.8l323.218,2.202h1614.569
				c131.596,1.107,252.393-0.94,252.393-0.94c304.435-299.66,361.934-942.112,176.052-1244.921
				C2657.814,314.527,2286.664,152.443,2057.245,132.657z"/>
		</g>
	</g>
	<g>
		<path style="fill:#FBD3CE;" d="M2169.521,645.029c-10.356,18.55-17.417,38.374-21.183,58.671l-49.8,11.58l1.618,34.923
			l1.618,34.923l50.657,6.924c5.627,19.861,14.491,38.948,26.519,56.46l-27.029,43.408l25.839,23.55l25.838,23.55l40.722-30.928
			c18.549,10.356,38.375,17.417,58.671,21.183l11.58,49.8l34.923-1.619l34.923-1.619l6.925-50.658
			c19.861-5.626,38.948-14.491,56.46-26.518l43.409,27.029l23.55-25.839l23.55-25.839l-30.928-40.723
			c10.356-18.549,17.417-38.374,21.183-58.671l49.8-11.581l-1.619-34.923l-1.618-34.922l-50.658-6.925
			c-5.626-19.861-14.491-38.948-26.518-56.46l27.03-43.409l-25.839-23.55l-25.839-23.549l-40.722,30.928
			c-18.549-10.356-38.374-17.417-58.671-21.183l-11.58-49.8l-34.923,1.618l-34.923,1.618l-6.925,50.658
			c-19.861,5.626-38.948,14.491-56.46,26.518l-43.409-27.029l-23.55,25.839l-23.55,25.839L2169.521,645.029z M2371.377,612.202
			c70.117,18.184,112.216,89.766,94.032,159.883c-18.184,70.117-89.767,112.216-159.883,94.032
			c-70.117-18.184-112.217-89.766-94.032-159.883C2229.678,636.117,2301.26,594.018,2371.377,612.202z"/>
	</g>
	<g>
		<path style="fill:#FBD3CE;" d="M705.616,884.724c-12.683,23.151-21.259,47.853-25.736,73.109l-61.761,14.883l2.358,43.375
			l2.358,43.375l63.01,8.1c7.189,24.622,18.393,48.249,33.511,69.888l-33.152,54.203l32.339,29.003l32.338,29.003l50.289-38.833
			c23.151,12.683,47.853,21.259,73.109,25.736l14.884,61.761l43.375-2.359l43.375-2.358l8.1-63.011
			c24.622-7.188,48.248-18.392,69.887-33.51l54.204,33.152l29.003-32.338l29.003-32.339l-38.833-50.29
			c12.683-23.151,21.259-47.853,25.736-73.109l61.761-14.884l-2.358-43.375l-2.358-43.375l-63.011-8.101
			c-7.188-24.621-18.393-48.249-33.511-69.887l33.152-54.204l-32.339-29.003l-32.339-29.003l-50.29,38.833
			c-23.15-12.683-47.853-21.259-73.109-25.736l-14.884-61.761l-43.375,2.358l-43.375,2.358l-8.1,63.011
			c-24.622,7.188-48.248,18.393-69.887,33.511l-54.204-33.152l-29.003,32.338l-29.003,32.339L705.616,884.724z M956.095,841.929
			c87.3,21.896,140.321,110.418,118.425,197.718c-21.897,87.301-110.418,140.321-197.718,118.424
			c-87.3-21.896-140.321-110.418-118.425-197.718C780.273,873.053,868.795,820.032,956.095,841.929z"/>
	</g>
	<g style="opacity:0.3;">
		<path style="fill:#FD7583;" d="M1423.593,488.091c-15.95,29.115-26.736,60.181-32.367,91.944l-77.672,18.718l2.966,54.55
			l2.966,54.55l79.244,10.186c9.041,30.965,23.131,60.679,42.144,87.893l-41.693,68.168l40.67,36.475l40.67,36.475l63.246-48.838
			c29.115,15.95,60.182,26.737,91.944,32.367l18.718,77.672l54.549-2.966l54.55-2.966l10.187-79.244
			c30.965-9.04,60.678-23.131,87.892-42.143l68.168,41.693l36.475-40.67l36.475-40.67l-48.838-63.246
			c15.95-29.115,26.736-60.181,32.366-91.943l77.673-18.719l-2.966-54.55l-2.965-54.549l-79.245-10.187
			c-9.04-30.964-23.131-60.679-42.144-87.892l41.693-68.168l-40.67-36.475l-40.67-36.475l-63.246,48.838
			c-29.115-15.95-60.181-26.736-91.944-32.366l-18.718-77.673l-54.55,2.966l-54.55,2.966l-10.187,79.244
			c-30.965,9.04-60.678,23.131-87.892,42.144l-68.168-41.693l-36.475,40.669l-36.475,40.67L1423.593,488.091z M1738.602,434.27
			c109.791,27.537,176.471,138.865,148.934,248.656c-27.537,109.792-138.865,176.471-248.656,148.934
			c-109.791-27.537-176.472-138.864-148.934-248.656C1517.483,473.413,1628.811,406.733,1738.602,434.27z"/>
	</g>
	
		<rect x="1160.412" y="681.275" transform="matrix(0.7071 -0.7071 0.7071 0.7071 -168.926 1056.699)" style="fill:#B72C65;" width="61.35" height="101.973"/>
	<polygon style="fill:#5B2750;" points="1181.681,669.562 1155.086,696.157 1154.574,696.669 1127.978,723.265 1144.48,759.005 
		1180.695,722.79 1181.207,722.278 1217.421,686.063 	"/>
	
		<rect x="1730.87" y="681.275" transform="matrix(-0.7071 -0.7071 0.7071 -0.7071 2489.3582 2495.6489)" style="fill:#B72C65;" width="61.35" height="101.973"/>
	<polygon style="fill:#5B2750;" points="1770.951,669.562 1797.547,696.157 1798.059,696.669 1824.654,723.265 1808.152,759.005 
		1771.938,722.79 1771.426,722.278 1735.211,686.063 	"/>
	<rect x="1431.196" y="567.414" style="fill:#B72C65;" width="89.201" height="148.265"/>
	<path style="fill:#D83F7A;" d="M2020.046,1281.836c-0.523,299.17-243.482,541.277-542.664,540.754
		c-299.182-0.534-541.289-243.493-540.755-542.675c0.273-154.722,65.371-294.169,169.565-392.692
		c97.284-92.01,228.64-148.324,373.099-148.062c190.522,0.33,357.893,98.989,454.211,247.858
		C1988.429,1071.926,2020.239,1173.176,2020.046,1281.836z"/>
	<path style="fill:#FFFFFF;" d="M2020.046,1281.836c-0.523,299.17-243.482,541.277-542.664,540.754
		c-299.182-0.534-541.289-243.493-540.755-542.675c0.273-154.722,65.371-294.169,169.565-392.692
		c97.284-92.01,228.64-148.324,373.099-148.062c190.522,0.33,357.893,98.989,454.211,247.858
		C1988.429,1071.926,2020.239,1173.176,2020.046,1281.836z"/>
	<polygon style="fill:#5B2750;" points="1530.587,564.72 1475.901,564.72 1474.849,564.72 1420.163,564.72 1400.384,618.43 
		1474.849,618.43 1475.901,618.43 1550.366,618.43 	"/>
	<path style="fill:#D83F7A;" d="M1479.394,681.483c-331.038-0.591-599.863,267.292-600.454,598.329
		c-0.58,331.038,267.303,599.875,598.341,600.454c331.038,0.58,599.864-267.303,600.454-598.34
		C2078.314,950.9,1810.431,682.063,1479.394,681.483z M1477.382,1822.59c-299.182-0.534-541.289-243.493-540.755-542.675
		c0.273-154.722,65.371-294.169,169.565-392.692c97.284-92.01,228.64-148.324,373.099-148.062
		c190.522,0.33,357.893,98.989,454.211,247.858c54.927,84.908,86.737,186.158,86.544,294.818
		C2019.523,1581.006,1776.563,1823.113,1477.382,1822.59z"/>
	<path style="opacity:0.1;fill:#9BC0F7;" d="M1477.382,1656.442c-270.596-0.483-494.496-199.282-534.417-458.624
		c-4.118,26.769-6.288,54.182-6.338,82.096c-0.534,299.182,241.573,542.141,540.755,542.675
		c299.182,0.523,542.141-241.584,542.664-540.754c0.051-28.56-2.13-56.601-6.34-83.975
		C1973.651,1457.962,1748.623,1656.916,1477.382,1656.442z"/>
	<path style="fill:#FDF3E5;" d="M1933.502,987.018l-459.211,308.046L1106.09,887.416c0.034-0.068,0.068-0.125,0.102-0.193
		c97.284-92.01,228.64-148.324,373.099-148.062C1669.813,739.49,1837.184,838.149,1933.502,987.018z"/>
	<path style="fill:#FD7583;" d="M1478.466,1283.515c136.71,29.901,368.666-236.341,368.666-236.341
		C1483.45,1174.34,1478.466,1283.515,1478.466,1283.515z"/>
	<path style="fill:#FD7583;" d="M1274.167,1071.824c122.791,246.048,200.54,239.745,200.54,239.745
		C1483.566,1212.08,1274.167,1071.824,1274.167,1071.824z"/>
	<path style="fill:#D83F7A;" d="M1459.304,1260.037c-12.966,10.583-14.899,29.674-4.316,42.64
		c10.583,12.966,29.674,14.899,42.64,4.316c12.966-10.583,14.898-29.674,4.316-42.64S1472.271,1249.454,1459.304,1260.037z"/>
	<g>
		
			<rect x="1419.649" y="793.907" transform="matrix(0.0018 -1 1 0.0018 677.8771 2276.7402)" style="fill:#B72C65;" width="119.345" height="9.849"/>
		
			<rect x="1417.947" y="1757.992" transform="matrix(0.0018 -1 1 0.0018 -287.9043 3237.4197)" style="fill:#B72C65;" width="119.345" height="9.849"/>
		
			<rect x="1811.226" y="914.636" transform="matrix(0.7083 -0.7059 0.7059 0.7083 -112.1314 1567.74)" style="fill:#B72C65;" width="59.673" height="9.849"/>
		
			<rect x="1086.043" y="1637.263" transform="matrix(0.7084 -0.7059 0.7059 0.7084 -833.7086 1266.5879)" style="fill:#B72C65;" width="59.672" height="9.849"/>
		
			<rect x="1654.868" y="1729.727" transform="matrix(0.9352 -0.3542 0.3542 0.9352 -515.6634 702.0352)" style="fill:#B72C65;" width="9.849" height="59.672"/>
		
			<rect x="1292.224" y="772.35" transform="matrix(0.9352 -0.3542 0.3542 0.9352 -200.0486 511.5025)" style="fill:#B72C65;" width="9.85" height="59.673"/>
		
			<rect x="1238.364" y="1742.647" transform="matrix(0.4108 -0.9117 0.9117 0.4108 -846.0626 2186.0144)" style="fill:#B72C65;" width="59.673" height="9.85"/>
		
			<rect x="1658.905" y="809.252" transform="matrix(0.4108 -0.9117 0.9117 0.4108 252.7319 2019.4187)" style="fill:#B72C65;" width="59.673" height="9.85"/>
		
			<rect x="969.946" y="1457.271" transform="matrix(0.9352 -0.3542 0.3542 0.9352 -453.1334 448.9745)" style="fill:#B72C65;" width="59.672" height="9.85"/>
		
			<rect x="1927.323" y="1094.628" transform="matrix(0.9352 -0.3542 0.3542 0.9352 -262.5928 764.6054)" style="fill:#B72C65;" width="59.672" height="9.85"/>
		
			<rect x="1006.849" y="1040.768" transform="matrix(0.4108 -0.9117 0.9117 0.4108 -379.9497 1553.2886)" style="fill:#B72C65;" width="9.85" height="59.672"/>
		
			<rect x="1118.321" y="882.48" transform="matrix(0.72 -0.694 0.694 0.72 -318.6165 1034.932)" style="fill:#B72C65;" width="9.85" height="59.673"/>
		
			<rect x="1828.771" y="1619.597" transform="matrix(0.72 -0.694 0.694 0.72 -631.2308 1734.3268)" style="fill:#B72C65;" width="9.85" height="59.673"/>
	</g>
	<g>
		<g>
			<g>
				<g>
					<g>
						<g>
							<g>
								<g>
									<g>
										<g>
											<g>
												<path style="fill:#FCAF90;" d="M1065.056,1200.067l11.995,0.172c2.082-0.547,6.187-1.917,11.073-3.249
													c1.374,4.043,2.538,7.13,3.049,7.032l0.188,0.921c0.048,0.236,0.187,0.429,0.373,0.553
													c0.908,4.256,1.935,9.691,3.091,14.183c0.821,3.191,1.615,2.637-0.434,5.068c-1.185,1.406-8.021,6.864-10.855,7.535
													l-18.482,6.132c-1.24-5.632-20.046-20.353-19.326-21.435L1065.056,1200.067z"/>
											</g>
										</g>
									</g>
								</g>
							</g>
						</g>
					</g>
				</g>
			</g>
			<g>
				<g>
					<g>
						<path style="fill:#91D3E2;" d="M1043.62,1164.545c0,0-18.19,7.802-10.405,25.288c7.259,16.303,22.558,8.497,26.496,6.527
							C1063.65,1194.39,1043.62,1164.545,1043.62,1164.545z"/>
					</g>
				</g>
				<g>
					<g>
						<path style="fill:#52B6C6;" d="M1064.385,1198.492c0,0,8.133,13.724,10.128,25.547c1.861,11.025,3.872,12.407,7.777,10.995
							c3.906-1.412,12.96-6.4,12.101-10.285c-0.859-3.886-7.928-23.119-17.482-31.899
							C1067.356,1184.068,1064.385,1198.492,1064.385,1198.492z"/>
					</g>
				</g>
				<g>
					<g>
						<path style="fill:#52B6C6;" d="M1091.3,1113.217c0,0-25.258,31.257-33.547,40.887l-3.565,10.422l11.104,24.6l11.479,2.274
							l52.183-3.49l-2.64-5.26l-15.682-22.55l-12.208-27.185l-6.022-17.113L1091.3,1113.217z"/>
					</g>
				</g>
				<g>
					<g>
						<path style="fill:#D4EBF2;" d="M1057.753,1154.104c0,0,1.703,22.935,19.019,37.295c0,0,1.142,1.455-0.115,2.889l-8.714,4.896
							c0,0-3.926,2.698-9.252-2.551c-5.326-5.249-15.54-17.512-15.852-33.982c0,0-0.185-4.432,4.712-6.568l6.46-3.103
							C1054.011,1152.98,1056.904,1151.702,1057.753,1154.104z"/>
					</g>
				</g>
				<g>
					<g>
						<path style="fill:#91D3E2;" d="M1091.3,1113.217c0,0,6.552-8.204,11.306-9.341c4.754-1.137,11.155,3.87,15.588,8.17
							c4.434,4.299,17.856,22.241,22.257,35.604c4.401,13.363,9.454,32.725,3.438,36.806s-14.935,3.453-14.935,3.453
							s-13.185-6.344-27.12-33.341C1087.901,1127.573,1091.3,1113.217,1091.3,1113.217z"/>
					</g>
				</g>
				<g>
					<g>
						<path style="fill:#3B9DA8;" d="M1139.397,1186.483c0,0,4.973-11.964-6.094-37.704c-17.424-40.527-34.568-42.768-34.568-42.768
							s-9.091,11.768,12.744,49.593C1129.47,1186.772,1139.397,1186.483,1139.397,1186.483z"/>
					</g>
				</g>
				<g>
					<g>
						<path style="fill:#D4EBF2;" d="M1103.23,1139.435c2.072,4.766,4.765,10.134,8.248,16.169c1.743,3.02,3.41,5.741,5,8.2
							c4.304-2.921,10.871-9.109,4.785-18.711C1115.625,1136.196,1107.559,1137.721,1103.23,1139.435z"/>
					</g>
				</g>
				<g>
					<g>
						<path style="fill:#1D1D1B;" d="M1081.547,1235.471c-1.254,0.336-2.201,0.268-3.005-0.201
							c-1.835-1.071-3.058-4.316-4.22-11.199c-1.58-9.359-6.964-19.833-9.266-24.004c-2.069-0.06-4.167-1.085-6.242-3.048
							c-6.528,3.168-12.147,3.935-16.703,2.28c-3.873-1.407-6.925-4.566-9.072-9.387c-2.947-6.618-2.578-12.622,1.094-17.846
							c2.84-4.039,6.882-6.421,8.608-7.309c-0.05-0.705-0.081-1.411-0.094-2.102c-0.002-0.041-0.133-4.584,4.827-6.748l6.454-3.1
							c0.069-0.031,1.567-0.68,2.782-0.156c0.486,0.21,0.855,0.575,1.101,1.09c8.397-9.786,33.089-40.335,33.339-40.645
							c0.269-0.336,6.646-8.273,11.411-9.407c4.835-1.156,11.243,3.831,15.767,8.219c4.5,4.364,17.889,22.271,22.306,35.682
							c4.828,14.656,9.33,32.977,3.363,37.026c-5.891,3.997-14.638,3.512-15.042,3.487l-51.848,3.467
							c0.171,0.315,0.39,0.859,0.318,1.5c5.029,4.801,9.168,12.264,11.76,17.691c2.969,6.218,4.942,11.898,5.395,13.946
							c0.494,2.234-2.087,4.642-4.339,6.268c-2.663,1.922-5.879,3.515-7.885,4.24
							C1082.072,1235.317,1081.803,1235.402,1081.547,1235.471z M1058.887,1196.556l0.097,0.093c2.071,1.99,4.153,3.011,6.189,3.036
							l0.112,0.001l0.054,0.098c2.281,4.121,7.761,14.732,9.363,24.223c1.126,6.668,2.332,9.937,4.034,10.931
							c0.872,0.509,1.915,0.483,3.488-0.085c3.743-1.354,12.803-6.335,11.979-10.063c-0.448-2.03-2.41-7.672-5.366-13.863
							c-2.59-5.424-6.731-12.889-11.749-17.646l-0.074-0.07l0.016-0.1c0.139-0.873-0.405-1.586-0.411-1.594l-0.222-0.286
							l0.361-0.025l52.196-3.49l0.013,0.001c0.089,0.006,8.923,0.576,14.813-3.421c2.608-1.769,3.316-6.727,2.105-14.735
							c-0.889-5.882-2.779-13.234-5.618-21.852c-4.398-13.353-17.728-31.182-22.208-35.526c-4.455-4.32-10.745-9.236-15.41-8.12
							c-0.048,0.012-0.097,0.024-0.146,0.037c-4.624,1.239-10.99,9.156-11.055,9.237c-0.253,0.313-25.355,31.371-33.551,40.892
							l-0.217,0.252l-0.111-0.313c-0.2-0.568-0.542-0.959-1.013-1.163c-1.059-0.458-2.456,0.145-2.47,0.151l-6.455,3.101
							c-4.719,2.058-4.61,6.21-4.603,6.386c0.014,0.729,0.049,1.473,0.103,2.212l0.009,0.128l-0.114,0.058
							c-2.812,1.426-16.492,9.318-9.638,24.714c2.103,4.723,5.081,7.812,8.852,9.182c4.482,1.629,10.041,0.847,16.523-2.322
							L1058.887,1196.556z"/>
					</g>
				</g>
				<g>
					<g>
						<path style="fill:#1D1D1B;" d="M1058.718,1196.927c-7.984-7.559-11.901-15.867-13.78-21.505
							c-2.037-6.113-2.187-10.503-2.189-10.547l0.385-0.011c0.001,0.043,0.151,4.388,2.174,10.451
							c1.866,5.593,5.753,13.834,13.675,21.333L1058.718,1196.927z"/>
					</g>
				</g>
				<g>
					<g>
						<path style="fill:#1D1D1B;" d="M1076.646,1191.545c-4.169-3.623-7.766-7.845-10.692-12.549
							c-2.341-3.763-4.259-7.84-5.703-12.119c-2.459-7.287-2.688-12.712-2.69-12.766l0.385-0.014
							c0.002,0.053,0.23,5.433,2.674,12.671c2.254,6.675,6.908,16.342,16.278,24.486L1076.646,1191.545z"/>
					</g>
				</g>
				<g>
					<g>
						<path style="fill:#1D1D1B;" d="M1066.656,1199.723c-0.821,0.22-1.363,0.327-1.449,0.344l-0.073-0.378
							c0.088-0.017,8.811-1.748,11.924-6.65l0.325,0.206C1074.935,1197.101,1069.324,1199.008,1066.656,1199.723z"/>
					</g>
				</g>
				<g>
					<g>
						<path style="fill:#1D1D1B;" d="M1139.3,1186.721c-0.557,0.149-2.378,0.297-5.913-2.39
							c-3.851-2.927-10.631-9.969-21.061-26.894c-5.158-8.37-9.093-16.282-11.694-23.516c-2.083-5.793-3.322-11.168-3.68-15.976
							c-0.613-8.217,1.527-11.881,1.618-12.033l0.33,0.198c-0.022,0.036-2.176,3.743-1.561,11.858
							c0.569,7.5,3.688,20.401,15.314,39.267c10.308,16.727,17.017,23.744,20.829,26.685c4.118,3.176,5.81,2.4,5.826,2.392
							l0.177,0.341C1139.474,1186.66,1139.413,1186.69,1139.3,1186.721z"/>
					</g>
				</g>
				<g>
					<g>
						
							<rect x="1048.202" y="1166.14" transform="matrix(0.5481 -0.8364 0.8364 0.5481 -500.4567 1406.3944)" style="fill:#1D1D1B;" width="6.166" height="0.385"/>
					</g>
				</g>
				<g>
					<g>
						
							<rect x="1045.715" y="1164.019" transform="matrix(0.5484 -0.8362 0.8362 0.5484 -499.8922 1402.799)" style="fill:#1D1D1B;" width="6.166" height="0.385"/>
					</g>
				</g>
				<g>
					<g>
						
							<rect x="1082.006" y="1133.243" transform="matrix(0.5481 -0.8364 0.8364 0.5481 -457.6648 1419.8022)" style="fill:#1D1D1B;" width="6.166" height="0.385"/>
					</g>
				</g>
				<g>
					<g>
						
							<rect x="1079.519" y="1131.122" transform="matrix(0.5481 -0.8364 0.8364 0.5481 -457.0143 1416.7637)" style="fill:#1D1D1B;" width="6.166" height="0.385"/>
					</g>
				</g>
			</g>
			<g>
				<polygon style="fill:#FCAF90;" points="1064.62,1206.139 1077.53,1206.763 1078.14,1209.872 1078.953,1212.565 
					1077.797,1214.538 1069.236,1215.371 1064.09,1212.319 				"/>
			</g>
			<g>
				<g>
					<g>
						<g>
							<g>
								<g>
									<g>
										<g>
											<g>
												<g>
													<path style="fill:#F07162;" d="M1062.522,1216.956c-0.248-0.088-0.429-0.4-0.424-0.763
														c0.006-0.418,0.259-0.743,0.563-0.727l13.819-1.549c1.307,0.065,2.413-1.219,2.515-2.924
														c0.054-0.913-0.161-1.796-0.608-2.484c-0.447-0.688-1.059-1.087-1.726-1.12l-12.719-0.633
														c-0.303-0.02-0.548-0.368-0.542-0.784c0.005-0.418,0.256-0.744,0.562-0.729l12.719,0.633
														c0.959,0.048,1.88,0.645,2.525,1.638c0.654,1.007,0.97,2.297,0.89,3.632c-0.149,2.496-1.747,4.378-3.636,4.284
														l-13.821,1.55C1062.599,1216.978,1062.559,1216.969,1062.522,1216.956z"/>
												</g>
											</g>
										</g>
									</g>
								</g>
							</g>
						</g>
					</g>
				</g>
			</g>
			<g>
				<g>
					<g>
						<g>
							<g>
								<g>
									<g>
										<g>
											<g>
												<path style="fill:#FCAF90;" d="M1093.902,1203.28c0.991,2.198,0.067,3.958-0.293,4.134l-11.138,5.446
													c-1.349,0.66-3.168-0.179-4.103-2.007c-1.024-2.003-0.628-4.278,0.827-4.989l11.089-5.422
													C1090.285,1200.442,1092.912,1201.082,1093.902,1203.28z"/>
											</g>
										</g>
									</g>
								</g>
							</g>
						</g>
					</g>
				</g>
			</g>
			<g>
				<g>
					<g>
						<g>
							<g>
								<g>
									<g>
										<g>
											<g>
												<path style="fill:#FCAF90;" d="M1096.835,1209.543c1.021,2.182,0.753,4.412,0.399,4.597l-11.858,6.189
													c-1.333,0.696-3.156-0.102-4.116-1.914c-1.051-1.986-0.693-4.28,0.744-5.03l12.161-6.347
													C1094.165,1207.038,1095.815,1207.361,1096.835,1209.543z"/>
											</g>
										</g>
									</g>
								</g>
							</g>
						</g>
					</g>
				</g>
			</g>
			<g>
				<g>
					<g>
						<g>
							<g>
								<g>
									<g>
										<g>
											<g>
												<g>
													<path style="fill:#F07162;" d="M1094.837,1207.53c0.185-0.171,0.224-0.514,0.08-0.831
														c-0.167-0.365-0.514-0.556-0.777-0.426l-11.969,5.925c-1.128,0.551-2.598-0.159-3.345-1.621
														c-0.4-0.783-0.55-1.64-0.42-2.415c0.129-0.775,0.515-1.356,1.091-1.637l10.976-5.367
														c0.26-0.132,0.341-0.53,0.176-0.895c-0.165-0.366-0.513-0.557-0.776-0.429l-10.976,5.367
														c-0.828,0.405-1.41,1.278-1.597,2.396c-0.189,1.133,0.029,2.387,0.614,3.531c1.094,2.139,3.228,3.19,4.859,2.393
														l11.971-5.926C1094.777,1207.579,1094.809,1207.556,1094.837,1207.53z"/>
												</g>
											</g>
										</g>
									</g>
								</g>
							</g>
						</g>
					</g>
				</g>
			</g>
			<g>
				<g>
					<g>
						<g>
							<g>
								<g>
									<g>
										<g>
											<g>
												<path style="fill:#FCAF90;" d="M1089.678,1196.022c1.055,2.167,0.729,4.412,0.373,4.594l-11.896,6.066
													c-1.31,0.668-3.1-0.073-4.07-1.834c-1.111-2.016-0.752-4.372,0.717-5.121l11.102-5.661
													C1087.138,1193.436,1089.066,1194.765,1089.678,1196.022z"/>
											</g>
										</g>
									</g>
								</g>
							</g>
						</g>
					</g>
				</g>
			</g>
			<g>
				<g>
					<g>
						<g>
							<g>
								<g>
									<g>
										<g>
											<g>
												<g>
													<path style="fill:#F07162;" d="M1090.415,1201.152c0.183-0.174,0.219-0.519,0.071-0.835
														c-0.17-0.364-0.518-0.549-0.779-0.415l-11.876,6.129c-1.119,0.571-2.592-0.119-3.352-1.572
														c-0.406-0.779-0.565-1.636-0.444-2.415c0.121-0.779,0.5-1.368,1.072-1.659l10.891-5.553
														c0.258-0.137,0.335-0.537,0.167-0.9c-0.169-0.364-0.517-0.551-0.778-0.418l-10.891,5.554
														c-0.822,0.419-1.393,1.304-1.568,2.427c-0.177,1.139,0.053,2.393,0.648,3.531c1.112,2.128,3.251,3.148,4.869,2.323
														l11.877-6.13C1090.356,1201.202,1090.387,1201.179,1090.415,1201.152z"/>
												</g>
											</g>
										</g>
									</g>
								</g>
							</g>
						</g>
					</g>
				</g>
			</g>
			<g>
				<g>
					<g>
						<g>
							<g>
								<g>
									<g>
										<g>
											<g>
												<g>
													<path style="fill:#F07162;" d="M1097.077,1214.571c0.189-0.175,0.225-0.531,0.07-0.851
														c-0.174-0.361-0.525-0.539-0.782-0.399l-11.452,6.254c-1.122,0.586-2.442-0.008-3.204-1.447
														c-0.411-0.776-0.573-1.633-0.457-2.413c0.116-0.781,0.491-1.374,1.06-1.672l12.161-6.346
														c0.26-0.134,0.333-0.54,0.161-0.903c-0.17-0.363-0.519-0.547-0.779-0.411l-12.161,6.346
														c-0.819,0.426-1.384,1.318-1.552,2.446c-0.17,1.142,0.067,2.396,0.667,3.529c1.118,2.113,3.106,3.03,4.728,2.184
														l11.458-6.257C1097.025,1214.612,1097.052,1214.593,1097.077,1214.571z"/>
												</g>
											</g>
										</g>
									</g>
								</g>
							</g>
						</g>
					</g>
				</g>
			</g>
			<g>
				<g>
					<g>
						<g>
							<g>
								<g>
									<g>
										<g>
											<g>
												<path style="fill:#FCAF90;" d="M1098.929,1217.032c0.968,2.024,0.74,4.11,0.412,4.288l-10.96,5.946
													c-1.232,0.668-2.933-0.051-3.841-1.731c-0.994-1.84-0.682-3.988,0.646-4.708l11.24-6.097
													C1096.426,1214.73,1097.961,1215.008,1098.929,1217.032z"/>
											</g>
										</g>
									</g>
								</g>
							</g>
						</g>
					</g>
				</g>
			</g>
			<g>
				<g>
					<g>
						<g>
							<g>
								<g>
									<g>
										<g>
											<g>
												<g>
													<path style="fill:#F07162;" d="M1099.428,1221.511c0.189-0.174,0.225-0.529,0.071-0.849
														c-0.173-0.361-0.523-0.541-0.781-0.401l-10.961,5.945c-1.014,0.551-2.367-0.051-3.081-1.371
														c-0.382-0.707-0.538-1.492-0.438-2.211c0.099-0.719,0.437-1.269,0.954-1.549l11.24-6.097
														c0.255-0.137,0.326-0.546,0.152-0.907c-0.173-0.361-0.523-0.541-0.781-0.401l-11.24,6.097
														c-0.765,0.415-1.289,1.265-1.436,2.332c-0.149,1.082,0.085,2.263,0.659,3.326c1.074,1.989,3.095,2.906,4.601,2.089
														l10.961-5.945C1099.376,1221.553,1099.403,1221.534,1099.428,1221.511z"/>
												</g>
											</g>
										</g>
									</g>
								</g>
							</g>
						</g>
					</g>
				</g>
			</g>
		</g>
		<g>
			<g>
				<g>
					<g>
						<g>
							<path style="fill:#FE9F73;" d="M787.842,1109.761c-13.507-2.714-27.226,5.414-27.226,5.414s-4.151,8.436-4.535,9.408
								c-0.384,0.972,5.514-2.847,5.514-2.847l42.074,11.682l-1.033-7.732C801.58,1117.779,795.663,1111.333,787.842,1109.761z"/>
						</g>
					</g>
				</g>
			</g>
			<g>
				<g>
					<g>
						<g>
							<g>
								<g>
									<g>
										<path style="fill:#FCAF90;" d="M763.074,1157.776l1.725,10.21c0,0-0.125,21.264,1.43,25.503
											c1.554,4.24,9.032,12.135,20.683,10.579c3.674-0.491,6.829-1.551,9.428-2.772c5.315-2.498,8.031-8.492,6.552-14.175
											l-3.979-15.29c10-2.818,7.958-14.404,7.958-14.404l-4.355-32.609l-43.424-6.963L763.074,1157.776z"/>
									</g>
								</g>
							</g>
						</g>
					</g>
				</g>
			</g>
			<g>
				<g>
					<g>
						<g>
							<g>
								<g>
									<g>
										<path style="fill:#4C222E;" d="M776.143,1142.572c-0.145,0.228-0.078,0.531,0.149,0.676
											c0.111,0.071,0.24,0.091,0.359,0.068c0.126-0.025,0.242-0.1,0.317-0.217c0.194-0.304,4.828-7.4,11.037-4.158
											c0.24,0.126,0.536,0.033,0.661-0.208c0.125-0.24,0.032-0.536-0.207-0.661
											C781.452,1134.413,776.195,1142.489,776.143,1142.572z"/>
									</g>
								</g>
							</g>
						</g>
					</g>
				</g>
			</g>
			<g>
				<g>
					<g>
						<g>
							<g>
								<g>
									<g>
										<path style="fill:#4C222E;" d="M797.071,1134.103c-0.242,0.121-0.339,0.415-0.219,0.657
											c0.066,0.132,0.184,0.222,0.317,0.255c0.11,0.028,0.231,0.018,0.34-0.037c0.05-0.025,4.992-2.457,6.744,0.037
											c0.156,0.222,0.461,0.276,0.682,0.119c0.221-0.155,0.274-0.461,0.119-0.682
											C802.819,1131.269,797.304,1133.986,797.071,1134.103z"/>
									</g>
								</g>
							</g>
						</g>
					</g>
				</g>
			</g>
			<g>
				<g>
					<g>
						<g>
							<g>
								<g>
									<g>
										<path d="M784.868,1143.338c-0.804,0.108-1.369,0.847-1.262,1.651c0.107,0.804,0.847,1.369,1.651,1.262
											c0.804-0.108,1.369-0.847,1.262-1.651C786.411,1143.795,785.672,1143.23,784.868,1143.338z"/>
									</g>
								</g>
							</g>
						</g>
					</g>
				</g>
			</g>
			<g>
				<g>
					<g>
						<g>
							<g>
								<g>
									<g>
										<path d="M800.154,1139.814c-0.804,0.107-1.369,0.847-1.262,1.651c0.107,0.804,0.846,1.369,1.651,1.262
											c0.804-0.107,1.369-0.847,1.262-1.651C801.697,1140.271,800.958,1139.707,800.154,1139.814z"/>
									</g>
								</g>
							</g>
						</g>
					</g>
				</g>
			</g>
			<g>
				<g>
					<g>
						<g>
							<g>
								<g>
									<g>
										<path style="fill:#33192C;" d="M760.548,1114.667c0,0-12.411,1.055-14.099,12.26c-1.688,11.206,4.406,16.197,4.943,19.399
											c0.537,3.202,1.252,25.177,16.259,21.526l-0.672-36.365l-7.203-13.552L760.548,1114.667z"/>
									</g>
								</g>
							</g>
						</g>
					</g>
				</g>
			</g>
			<g>
				<g>
					<g>
						<g>
							<g>
								<g>
									<g>
										<path style="fill:#FCAF90;" d="M764.517,1138.129c-4.826,0.644-8.216,5.079-7.571,9.905
											c0.644,4.826,5.079,8.216,9.905,7.571c4.826-0.645,8.216-5.079,7.571-9.905
											C773.778,1140.874,769.343,1137.485,764.517,1138.129z"/>
									</g>
								</g>
							</g>
						</g>
					</g>
				</g>
			</g>
			<g>
				<g>
					<g>
						<g>
							<g>
								<g>
									<g>
										<path style="fill:#F07162;" d="M765.539,1143.036c-2.05-0.793-4.209,0.241-4.3,0.285c-0.121,0.06-0.172,0.206-0.112,0.327
											c0.059,0.122,0.206,0.173,0.327,0.113c0.021-0.01,2.064-0.986,3.912-0.268c0.854,0.331,1.542,0.974,2.051,1.916
											c-0.978-0.471-2.835-1.008-4.61,0.452c-1.201,0.988-1.533,2.627-0.846,4.177c0.581,1.31,1.976,2.513,3.791,2.27
											c0.017-0.002,0.034-0.005,0.051-0.007c0.134-0.02,0.226-0.145,0.207-0.278c-0.02-0.133-0.142-0.225-0.275-0.207
											c-0.018,0.001-0.034,0.005-0.05,0.007c-1.669,0.223-2.807-0.925-3.277-1.984c-0.453-1.02-0.538-2.574,0.709-3.6
											c2.253-1.852,4.601-0.109,4.7-0.033l0.7,0.532l-0.324-0.817C767.616,1144.465,766.722,1143.493,765.539,1143.036z"/>
									</g>
								</g>
							</g>
						</g>
					</g>
				</g>
			</g>
			<g>
				<g>
					<g>
						<g>
							<g>
								<g>
									<g>
										<path style="fill:#F07162;" d="M773.956,1165.088c0,0,3.288,19.41,27.891,18.019l-2.935-11.278
											C798.912,1171.83,783.541,1177.113,773.956,1165.088z"/>
									</g>
								</g>
							</g>
						</g>
					</g>
				</g>
			</g>
			<g>
				<g>
					<g>
						<g>
							<g>
								<g>
									<g>
										<path style="fill:#F07162;" d="M794.585,1139.469c-0.13,0.035-0.207,0.17-0.172,0.3l3.067,11.246l-4.651,2.259
											c-0.122,0.059-0.172,0.205-0.113,0.327c0.047,0.098,0.151,0.149,0.253,0.136c0.025-0.004,0.051-0.011,0.075-0.023
											l5.017-2.436l-3.174-11.638C794.85,1139.51,794.716,1139.43,794.585,1139.469z"/>
									</g>
								</g>
							</g>
						</g>
					</g>
				</g>
			</g>
			<g>
				<g>
					<g>
						<g>
							<path style="fill:#33192C;" d="M797.358,1107.779c0,0-0.015-12.573-10.736-7.415c-10.721,5.158-31.553,7.452-36.005,18.621
								c-4.452,11.169,16.43,13.01,16.43,13.01s36.815-7.154,37.942-16.154C806.116,1106.843,797.358,1107.779,797.358,1107.779z"/>
						</g>
					</g>
				</g>
			</g>
			<g>
				<g>
					<g>
						<path style="fill:#33192C;" d="M763.98,1125.726c-0.368,0.25-7.333,5.068-6.366,4.769c0.967-0.299,8.414-0.722,8.414-0.722
							l1.068,8.012c0,0,3.735,4.299,3.504,10.423c0,0,2.382,0.531,2.526-1.398c0.144-1.928-3.965-14.642,0.26-17.618
							S764.348,1125.476,763.98,1125.726z"/>
					</g>
				</g>
			</g>
			<g>
				<g>
					<g>
						<g>
							<g>
								<path style="fill:#FBFDFC;" d="M792.141,1157.668c0.132-0.061,8.831-2.431,8.831-2.431s-0.203,3.891-3.434,4.78
									C794.307,1160.907,792.141,1157.668,792.141,1157.668z"/>
							</g>
						</g>
					</g>
				</g>
			</g>
		</g>
		<g>
			<g>
				<g>
					<g>
						<g>
							<path style="fill:#FCAF90;" d="M646.331,1478.847c-0.938-0.995-3.674-1.084-5.892-0.629
								c-22.291-2.365-25.448-6.196-31.517-6.28l-0.035,4.756l-0.158,22.853c0.03,6.913-1.199,13.774-3.625,20.248l-0.609,1.626
								c-0.766,2.043,0.341,4.329,2.463,4.971c1.936,0.586,3.986-0.532,4.696-2.426l4.419-11.788c0.139-0.37,0.497-0.61,0.891-0.598
								c0.581,0.017,1.002,0.562,0.872,1.129l-4.161,18.12c-0.477,2.076,0.875,3.826,3.004,3.889
								c2.129,0.063,4.261-1.585,4.738-3.661l4.243-18.478c0.099-0.429,0.486-0.729,0.926-0.716l0.311,0.009
								c0.51,0.015,0.91,0.44,0.895,0.949l-0.619,21.02c-0.06,2.022,1.415,3.833,3.429,4.023c2.207,0.208,4.097-1.489,4.161-3.669
								l0.622-21.15c0.015-0.509,0.44-0.91,0.949-0.895l0.988,0.029c0.463,0.014,0.844,0.368,0.891,0.829l1.98,19.559
								c0.204,2.013,1.901,3.616,3.923,3.543c2.215-0.081,3.869-2.009,3.649-4.179c0,0-1.418-29.987-1.258-34.692l8.891,6.446
								c1.439,1.526,3.843,1.597,5.37,0.158l0,0c1.526-1.439,1.597-3.843,0.158-5.37L646.331,1478.847z"/>
						</g>
					</g>
				</g>
			</g>
			<g>
				<g>
					<path style="fill:#FCAF90;" d="M608.838,1483.826l39.413-2.398l7.968-54.415l-45.207-2.068
						C609.602,1455.154,608.838,1483.826,608.838,1483.826z"/>
				</g>
			</g>
		</g>
		<g>
			<g>
				<g>
					<g>
						<g>
							<g>
								<g>
									<g>
										<g>
											<g>
												<polygon style="fill:#FE9F73;" points="814.159,1812.556 814.869,1860.48 859.988,1859.849 859.093,1806.301 
																									"/>
											</g>
										</g>
									</g>
								</g>
							</g>
						</g>
					</g>
				</g>
			</g>
			<g>
				<g>
					<g>
						<g>
							<g>
								<g>
									<g>
										<g>
											<g>
												<polygon style="fill:#FE9F73;" points="662.912,1838.223 708.072,1847.322 718.499,1794.791 672.335,1791.23 
																									"/>
											</g>
										</g>
									</g>
								</g>
							</g>
						</g>
					</g>
				</g>
			</g>
			<g>
				<g>
					<g>
						<g>
							<g>
								<g>
									<g>
										<path style="fill:#4C1B43;" d="M874.015,1418.29c-1.612-10.491-10.2-17.044-20.108-13.237l-62.065,23.841
											c-6.622,2.544-10.904,8.995-10.663,16.085c1.682,49.489,9.001,243.079,24.388,369.737
											c1.014,8.349,8.09,14.648,16.5,14.626c9.31-0.025,22.26-1.135,36.61-5.516c6.936-2.118,11.751-8.426,11.869-15.677
											l5.557-378.893c0.015-0.936-3.513-7.429-3.655-8.354L874.015,1418.29z"/>
									</g>
								</g>
							</g>
						</g>
					</g>
				</g>
			</g>
			<g>
				<g>
					<g>
						<g>
							<g>
								<g>
									<g>
										<path style="fill:#5B2750;" d="M701.171,1629.431c-7.706,60.204-29.73,122.731-33.292,175.177
											c-0.472,6.953,4.208,13.173,11.012,14.685c9.63,2.141,24.477,4.159,41.831,2.123c5.886-0.69,10.717-4.994,12.061-10.766
											l48.387-165.947l29.321-167.784l31.436-91.244l-126.039,36.988C715.888,1422.663,715.051,1520.99,701.171,1629.431z"/>
									</g>
								</g>
							</g>
						</g>
					</g>
				</g>
			</g>
			<g>
				<g>
					<path d="M803.158,1518.884c-0.388-0.062-0.756,0.191-0.824,0.579l-21.859,125.08l-46.624,159.9
						c-0.11,0.377,0.106,0.773,0.484,0.883c0.067,0.019,0.134,0.028,0.2,0.028c0.308,0,0.592-0.202,0.683-0.512l46.635-159.938
						l0.011-0.038l21.872-125.158C803.804,1519.32,803.545,1518.952,803.158,1518.884z"/>
				</g>
			</g>
			<g>
				<path d="M714.077,1480.844c-0.392-0.04-0.738,0.259-0.77,0.653l-10.698,129.844c-0.054,0.661-0.092,1.122-0.093,1.446
					c-0.001,0.002-0.001,0.004-0.001,0.004l0.001,0.003h-0.002c-0.08,0.333-0.162,0.827-0.281,1.548
					c-4.122,24.99-11.835,70.359-17.164,93.449c-0.088,0.385,0.151,0.768,0.535,0.856c0.054,0.013,0.108,0.019,0.161,0.019
					c0.325,0,0.619-0.223,0.695-0.553c5.338-23.129,13.056-68.532,17.181-93.538c0.062-0.373,0.113-0.682,0.153-0.926l0.036,0.003
					l0.08-0.698c0.002-0.015,0.003-0.031,0.004-0.045c0.117-1.566,10.709-129.994,10.816-131.295
					C714.763,1481.22,714.47,1480.875,714.077,1480.844z"/>
			</g>
			<g>
				<path d="M875.841,1481.98c-0.418-0.019-0.719,0.309-0.726,0.703l-5.071,312.381c-0.007,0.394,0.308,0.719,0.702,0.725
					c0.004,0,0.008,0,0.012,0c0.389,0,0.707-0.312,0.714-0.703l5.071-312.381C876.55,1482.311,876.235,1481.986,875.841,1481.98z"/>
			</g>
			<g>
				<g>
					<path style="fill:#F7AB48;" d="M905.108,1866.206h-6.32l-29.342-17.475l-16.042,17.475h-39.568
						c-0.988,0-1.788,0.801-1.788,1.788v5.994c0,0.676,0.548,1.224,1.224,1.224h92.003c2.779,0,4.97-2.517,4.417-5.395
						C909.282,1867.679,907.286,1866.206,905.108,1866.206z"/>
				</g>
			</g>
			<g>
				<g>
					<path style="fill:#33192C;" d="M893.465,1858.237l-33.594-14.902c-13.528,13.174-28.874,2.288-28.874,2.288
						c-10.146-4.578-16.81,4.391-16.81,4.391v16.242h90.983C902.676,1861.316,893.465,1858.237,893.465,1858.237z"/>
				</g>
			</g>
			<g>
				<g>
					<g>
						<g>
							<rect x="813.85" y="1850.015" width="0.674" height="16.162"/>
						</g>
					</g>
				</g>
			</g>
			<g>
				<g>
					<g>
						<g>
							<path d="M831.187,1845.346l-0.382,0.555c5.403,3.718,11.006,4.291,13.945,4.291c1.286,0,2.061-0.11,2.086-0.114l-0.1-0.666
								C846.658,1849.422,838.728,1850.535,831.187,1845.346z"/>
						</g>
					</g>
				</g>
			</g>
			<g>
				<g>
					<g>
						<g>
							
								<rect x="820.069" y="1858.909" transform="matrix(0.5591 -0.8291 0.8291 0.5591 -1181.6689 1501.0345)" width="0.674" height="5.176"/>
						</g>
					</g>
				</g>
			</g>
			<g>
				<g>
					<g>
						<g>
							
								<rect x="823.146" y="1858.091" transform="matrix(0.5591 -0.8291 0.8291 0.5591 -1179.6143 1503.1171)" width="0.673" height="5.175"/>
						</g>
					</g>
				</g>
			</g>
			<g>
				<g>
					<g>
						<g>
							<g>
								<g>
									<g>
										<g>
											<g>
												<g>
													<path d="M905.275,1865.9h-90.969c-1.431,0-2.595,1.164-2.595,2.595v4.49h0.674v-4.49c0-1.06,0.862-1.921,1.921-1.921
														h90.969c2.297,0,4.166,1.869,4.166,4.166c0,1.226-0.536,2.384-1.471,3.178l0.435,0.513
														c1.086-0.921,1.71-2.267,1.71-3.691C910.115,1868.071,907.944,1865.9,905.275,1865.9z"/>
												</g>
											</g>
										</g>
									</g>
								</g>
							</g>
						</g>
					</g>
				</g>
			</g>
			<g>
				<g>
					<g>
						<g>
							<path d="M896.785,1859.224c-6.757-2.882-36.479-16.064-36.778-16.197l-0.274,0.616c0.3,0.133,30.026,13.317,36.787,16.201
								c6.617,2.822,8.433,6.499,8.45,6.536l0.609-0.287C905.505,1865.933,903.662,1862.157,896.785,1859.224z"/>
						</g>
					</g>
				</g>
			</g>
			<g>
				<g>
					<path style="fill:#F7AB48;" d="M748.466,1866.339l-6.073-1.748l-23.363-24.909l-20.25,12.355l-38.024-10.945
						c-0.949-0.273-1.94,0.275-2.213,1.224l-1.658,5.76c-0.187,0.65,0.188,1.328,0.838,1.515l88.413,25.448
						c2.67,0.768,5.472-1.044,5.737-3.962C752.07,1868.909,750.559,1866.941,748.466,1866.339z"/>
				</g>
			</g>
			<g>
				<g>
					<path style="fill:#33192C;" d="M739.481,1855.46l-28.161-23.613c-16.644,8.918-28.38-5.788-28.38-5.788
						c-8.484-7.206-17.369-0.43-17.369-0.43l-4.493,15.608l87.434,25.167C747.482,1860.967,739.481,1855.46,739.481,1855.46z"/>
				</g>
			</g>
			<g>
				<g>
					<g>
						<g>
							
								<rect x="655.255" y="1833.059" transform="matrix(0.2768 -0.9609 0.9609 0.2768 -1282.0358 1963.33)" width="16.161" height="0.674"/>
						</g>
					</g>
				</g>
			</g>
			<g>
				<g>
					<g>
						<g>
							<path d="M683.199,1825.846l-0.52,0.428c4.164,5.067,9.39,7.167,12.214,7.98c1.236,0.356,2.011,0.464,2.036,0.468l0.088-0.667
								C696.939,1834.042,689.01,1832.918,683.199,1825.846z"/>
						</g>
					</g>
				</g>
			</g>
			<g>
				<g>
					<g>
						<g>
							
								<rect x="668.034" y="1835.797" transform="matrix(0.7666 -0.6421 0.6421 0.7666 -1024.4791 858.2643)" width="0.674" height="5.176"/>
						</g>
					</g>
				</g>
			</g>
			<g>
				<g>
					<g>
						<g>
							
								<rect x="671.218" y="1835.862" transform="matrix(0.7666 -0.6421 0.6421 0.7666 -1023.7295 860.2402)" width="0.673" height="5.175"/>
						</g>
					</g>
				</g>
			</g>
			<g>
				<g>
					<g>
						<g>
							<g>
								<g>
									<g>
										<g>
											<g>
												<g>
													<path d="M748.712,1866.091l-87.42-25.162c-1.375-0.396-2.815,0.401-3.211,1.776l-1.242,4.315l0.647,0.187l1.242-4.315
														c0.293-1.018,1.359-1.608,2.377-1.315l87.42,25.163c2.208,0.635,3.487,2.948,2.851,5.156
														c-0.339,1.178-1.175,2.142-2.293,2.647l0.277,0.614c1.299-0.585,2.27-1.705,2.663-3.074
														C752.762,1869.516,751.276,1866.829,748.712,1866.091z"/>
												</g>
											</g>
										</g>
									</g>
								</g>
							</g>
						</g>
					</g>
				</g>
			</g>
			<g>
				<g>
					<g>
						<g>
							<path d="M742.399,1857.328c-5.697-4.638-30.612-25.527-30.863-25.738l-0.433,0.516c0.252,0.21,25.171,21.103,30.871,25.744
								c5.578,4.542,6.306,8.578,6.312,8.618l0.665-0.108C748.923,1866.186,748.196,1862.048,742.399,1857.328z"/>
						</g>
					</g>
				</g>
			</g>
		</g>
		<g>
			<path style="fill:#4693AA;" d="M935.885,1261.02l-96.105-68.536l-32.782,94.549c0,0,105.194,57.145,135.595,51.422
				c30.401-5.723,133.755-83.765,133.755-83.765c-10.631-28.603-32.816-48.91-32.816-48.91L935.885,1261.02z"/>
		</g>
		<g>
			<path style="fill:#52B6C6;" d="M820.586,1185.447c-27.343-2.114-69.271-3.819-87.14,3.507
				c-27.599,11.317-121.107,127.728-125.05,148.582c-3.944,20.854-8.403,131.869-8.403,131.869s11.337,8.64,60.127,3.546
				c0,0,16.292-99.252,22.302-109.127s26.307-46.05,26.307-46.05l6.391,156.377c0,0,89.373,15.814,170.565-22.03l-33.87-120.604
				c0,0,6.96-85.291,2.509-117.911C852.142,1197.607,836.683,1186.691,820.586,1185.447z"/>
		</g>
		<g>
			<path d="M1043.609,1205.127l-108.25,55.551l-0.978,17.831c-0.016,0.3,0.214,0.557,0.514,0.574c0.3,0.015,0.557-0.214,0.573-0.514
				l0.944-17.207l107.037-54.928c2.61,2.34,23.147,21.371,32.383,48.432c0.088,0.26,0.354,0.409,0.616,0.359
				c0.025-0.005,0.051-0.012,0.075-0.02c0.285-0.097,0.437-0.407,0.34-0.691c-9.922-29.069-32.747-48.949-32.977-49.147
				L1043.609,1205.127z"/>
		</g>
		<g>
			<path d="M869.713,1213.161c-0.245-0.175-0.585-0.117-0.76,0.127c-0.174,0.245-0.118,0.585,0.127,0.76l66.488,47.416
				c0.126,0.09,0.276,0.118,0.417,0.092c0.133-0.025,0.258-0.1,0.343-0.219c0.175-0.245,0.118-0.585-0.127-0.76L869.713,1213.161z"
				/>
		</g>
		<g>
			<path d="M725.196,1288.222l-43.245,75.329l-0.053,0.126c-0.182,0.659-18.233,66.185-22.278,108.779
				c-4.605,0.487-43.959,4.361-59.378-3.537c-0.268-0.137-0.596-0.031-0.733,0.236c-0.137,0.267-0.031,0.596,0.236,0.733
				c16.6,8.503,58.656,3.806,60.438,3.602l0.44-0.05l0.041-0.44c3.896-41.889,21.595-106.527,22.267-108.967l43.21-75.27
				c0.15-0.261,0.06-0.594-0.201-0.744C725.678,1287.871,725.345,1287.961,725.196,1288.222z"/>
		</g>
		<g>
			<path d="M708.708,1317.229c-0.298,0.011-0.535,0.266-0.522,0.567l3.601,88.099c0.012,0.301,0.266,0.535,0.567,0.522
				c0.027-0.001,0.053-0.004,0.079-0.009c0.261-0.049,0.454-0.284,0.443-0.557l-3.601-88.099
				C709.262,1317.45,709.009,1317.216,708.708,1317.229z"/>
		</g>
		<g>
			<path d="M727.273,1191.782c-0.353,0.262-35.978,27.109-95.718,106.193c-0.181,0.24-0.134,0.582,0.106,0.763
				c0.128,0.096,0.284,0.128,0.429,0.1c0.128-0.024,0.249-0.094,0.334-0.207c59.627-78.934,95.146-105.714,95.498-105.975
				c0.242-0.179,0.292-0.521,0.113-0.762C727.855,1191.654,727.515,1191.603,727.273,1191.782z"/>
		</g>
		<g>
			<path style="fill:#FCAF90;" d="M787.86,1204.488c22.964-1.617,30.448-18.946,30.448-18.946s-29.639-4.844-67.191-0.566
				C751.116,1184.976,764.896,1206.105,787.86,1204.488z"/>
		</g>
	</g>
	<g>
		<g>
			<g>
				<g>
					<g>
						<g>
							<g>
								<path style="fill:#49263E;" d="M1212.262,636.016l-2.36,1.772l-0.885-1.181c-3.25-4.329-6.439-8.822-9.477-13.353
									l-0.822-1.225l2.451-1.644l0.822,1.225c3.009,4.488,6.167,8.938,9.386,13.227L1212.262,636.016z M1194.079,609.176
									l-2.536,1.509l-0.754-1.269c-2.812-4.724-5.493-9.537-7.969-14.303l-0.68-1.309l2.619-1.361l0.68,1.309
									c2.45,4.716,5.104,9.478,7.886,14.155L1194.079,609.176z M1324.737,458.218c-0.002,0.002-0.004,0.004-0.006,0.006
									c-1.729,1.688-3.675,3.263-5.782,4.679l-1.224,0.823l-1.646-2.449l1.224-0.823c1.96-1.318,3.766-2.778,5.367-4.342
									c0.002-0.002,0.004-0.004,0.006-0.006c2.104-2.054,3.913-4.343,5.375-6.802l0.754-1.268l2.536,1.509l-0.754,1.268
									C1328.994,453.492,1327.025,455.984,1324.737,458.218z M1305.038,469.413l-1.452,0.264
									c-5.44,0.987-11.045-0.031-16.66-3.026l-1.302-0.694l1.388-2.604l1.302,0.694c5.014,2.675,9.975,3.592,14.745,2.727
									l1.452-0.264L1305.038,469.413z M1335.489,436.268l-2.94-0.254l0.127-1.47c0.428-4.957-0.059-10.218-1.45-15.636
									l-0.366-1.429l2.859-0.733l0.368,1.428c1.473,5.741,1.988,11.334,1.53,16.626L1335.489,436.268z M1179.018,580.51
									l-2.698,1.193l-0.597-1.35c-2.244-5.075-4.298-10.192-6.107-15.207l-0.501-1.388l2.776-1.001l0.501,1.388
									c1.785,4.951,3.813,10.003,6.029,15.015L1179.018,580.51z M1277.247,455.161l-2.233,1.929l-0.965-1.116
									c-3.388-3.922-6.51-8.543-9.277-13.734l-0.694-1.302l2.604-1.388l0.694,1.302c2.664,4.998,5.661,9.436,8.906,13.193
									L1277.247,455.161z M1328.617,404.052l-2.588,1.419l-0.708-1.295c-2.518-4.594-5.586-8.992-9.12-13.071l-0.966-1.115
									l2.23-1.932l0.966,1.115c3.671,4.238,6.859,8.808,9.477,13.586L1328.617,404.052z M1167.878,550.166l-2.845,0.784
									l-0.391-1.424c-1.473-5.351-2.709-10.73-3.674-15.988l-0.267-1.451l2.903-0.533l0.266,1.451
									c0.951,5.175,2.167,10.47,3.617,15.739L1167.878,550.166z M1261.534,427.524l-2.795,0.947l-0.473-1.398
									c-1.715-5.061-3.124-10.419-4.191-15.925l-0.281-1.449l2.896-0.56l0.281,1.449c1.042,5.376,2.417,10.604,4.088,15.54
									L1261.534,427.524z M1305.751,381.082l-1.177-0.89c-1.672-1.267-3.4-2.466-5.136-3.563
									c-2.745-1.735-5.619-3.233-8.544-4.453l-1.361-0.567l1.135-2.723l1.362,0.568c3.077,1.283,6.101,2.858,8.985,4.682
									c1.805,1.141,3.602,2.386,5.342,3.703l1.176,0.891L1305.751,381.082z M1161.84,518.491l-2.94,0.25l-0.126-1.469
									c-0.468-5.508-0.648-11.031-0.535-16.415l0.03-1.475l2.95,0.062l-0.031,1.475c-0.111,5.28,0.066,10.698,0.526,16.101
									L1161.84,518.491z M1254.993,396.101l-2.944,0.209l-0.104-1.472c-0.382-5.388-0.46-10.918-0.234-16.433l0.061-1.474
									l2.949,0.12l-0.06,1.475c-0.223,5.407-0.145,10.824,0.228,16.105L1254.993,396.101z M1162.239,486.33l-2.924-0.396
									l0.198-1.462c0.737-5.431,1.801-10.856,3.163-16.126l0.369-1.429l2.856,0.739l-0.369,1.429
									c-1.333,5.157-2.373,10.467-3.094,15.783L1162.239,486.33z M1277.067,368.406l-1.466-0.161
									c-5.122-0.562-10.452-0.434-15.841,0.381l-1.459,0.22l-0.441-2.917l1.459-0.221c5.641-0.852,11.227-0.986,16.603-0.397
									l1.466,0.161L1277.067,368.406z M1169.939,455.144l-2.754-1.061l0.53-1.376c1.961-5.089,4.196-10.14,6.644-15.014
									l0.662-1.319l2.638,1.324l-0.662,1.318c-2.406,4.79-4.601,9.752-6.527,14.751L1169.939,455.144z M1255.958,363.94
									l-2.919-0.43l0.214-1.46c0.788-5.348,1.866-10.766,3.204-16.1l0.359-1.432l2.862,0.719l-0.359,1.431
									c-1.315,5.241-2.373,10.561-3.146,15.813L1255.958,363.94z M1245.743,372.205l-1.379,0.524
									c-4.805,1.823-9.652,4.173-14.403,6.981l-1.271,0.75l-1.501-2.54l1.27-0.751c4.897-2.894,9.895-5.315,14.858-7.2l1.38-0.523
									L1245.743,372.205z M1184.146,426.219l-2.494-1.577l0.788-1.247c2.94-4.651,6.127-9.167,9.469-13.423l0.911-1.16
									l2.321,1.822l-0.912,1.161c-3.28,4.177-6.407,8.61-9.295,13.177L1184.146,426.219z M1217.917,387.939l-1.152,0.922
									c-4.085,3.268-8.094,6.904-11.918,10.813l-1.031,1.054l-2.109-2.064l1.033-1.055c3.895-3.986,8.004-7.71,12.183-11.053
									l1.152-0.922L1217.917,387.939z M1263.519,332.649l-2.765-1.031l0.516-1.383c1.88-5.034,4.141-10.086,6.722-15.018
									l0.684-1.307l2.615,1.368l-0.685,1.308c-2.523,4.822-4.734,9.762-6.571,14.681L1263.519,332.649z M1365.403,229.004
									l-1.294,0.711c-4.715,2.587-9.427,5.331-14.006,8.154l-1.255,0.775l-1.55-2.511l1.256-0.774
									c4.621-2.851,9.377-5.619,14.137-8.231l1.293-0.709L1365.403,229.004z M1337.749,245.891l-1.214,0.84
									c-4.492,3.107-8.884,6.331-13.056,9.584l-1.163,0.907l-1.814-2.327l1.164-0.908c4.214-3.286,8.653-6.545,13.192-9.684
									l1.213-0.839L1337.749,245.891z M1278.047,303.983l-2.447-1.648l0.825-1.224c2.974-4.416,6.283-8.84,9.831-13.149
									l0.938-1.139l2.278,1.875l-0.938,1.139c-3.49,4.237-6.74,8.584-9.662,12.922L1278.047,303.983z M1312.136,265.681
									l-1.104,0.98c-4.087,3.629-7.966,7.322-11.706,11.158l-1.029,1.056l-2.113-2.059l1.03-1.057
									c3.783-3.885,7.717-7.629,11.86-11.306l1.102-0.979L1312.136,265.681z"/>
							</g>
						</g>
					</g>
				</g>
			</g>
		</g>
	</g>
	<g>
		<g>
			<g>
				<g>
					<g>
						<g>
							<path style="fill:#EF9D43;" d="M1382.535,243.517l9.208-15.903c0,0,57.595-17.878,58.337-18.454
								c0.742-0.576,28.023-21.665,28.023-21.665l-38.444,5.22l-60.391,21.08L1382.535,243.517z"/>
						</g>
					</g>
				</g>
			</g>
		</g>
		<g>
			<g>
				<g>
					<g>
						<g>
							<polygon style="fill:#FEC786;" points="1359.247,186.134 1478.103,187.495 1379.268,213.796 							"/>
						</g>
					</g>
				</g>
			</g>
		</g>
		<g>
			<g>
				<g>
					<g>
						<g>
							<polygon style="fill:#FEC786;" points="1391.743,227.614 1412.838,257.112 1478.103,187.495 							"/>
						</g>
					</g>
				</g>
			</g>
		</g>
	</g>
	<g>
		<g>
			<g>
				<path style="fill:#FFFFFF;" d="M2115.953,426.602c24.462-1.401,81.807-3.846,131.659,0.358
					c20.625,1.74,38.432-14.736,37.969-35.429c-0.19-8.469-3.228-18.322-11.089-29.486c-30.268-42.988-82.882-1.935-82.376,19.887
					c0,0-10.637-32.858-42.943-27.105c-32.306,5.752-20.881,53.538-20.881,53.538s-10.425-2.203-17.652,2.73
					C2103.532,415.946,2107.363,427.094,2115.953,426.602z"/>
			</g>
		</g>
	</g>
	<g>
		<g>
			<g>
				<path style="fill:#FFFFFF;" d="M513.04,775.764c21.6-1.237,72.237-3.396,116.257,0.316
					c18.212,1.536,33.936-13.012,33.527-31.284c-0.168-7.479-2.85-16.179-9.792-26.037c-26.727-37.959-73.186-1.708-72.74,17.56
					c0,0-9.392-29.014-37.919-23.935c-28.527,5.079-18.439,47.275-18.439,47.275s-9.206-1.945-15.587,2.411
					C502.072,766.355,505.455,776.198,513.04,775.764z"/>
			</g>
		</g>
	</g>
	<g>
		<path style="fill:#FFFFFF;" d="M2599.186,967.841c-1.163-3.898-0.75-8.357,1.968-12.073c4.914-6.72,13.844-12.421,29.853-13.405
			c0,0-17.312-76.906,49.775-84.976c68.939-8.293,72.501,72.764,72.501,72.764s39.075-43.002,60.377,9.389
			c0,0,42.054-21.219,62.255,4.252c6.047,7.625,5.027,17.843-0.171,24.049H2599.186z"/>
	</g>
	<g>
		<path style="fill:#FFFFFF;" d="M538.628,967.841c1.163-3.898,0.75-8.357-1.968-12.073c-4.914-6.72-13.844-12.421-29.853-13.405
			c0,0,17.311-76.906-49.775-84.976c-68.94-8.293-72.501,72.764-72.501,72.764s-39.075-43.002-60.377,9.389
			c0,0-42.054-21.219-62.255,4.252c-6.047,7.625-5.027,17.843,0.171,24.049H538.628z"/>
	</g>
	<rect x="367.673" y="1874.754" style="fill:#223749;" width="2410.078" height="9.147"/>
	<g>
		<g>
			<path style="fill:#F9956E;" d="M2477.338,1315.71c-1.755,1.122-4.371,0.811-5.814-0.692l-12.841-13.372
				c-0.298-0.311-0.774-0.367-1.137-0.135l-0.257,0.164c-0.42,0.268-0.542,0.826-0.274,1.246l11.077,17.325
				c1.066,1.667,0.738,3.926-0.856,5.098c-1.747,1.283-4.185,0.808-5.334-0.989l-11.146-17.432c-0.268-0.42-0.826-0.542-1.246-0.274
				l-0.815,0.521c-0.381,0.244-0.523,0.733-0.331,1.143l8.163,17.405c0.84,1.791,0.222,3.989-1.511,4.943
				c-1.899,1.045-4.255,0.258-5.161-1.674c0,0-13.872-25.872-16.369-29.739l-4.222,9.874c-0.441,2.003-2.422,3.27-4.426,2.83h0
				c-2.003-0.441-3.27-2.422-2.83-4.426l2.125-21.163l-83.46-82.035l-67.178,12.918c-19.369,3.725-37.751-10.031-39.608-29.668
				c-0.065-0.683-0.123-1.38-0.173-2.09c-0.031-0.432-0.056-0.86-0.076-1.285c-1.111-23.631-2.215-41.258,21.263-44.171
				c26.148-3.245,95.415-10.405,114.412,0.682c26.126,15.248,87.28,125.253,87.206,125.339l9.824,16.156
				c3.448,5.816,7.924,10.955,13.212,15.168l1.328,1.058c1.668,1.329,1.888,3.803,0.43,5.408c-1.33,1.464-3.612,1.556-5.159,0.323
				l-9.628-7.671c-0.302-0.24-0.723-0.262-1.048-0.055c-0.479,0.307-0.559,0.975-0.165,1.385l12.592,13.113
				C2479.349,1312.441,2479.093,1314.588,2477.338,1315.71z"/>
		</g>
		<g>
			<path style="fill:#223749;" d="M2418.289,1280.618c0,0,20.741-18.89,34.994-22.713l-7.779-13.504
				c0,0-23.437,13.722-36.993,26.606L2418.289,1280.618z"/>
		</g>
		<g>
			<g>
				<g>
					<g>
						<g>
							<g>
								<path style="fill:#FE9F73;" d="M2178.103,1066.309c13.041-10.906,32.706-10.183,32.706-10.183s9.473,6.698,10.463,7.524
									c0.989,0.827-7.655,0.165-7.655,0.165l-38.721,37.469l-3.439-8.991C2167.939,1083.1,2170.552,1072.625,2178.103,1066.309z"
									/>
							</g>
						</g>
					</g>
				</g>
			</g>
			<g>
				<g>
					<g>
						<g>
							<g>
								<g>
									<g>
										<g>
											<path style="fill:#FE9F73;" d="M2214.04,1058.131l19.221,45.624l4.15,12.085c0,0,12.672,22.977,13.487,28.489
												c0.815,5.512-2.636,18.48-16.184,23.662c-4.271,1.634-8.317,2.345-11.854,2.554c-7.234,0.425-13.713-4.47-15.46-11.503
												l-4.701-18.921c-12.502,2.842-17.12-10.922-17.12-10.922l-14.505-37.916L2214.04,1058.131z"/>
										</g>
									</g>
								</g>
							</g>
						</g>
					</g>
				</g>
			</g>
			<g>
				<g>
					<g>
						<g>
							<g>
								<g>
									<g>
										<g>
											<path style="fill:#4C222E;" d="M2209.108,1094.092c0.279,0.183,0.357,0.557,0.175,0.836
												c-0.089,0.136-0.223,0.225-0.37,0.258c-0.155,0.036-0.323,0.01-0.467-0.083c-0.372-0.243-9.184-5.877-14.526,0.918
												c-0.206,0.263-0.586,0.309-0.849,0.102c-0.262-0.206-0.308-0.586-0.102-0.848
												C2198.999,1087.605,2209.008,1094.026,2209.108,1094.092z"/>
										</g>
									</g>
								</g>
							</g>
						</g>
					</g>
				</g>
			</g>
			<g>
				<g>
					<g>
						<g>
							<g>
								<g>
									<g>
										<g>
											<path style="fill:#4C222E;" d="M2173.325,1102.393c0.163-4.798,7.694-5.71,8.014-5.746
												c0.332-0.038,0.631,0.2,0.669,0.532c0.021,0.181-0.041,0.353-0.155,0.478c-0.095,0.103-0.226,0.174-0.376,0.191
												c-0.068,0.008-6.816,0.828-6.944,4.586c-0.011,0.334-0.291,0.596-0.625,0.583
												C2173.575,1103.006,2173.314,1102.727,2173.325,1102.393z"/>
										</g>
									</g>
								</g>
							</g>
						</g>
					</g>
				</g>
			</g>
			<g>
				<g>
					<g>
						<g>
							<g>
								<g>
									<g>
										<g>
											<path d="M2201.124,1100.953c0.935-0.358,1.983,0.11,2.341,1.046c0.358,0.935-0.11,1.984-1.045,2.341
												c-0.935,0.358-1.983-0.11-2.341-1.046C2199.721,1102.359,2200.189,1101.311,2201.124,1100.953z"/>
										</g>
									</g>
								</g>
							</g>
						</g>
					</g>
				</g>
			</g>
			<g>
				<g>
					<g>
						<g>
							<g>
								<g>
									<g>
										<g>
											<path d="M2182.476,1106.146c0.935-0.358,1.984,0.11,2.341,1.045c0.358,0.935-0.11,1.984-1.046,2.341
												c-0.935,0.358-1.983-0.11-2.341-1.045C2181.073,1107.552,2181.541,1106.504,2182.476,1106.146z"/>
										</g>
									</g>
								</g>
							</g>
						</g>
					</g>
				</g>
			</g>
			<g>
				<g>
					<g>
						<g>
							<g>
								<g>
									<g>
										<g>
											<path style="fill:#33192C;" d="M2210.583,1055.535c0,0,14.076-6.175,22.512,4.978
												c8.436,11.152,4.774,20.155,6.079,23.943s13.487,28.03-4.933,32.92l-20.712-39.817l-0.182-18.937L2210.583,1055.535z"/>
										</g>
									</g>
								</g>
							</g>
						</g>
					</g>
				</g>
			</g>
			<g>
				<g>
					<g>
						<g>
							<g>
								<g>
									<g>
										<g>
											<path style="fill:#FE9F73;" d="M2220.113,1083.308c5.611-2.147,11.901,0.662,14.047,6.273
												c2.147,5.612-0.662,11.901-6.273,14.048c-5.612,2.147-11.901-0.662-14.047-6.273
												C2211.693,1091.744,2214.502,1085.455,2220.113,1083.308z"/>
										</g>
									</g>
								</g>
							</g>
						</g>
					</g>
				</g>
			</g>
			<g>
				<g>
					<g>
						<g>
							<g>
								<g>
									<g>
										<g>
											<path style="fill:#F07162;" d="M2221.898,1089.229c1.755-2.068,4.705-2.221,4.83-2.226
												c0.167-0.007,0.308,0.122,0.315,0.288c0.008,0.167-0.122,0.309-0.288,0.316c-0.028,0.001-2.818,0.148-4.398,2.016
												c-0.73,0.863-1.097,1.965-1.094,3.286c0.782-1.087,2.479-2.764,5.263-2.228c1.885,0.363,3.211,1.944,3.379,4.03
												c0.142,1.763-0.661,3.889-2.771,4.696c-0.02,0.007-0.04,0.015-0.06,0.022c-0.157,0.057-0.33-0.023-0.388-0.18
												c-0.057-0.156,0.022-0.327,0.176-0.386c0.02-0.009,0.039-0.014,0.059-0.022c1.94-0.742,2.497-2.658,2.382-4.082
												c-0.111-1.372-0.934-3.108-2.891-3.484c-3.533-0.679-5.051,2.594-5.114,2.735l-0.445,0.99l-0.13-1.077
												C2220.49,1092.003,2220.885,1090.423,2221.898,1089.229z"/>
										</g>
									</g>
								</g>
							</g>
						</g>
					</g>
				</g>
			</g>
			<g>
				<g>
					<g>
						<g>
							<g>
								<g>
									<g>
										<g>
											<path style="fill:#F07162;" d="M2225.777,1118.097c0,0,7.88,22.979-19.611,35.978l-3.468-13.956
												C2202.698,1140.119,2222.476,1136.783,2225.777,1118.097z"/>
										</g>
									</g>
								</g>
							</g>
						</g>
					</g>
				</g>
			</g>
			<g>
				<g>
					<g>
						<g>
							<g>
								<g>
									<g>
										<g>
											<path style="fill:#F07162;" d="M2188.31,1102.488c0.162-0.039,0.325,0.062,0.364,0.224l3.306,13.999l6.374-0.294
												c0.167-0.007,0.308,0.121,0.316,0.288c0.006,0.133-0.075,0.251-0.194,0.296c-0.029,0.011-0.061,0.018-0.094,0.02
												l-6.874,0.317l-3.422-14.487C2188.046,1102.689,2188.144,1102.523,2188.31,1102.488z"/>
										</g>
									</g>
								</g>
							</g>
						</g>
					</g>
				</g>
			</g>
			<g>
				<g>
					<g>
						<g>
							<g>
								<g>
									<polygon style="fill:#FE9F73;" points="2239.038,1118.833 2232.535,1121.952 2225.213,1102.813 2229.757,1100.472 
																			"/>
								</g>
							</g>
						</g>
					</g>
				</g>
			</g>
			<g>
				<g>
					<g>
						<g>
							<g>
								<path style="fill:#33192C;" d="M2166.619,1069.771c0,0-7.397-13.637,7.266-14.368c14.663-0.73,38.597-10.525,50.008-1.043
									c11.411,9.483-10.139,23.79-10.139,23.79s-44.126,13.95-50.654,4.86C2156.573,1073.92,2166.619,1069.771,2166.619,1069.771z
									"/>
							</g>
						</g>
					</g>
				</g>
			</g>
			<g>
				<g>
					<g>
						<g>
							<path style="fill:#33192C;" d="M2213.383,1069.546c0.547,0.054,10.937,1.17,9.713,1.416
								c-1.224,0.246-9.546,4.178-9.546,4.178l3.566,9.315c0,0-1.514,6.862,2.347,13.365c0,0-2.269,1.979-3.563-0.026
								c-1.293-2.005-4.335-18.21-10.669-18.945C2198.897,1078.114,2212.836,1069.492,2213.383,1069.546z"/>
						</g>
					</g>
				</g>
			</g>
		</g>
		<g>
			<path style="fill:#20111D;" d="M2090.753,1631.955l-34.26,95.167c0,0,24.05,10.353,53.986,33.568
				c25.005,19.392,12.977,77.344-78.902,113.681c0,0-38.759,1.903-53.639,0c-14.881-1.903-10.382-10.555-4.845-12.977
				s38.067,4.499,59.522-3.461c21.456-7.959,53.293-21.11,67.136-47.064c13.843-25.954,9.344-38.759-1.038-46.372
				s-60.907-30.799-60.907-30.799l43.258-119.391L2090.753,1631.955z"/>
		</g>
		<g>
			<path style="fill:#20111D;" d="M2476.253,1652.09l68.015,74.862c0,0,20.416-16.394,54.953-31.96
				c28.849-13.002,74.408,24.781,63.451,122.975c0,0-16.482,35.131-25.137,47.385c-8.655,12.254-14.189,4.225-13.734-1.802
				c0.455-6.026,21.813-31.52,24.836-54.204c3.023-22.684,6.326-56.972-10.115-81.363c-16.441-24.391-29.861-26.417-41.452-20.814
				s-55.75,39.372-55.75,39.372l-85.198-94.163L2476.253,1652.09z"/>
		</g>
		<g>
			<path style="fill:#FE9F73;" d="M2291.199,1519.139c0,0-120.852,39.451-161.687,47.064c-40.835,7.613-71.288-15.227-62.291-34.606
				c8.998-19.379,173.722-124.582,173.722-124.582L2291.199,1519.139z"/>
		</g>
		<g>
			<path style="fill:#1A86A8;" d="M2169.94,1453.609c37.567-25.239,71.004-46.594,71.004-46.594l50.255,112.124
				c0,0-31.426,10.258-67.641,21.323C2209.229,1508.116,2182.483,1470.486,2169.94,1453.609z"/>
		</g>
		<g>
			<path style="fill:#FE9F73;" d="M2306.732,1557.302c37.523,47.149,75.401,80.885,75.401,80.885
				c48.454,22.146,58.142-42.225,58.142-42.225l-43.063-94.535c-3.347,3.912-7.906,8.912-13.532,14.321
				c-1.217,1.168-2.478,2.354-3.795,3.552C2362.688,1535.006,2337.207,1552.799,2306.732,1557.302z"/>
		</g>
		<g>
			<path style="fill:#3AA1C9;" d="M2234.717,1416.704c6.769,48.069,39.256,99.441,72.016,140.598
				c21.842-3.223,41.119-13.278,56.614-24.5c1.441-1.043,2.844-2.093,4.217-3.149c13.346-10.272,23.525-21.072,29.648-28.226
				l-15.768-34.617c5.54-67.563-30.456-97.864-30.456-97.864S2220.178,1313.58,2234.717,1416.704z"/>
		</g>
		<g>
			<path style="fill:#512248;" d="M2256.118,1480.311c-0.801-1.59-1.59-3.186-2.36-4.782
				C2254.528,1477.125,2255.31,1478.722,2256.118,1480.311z"/>
		</g>
		<g>
			<path style="fill:#512248;" d="M2244.299,1453.371c-0.59-1.596-1.162-3.192-1.714-4.788
				C2243.132,1450.178,2243.703,1451.775,2244.299,1453.371z"/>
		</g>
		<g>
			<path style="fill:#223749;" d="M2187.648,1255.438c4.155,35.995,39.759,160.297,39.759,160.297
				c19.24,9.906,47.51,0.311,72.153-12.706c1.534-0.807,3.055-1.633,4.558-2.466c4.695-2.602,9.229-5.298,13.495-7.968
				c1.435-0.894,2.844-1.789,4.217-2.677c17.147-11.067,29.158-20.973,29.158-20.973s-17.302-67.824-30.449-128.729
				c-13.154-60.912-69.215-103.82-74.059-106.589l-56.062,36.685C2190.417,1170.312,2183.499,1219.449,2187.648,1255.438z"/>
		</g>
		<g>
			<g>
				<path style="fill:#FFFFFF;" d="M2317.613,1392.595l62.272,126.705c1.317-1.199,2.577-2.385,3.795-3.552l-61.85-125.829
					C2320.458,1390.807,2319.048,1391.701,2317.613,1392.595z"/>
			</g>
		</g>
		<g>
			<g>
				<path style="fill:#FFFFFF;" d="M2299.56,1403.029l63.787,129.773c1.441-1.043,2.844-2.093,4.217-3.149l-63.446-129.09
					C2302.615,1401.396,2301.094,1402.222,2299.56,1403.029z"/>
			</g>
		</g>
		<g>
			<path style="fill:#F9F2EA;" d="M2426.105,1564.855c0,0-48.638,30.039-80.162,37.556l30.672,32.561l59.569-47.991
				L2426.105,1564.855z"/>
		</g>
		<g>
			<path style="fill:#7FC6A6;" d="M2463.653,1608.671c-8.518-12.96-22.074-22-37.441-24.094c-8.023-1.093-16.775-0.423-24.982,4.048
				c-24.62,13.411-28.9,44.017-28.9,44.017l92.576,90.164c3.505,3.414,9.36,3.19,12.245-0.763c1.139-1.562,1.824-3.673,1.507-6.525
				c-1.11-9.982-16.01-35.819,1.013-63.08c0,0,6.567-9.965-3.817-25.401C2471.492,1620.554,2467.184,1614.043,2463.653,1608.671z"/>
		</g>
		<g>
			<path style="fill:#F9F2EA;" d="M2093.925,1507.175c0,0,34.75,52.543,52.89,55.162l-24.97,6.345l-55.779-33.747
				c0,0,0.783-5.617,7.25-11.382S2093.925,1507.175,2093.925,1507.175z"/>
		</g>
		<g>
			<path style="fill:#7FC6A6;" d="M2119.34,1600.154c6.842-12.476,8.34-27.35,3.43-40.705c-2.563-6.972-6.87-13.778-14.022-18.508
				c-21.456-14.188-48.103-4.499-48.103-4.499l-33.275,113.801c-1.26,4.309,1.439,8.958,5.883,9.596
				c1.755,0.252,3.761-0.101,5.936-1.584c7.613-5.191,22.148-28.377,51.563-26.301c0,0,10.901,1.038,18.947-14.016
				C2113.079,1611.617,2116.504,1605.326,2119.34,1600.154z"/>
		</g>
		<g>
			<path style="fill:#20111D;" d="M2425.93,1600.677c4.307,0,7.798,3.491,7.798,7.797c0,1.599-0.483,3.085-1.309,4.323
				l22.532,22.657c1.23-0.811,2.702-1.287,4.286-1.287c4.306,0,7.797,3.491,7.797,7.797c0,4.307-3.491,7.798-7.797,7.798
				c-4.307,0-7.798-3.491-7.798-7.798c0-1.599,0.483-3.085,1.309-4.323l-22.532-22.657c-1.23,0.812-2.702,1.287-4.286,1.287
				c-4.306,0-7.797-3.491-7.797-7.797C2418.133,1604.168,2421.624,1600.677,2425.93,1600.677z"/>
		</g>
		<g>
			<path style="fill:#20111D;" d="M2108.971,1561.103c2.208,3.697,1.001,8.485-2.697,10.693c-1.373,0.82-2.896,1.167-4.382,1.092
				l-7.899,30.962c1.327,0.64,2.49,1.66,3.302,3.02c2.208,3.697,1.001,8.485-2.697,10.693c-3.697,2.208-8.485,1.001-10.693-2.697
				c-2.208-3.697-1.001-8.484,2.697-10.693c1.373-0.82,2.897-1.167,4.383-1.092l7.899-30.962c-1.327-0.64-2.49-1.66-3.302-3.02
				c-2.208-3.697-1.001-8.484,2.697-10.693C2101.976,1556.198,2106.763,1557.405,2108.971,1561.103z"/>
		</g>
		<g>
			<path style="fill:#FE9F73;" d="M1967.507,1252.697c0.456-2.032,2.532-3.654,4.615-3.603l18.534,0.451
				c0.43,0.01,0.808-0.285,0.902-0.705l0.067-0.297c0.109-0.486-0.197-0.969-0.683-1.078l-20.065-4.5
				c-1.931-0.433-3.289-2.268-2.982-4.222c0.337-2.141,2.402-3.521,4.484-3.054l20.189,4.528c0.486,0.109,0.969-0.197,1.078-0.683
				l0.212-0.944c0.099-0.442-0.145-0.889-0.57-1.045l-18.052-6.609c-1.858-0.68-2.967-2.676-2.408-4.574
				c0.612-2.08,2.839-3.179,4.842-2.446c0,0,28.068,8.6,32.565,9.587l-3.956-9.984c-1.098-1.733-0.583-4.028,1.15-5.126h0
				c1.733-1.098,4.028-0.583,5.126,1.15l13.395,16.522l117.026-0.53l38.599-56.479c11.129-16.284,33.867-19.463,49.014-6.828
				c0.527,0.44,1.059,0.894,1.595,1.362c0.326,0.285,0.645,0.571,0.959,0.859c17.43,15.996,19.226,42.882,4.609,61.484
				c-16.28,20.718-49.016,59.431-70.312,64.937c-29.287,7.573-150.156-27.245-150.156-27.245c-0.009-0.114-0.016-0.22-0.025-0.333
				l-18.352-4.552c-6.543-1.701-13.341-2.197-20.062-1.465l-1.688,0.184c-2.121,0.231-4.019-1.371-4.114-3.537
				c-0.087-1.976,1.469-3.648,3.435-3.862l12.238-1.334c0.384-0.042,0.698-0.323,0.783-0.7c0.124-0.555-0.29-1.086-0.858-1.099
				l-18.175-0.443C1968.382,1256.434,1967.051,1254.729,1967.507,1252.697z"/>
		</g>
		<g>
			<path style="fill:#F9F2EA;" d="M2194.671,1291.619c0,0,24.015-2.314,43.152-8.203l18.294,65.14c0,0-24.306,13.409-43.566,13.513
				C2212.552,1362.07,2195.961,1298.965,2194.671,1291.619z"/>
		</g>
		<g>
			<g>
				<g>
					<g>
						<g>
							<g>
								<g>
									<g>
										<g>
											<g>
												<g>
													<g>
														<path style="fill:#FBFDFC;" d="M2201.983,1121.589c-4.074,1.553-9.031,3.216-9.031,3.216s10.073-5.254,10.258-5.291
															C2203.209,1119.515,2204.552,1120.592,2201.983,1121.589z"/>
													</g>
												</g>
											</g>
										</g>
									</g>
								</g>
							</g>
						</g>
					</g>
				</g>
			</g>
		</g>
		<g>
			<path style="fill:#223749;" d="M2029.517,1236.05c0,0-0.966,25.912-8.393,38.664l15.033,4.109c0,0,6.614-24.079,7.166-42.773
				H2029.517z"/>
		</g>
		<g>
			<path style="fill:#1D1D1B;" d="M2372.559,1630.113l0.712-1.018c-14.674-10.27-59.503-64.095-59.955-64.638
				c-25.793-30.005-46.762-62.051-60.646-92.681c-13.581-29.958-18.845-53.618-18.897-53.854l-1.213,0.266
				c0.052,0.237,5.341,24.016,18.978,54.101c13.933,30.736,34.968,62.884,60.829,92.97
				C2314.208,1567.472,2357.749,1619.748,2372.559,1630.113z"/>
		</g>
		<g>
			<path style="fill:#1D1D1B;" d="M2470.795,1725.821c0.254,0,0.508-0.01,0.763-0.032c2.492-0.21,4.657-1.41,6.094-3.379
				c1.38-1.89,1.926-4.232,1.623-6.959c-0.246-2.22-1.162-5.217-2.221-8.687c-3.756-12.298-10.041-32.881,3.144-53.997
				c0.269-0.408,6.667-10.478-3.829-26.077c-3.726-5.538-7.83-11.716-12.197-18.36c-8.811-13.407-22.616-22.289-37.876-24.368
				c-9.449-1.286-17.983,0.099-25.363,4.118c-24.61,13.406-29.175,44.167-29.219,44.476l1.23,0.172
				c0.042-0.303,4.531-30.456,28.583-43.558c7.142-3.891,15.42-5.228,24.601-3.977c14.903,2.03,28.391,10.712,37.006,23.818
				c4.37,6.649,8.476,12.83,12.204,18.372c10.006,14.873,3.876,24.617,3.813,24.714c-13.492,21.607-7.103,42.529-3.286,55.029
				c1.042,3.41,1.941,6.356,2.175,8.461c0.268,2.41-0.2,4.458-1.392,6.09c-1.222,1.675-3.066,2.695-5.195,2.874
				c-2.26,0.194-4.49-0.608-6.115-2.19l-0.867,0.89C2466.172,1724.906,2468.442,1725.821,2470.795,1725.821z"/>
		</g>
		<g>
			<path style="fill:#1D1D1B;" d="M2034.294,1660.536c1.763,0,3.523-0.592,5.246-1.767c1.697-1.157,3.734-3.189,6.092-5.541
				c8.346-8.326,22.322-22.254,45.077-20.654c0.448,0.044,11.39,0.903,19.538-14.341c2.892-5.41,6.134-11.392,9.637-17.78
				c7.085-12.919,8.349-27.943,3.468-41.218c-3.024-8.224-7.822-14.553-14.262-18.811c-21.468-14.198-48.387-4.663-48.657-4.564
				l0.425,1.167c0.264-0.095,26.61-9.414,47.547,4.433c6.215,4.11,10.851,10.234,13.782,18.204
				c4.757,12.939,3.521,27.589-3.392,40.193c-3.505,6.391-6.75,12.377-9.643,17.791c-7.734,14.471-18.237,13.702-18.341,13.69
				c-23.341-1.64-37.559,12.537-46.056,21.012c-2.314,2.308-4.313,4.302-5.915,5.394c-1.827,1.246-3.679,1.747-5.499,1.482
				c-1.867-0.268-3.474-1.316-4.527-2.952c-1.119-1.738-1.428-3.873-0.848-5.856l-1.192-0.348c-0.68,2.328-0.318,4.834,0.996,6.876
				c1.25,1.943,3.166,3.188,5.394,3.509C2033.541,1660.509,2033.918,1660.536,2034.294,1660.536z"/>
		</g>
		<g>
			<path style="fill:#1D1D1B;" d="M2435.619,1587.238l1.13-0.514l-54.671-120.021c3.25-34.415-5.234-59.258-12.931-74.048
				c-8.366-16.075-17.663-24.103-17.756-24.182l-0.397-0.338l-0.402,0.332c-0.208,0.171-21.067,17.313-46.573,31.556
				c-23.444,13.091-55.712,26.349-76.317,15.166l-0.592,1.092c9.348,5.074,21.725,5.745,36.787,1.99
				c11.978-2.986,25.685-8.763,40.741-17.172c23.616-13.189,43.26-28.851,46.329-31.337c1.822,1.679,9.813,9.487,17.107,23.524
				c7.616,14.656,16.011,39.298,12.75,73.464l-0.016,0.165l0.069,0.152L2435.619,1587.238z"/>
		</g>
		<g>
			
				<rect x="2337.831" y="1263.05" transform="matrix(0.9724 -0.2334 0.2334 0.9724 -242.778 582.2922)" style="fill:#1D1D1B;" width="1.242" height="107.381"/>
		</g>
		<g>
			<path style="fill:#1D1D1B;" d="M2218.166,1385.035l1.196-0.334c-6.379-22.882-25.441-99.282-25.633-100.051l-1.206,0.301
				C2192.716,1285.72,2211.781,1362.137,2218.166,1385.035z"/>
		</g>
		<g>
			<path style="fill:#1D1D1B;" d="M2154.292,1302.551c6.035,0,10.424-0.597,13.653-1.178c4.899-0.881,14.781-7.579,15.502-8.071
				c14.375-7.748,53.139-54.967,54.783-56.974l-0.961-0.787c-0.401,0.49-40.303,49.099-54.439,56.683l-0.057,0.035
				c-0.103,0.07-10.331,7.045-15.048,7.892c-5.779,1.039-15.339,2.133-31.586-0.358l-0.188,1.228
				C2143.337,1302.152,2149.364,1302.551,2154.292,1302.551z"/>
		</g>
		<g>
			<path style="fill:#1D1D1B;" d="M2125.79,1569.287c12.834-2.87,153.851-45.994,155.274-46.429l-0.364-1.188
				c-1.422,0.435-142.393,43.545-155.181,46.405L2125.79,1569.287z"/>
		</g>
		<g>
			<path style="fill:#1D1D1B;" d="M2150.848,1246.628l0.979-0.765l-8.084-10.351c3.481-5.062,40.619-59.038,43.599-62.102
				c3.097-3.185,46.144-30.548,46.579-30.823l-0.666-1.049c-1.779,1.13-43.605,27.718-46.803,31.006
				c-3.184,3.274-42.325,60.218-43.99,62.64l-0.258,0.375L2150.848,1246.628z"/>
		</g>
		<g>
			
				<rect x="2025.948" y="1235.18" transform="matrix(1 -0.0045 0.0045 1 -5.5765 9.4547)" style="fill:#1D1D1B;" width="117.027" height="1.242"/>
		</g>
	</g>
</g>
</svg>
